<mxfile host="app.diagrams.net" agent="Mozilla/5.0 (X11; Linux x86_64) AppleWebKit/537.36 (KHTML, like Gecko) Chrome/130.0.0.0 Safari/537.36" version="25.0.1">
  <diagram name="PÃ¡gina-1" id="grsP-o-xmWwViQo6Dlbh">
    <mxGraphModel dx="954" dy="574" grid="1" gridSize="10" guides="1" tooltips="1" connect="1" arrows="1" fold="1" page="1" pageScale="1" pageWidth="827" pageHeight="1169" math="0" shadow="0">
      <root>
        <mxCell id="0" />
        <mxCell id="1" parent="0" />
        <mxCell id="9V3amyga9CZpgijUsC6T-117" value="" style="rounded=0;whiteSpace=wrap;html=1;rotation=-90;" parent="1" vertex="1">
          <mxGeometry x="-157.89" y="174.53" width="1143.5" height="817.5" as="geometry" />
        </mxCell>
        <mxCell id="9V3amyga9CZpgijUsC6T-2" value="" style="shape=image;verticalLabelPosition=bottom;labelBackgroundColor=default;verticalAlign=top;aspect=fixed;imageAspect=0;image=data:image/png,iVBORw0KGgoAAAANSUhEUgAAAmkAAAGHCAYAAADr18W9AAAABHNCSVQICAgIfAhkiAAAABl0RVh0U29mdHdhcmUAZ25vbWUtc2NyZWVuc2hvdO8Dvz4AAAAmdEVYdENyZWF0aW9uIFRpbWUAc+FiIDMwIG5vdiAyMDI0IDIzOjE1OjMwucoNdQAAIABJREFUeJzsvXeUHNd95/up2DlMz0xPDhgMBjmTAEiCJAgwipTEJIqysqjklfzWlo693vX6Hdl+u+/tru21VpYtHVmyAkVSJCURjCAYASLnHAcTMJicOodK9/3Rg0SCBEAS4lCqzzlzMOipvn37dlXfb/2iJIQQuLi4uLi4uLi4TCrkD3oCLi4uLi4uLi4ub8UVaS4uLi4uLi4ukxBXpLm4uLi4uLi4TEJckebi4uLi4uLiMglxRZqLi4uLi4uLyyTEFWkuLi4uLi4uLpMQV6S5uLi4uLi4uExCXJHm4uLi4uLi4jIJcUWai4uLi4uLi8skxBVpLi4uLi4uLi6TEFekubi4uLi4uLhMQlyR5uLi4uLi4uIyCXFFmouLi4uLi4vLJMQVaS4uLi4uLi4ukxBXpLm4uLi4uLi4TEJckebi4uLi4uLiMglxRZqLi4uLi4uLyyRE/aAn4PJhR2CYBca6TQayxxhP5env6SFr5iikCxTyeUzTpGBZ+HQdRZbRdR1vyEcsEiNaFqM6HidWGaO8LIbP4/ug39CkIlsskhlJMpIeYSyRoJDNk08mGc+myGZz5LN5bNvGcRyKpomsKEiAIwRBnw9N09B1nUAggMfjobysnGA4iD8eoFKrJFgRIeDxfNBv08XFxcXlArgizeWycIQgU8iTzaUYHBhgpH+Y/oFeeg4n6E0dJjueoL2rl5yVZ3QkgTBMssUijhAoioJXVQn4/XhDPmrLovjDZdTWN1LdUEVTQyPV8ToqKyqorqkhHPTjURVk9fdfRKQLBfSkxUB+lFQxzejACPlcnp7hfpJDYwyNDTE8PEZqPEF2PEEynyaVymAUiuSKRYqGgSMEsiSBJKFKErquo+k64UAAv9+Pz+ejOl6FPxQgWB2iPlJPRXUV8fJyQtEo0ViIqqoqvJ4gPslC9QQ/6GVxcXFx+YNGEkKID3oSLpMb23HIZPOkR8bpHurl0OHDdPd0MNDfz0jfMOl0GlOyiPojRAI6luJF92kgZAIeL44l4VEUMmYeRZaQJYlsoYBmGGTyedKFAgWriCIrxMIhKivjVNU10NxYx/TWVuqntBCJhAn6fn9EgxCCkdQo2fEMY4OjHBrrJbO3m87RHpKFNLmRYTIFi5HUOF6fF69Q0D1eVFlH0hVUn4pX1dFVHctxsBwHj6yVxgZUJPJ2ESEEsixRsIqYRRvbsrCLRXK5DEXVQTckIgEv3vI4wZCXlrpq9GAlrfVVVDVOpT5WhRxWqQiXI0nSB7toLi4uLn9guCLtHAQl99Jp9LRFOlIkmNLJBjT8WRvbJyMUCV0BTdGQpN/fsD7LcUikU3R1nuDQvgMcPLSXnt5hhvr6cEyTcDxOTWUlseoKopXlNMXKCUdrCEaDeAM6YW8QTdXQhYaERMEpYAsH27ZJZbOY2SLj6SSDI0Ok+0cZHB5kLDnE+HiC4WQSCaiprqVlZitz5s5hXuscGqtrCcTCH/TSvCO242DaNl5Ne9PjNmOJcUZPJOjLdrJz315OdvaSG07SayVJDQzgVTz4Q2FqayqI+sqI6EFCteX4/V4qKioIe33owQB60EvQ60dTNBRFQZZlFHH2XHQcgeEYCCEoWga5fJ5sKk+2mCObTpNKjJPIpDEHkiQLIwznCwz2DyGnEyRsH1XxMIFolJpoFXWzalk892qqyyuoDVXiLQ8iKb+/572Li4vLZOEPSqTZjkMuX6CQzJCzCiQzGYxiEatYxCgaWMUCqXyBgm1RdAw84ybj5XmiY15SYZ1Q2kQJ+0CR8WgQDkbwO34kr4wn5MPj9+DTvfgDfrx+Pz7di6YoH/TbvmwsxyGRStLe2c6W7dvZvnELfYe7MP0ZauLTmNHUQsuMadRPbaG5ro5geRi/L4xfMpAcP6pPg0s0uuQMA9O2UbMWmWya3sQwI8PD9HZ2c/ToUY50tDM8PkogGGBKXTPXLbyKxTcspbG5idAktaxZtk3Rsgh4PCX3cC7H2PAw3Se72b57B4c3H6Mn3YmRNSg6Dk31VdRVNFBVWUHD1ClEKiuI1dVRrQep9IRwoh4cVSKg62AXkRUNWdEuPpFzEJaDsAWOClnDAECyBHKiQH9xlJHUGEMDo6T7BxnoydI/1kF3fye9g6P4dI1QRSX1VVUsaZvL1AWzaGloJl4TR9XciAkXFxeXK8XvrUizHId8Nk86kWQ0NU46lWRobITRoVFS/UOcymdIDA2RSyRIZbMYloVu2QCYsoQlbIT3/DGlIiiUArNN00TRNHyWBrpEIB4jGgsTC4Upr6ggVlVJeSRGRVk55eXlRKNhgkE/Pt2DrOi/+wV5B0zbRgiBrqrkcjnaOzrYtGUTG994jSMnOvApIWY0TOealVcxfdYsplbV46uOEfZduSB/K1lgdHSU9v4u9u/ey47duzja0Y6VLTJ7wWxW3XYLVy9cQktDE7I2+aw6Qtjkc1m6e/rYvmcPu7dvp/vIEXpHhvGFPMSrGlm2dCktjY1U15ZTG22k0hfBWxtBUj44t6JwBIXeJMP5JH2Jk/R297Bv71H2Hz9CX18fulwkEK1i2ZyruPaGa2htm0ZdXR26PrnOaRcXF5ffB35vRJojbArZAuOJJKNjI/T19dF98hR9J3vpGjzF+PAQ/UP9SIaF36uS9YWp0HSCgImCWhEiUuYnkNbRKkME1QCKbCP7NZy8ieQDKydjJLOYHkhZKYojBXIijZkyyFkWwnIga1MQBYRmoqASjcWpa2ggXhOnvjbO1PomqmobiMSilEWj+D3+D3rpKJgmjuVgFvLs2LWdJ5/8DTu3biXi87Nw2bXcdPNNTGtro6qujpDX+7bjOEUb2VOyHDqGjawpl2xReyey42lO9faw79hhXnr+JXbu3YmmaSxffgOffeBBps5unVTxaoZh0HPyJNu3bmXTxo1s2rWLQj7P/JYW2hYt5sYl11Hf2khFTQ1R/wf/+b8TRj7BSC5HcjjJ0SNH2bN5HRv37iMxliISLWPOvHnctmoV8xfNp7Iijqa4ljUXFxeX94sPtUgzbZtitkA2m6JvaIBDew9z8OAhuk910tvdzVgqhTcQwBcMUhMro6IiRrSsgng8Tk1tLbHKSmrKK4hqAewKDQJQMRigUFFyJXlHTLSYH2s8hxwT5GQNfczCCKlkvBnCYxp5ycTKFhlMjTA+kiDdk+TkWA8j46cYHh5haDzF8MgYQ6OjKEB9PE59Yz01zU3MmzmfBfPnEC0rIxAKEPB+MBu25TgM9Q+x/rVXeGL1Exw7eoI58+bwqfseZOlVS6lqqL60cTImarC0dlbWRPWrIEnYjoUsK0hIOJaBpKjvKpavaFn09PXx2tqXefrxJ+g61c3CJVdx3wP3s+ramwhGQ5c95vuJaZmMjo9xcN8BVj/9PBve2IZXZGmYPoubVixnxU03UdPYSORtLJC2Y6LI7+zGFJYDsoQkX7r6FY6NEM5lu0gvRDKZ5EjnUbav38arG95g3+EDNFdUctMdt3DbbbfTOrWNkD+AIk8+66aLi4vLh40PpUgzbZtkKklPTw9H9h+l/fghDhxt58ih4+Ty48Srqpg+bRotLS00TZlCfUMDTXXVNNTXoHl+dxt5IpOkv7+fkx3ddHR00HPqFF0njtPZ3s7ImEksUM6iZdNomjaVabPaWDhzAVUVcQKRs1YhIQSGbeNRr4yFwnIcegcGePaZZ3jk4V9QKOa59/77uPueu5k9bdb78hqmlUdVPEiSjFlMo6heJKGcERvCdkC6dOGRT2U5tGsvTzz9a55ds5aKeAX/8Wvf4JaP3E4wcmUtapZtl0pcvEmEmEWDEx0dPP/SCzz39LOc6OpkyZJl3HvXx7hh2XJqW+ovOrZh5dBUH8KxkWWFc82QhmWhKgqiYCNrMpIqn7dujrCRkJAkGSEcBAJJyCBACBPHMVH1QGkwIRC2QFLfvZCycyYnejp5Zs2zbHzpJY6d6GTe0sXcfe/93Lj4WirjFSVLqouLi4vLu+ZDJdJM2yaVSnDiZDfbt21hx4ZN7D1wmEwhR11NNYsWLGLWnLk0NjYyZ+ZMampqPugpn0fBNOnu6+Ho0SN0tvdyaNdeDu3dymAqSTTg56ol17Jy+U0sWLqQmqoaAuEAjhAkcznKAoH39NqmbSNL0nkWDuFY9A0P89yzz/PIT39OXth88auf5f6776ciXP5e3+47YuetM2LDLlhIinzZsWVDA4M88vCj/ODhn1AeDvBX3/6vrLj9pjMuZMexkOX3V9zmDAMJ8J0Tg1UsFjly4DC/+uWvePbFZwjGInz8/nu47867aW1tveSxHdNB1uSSWFO8SJKMYxtIskq6UMSn66hCOiNuz103yynNS5F1bMdEIJBtFWE7KN7z10DYDk7RQfG/97WxcxZ7ju/jF//+c15c8yJ19XV88Z5Ps+KOm4k3VaO9D9Y7FxcXlz9UPhQizbRtctksnT09bNnwGq+8/iodB4+iKF5mzJvDjSuvZ8HVi2lpnEJZMPpBT/ctCKe0xOdaihzHYnRsmEOH29m7ZxcbXnqBA50n8Xq9zJs7jztW3ME1K66hoqoS/0QVfsc2zks6MCwLTVUvKewrUyigKQqec8pCZFJjrHnpJX7ygx+RTxZ48Ktf574H7nhfBFpprhoWElLOxJBNHECVFDRNA+HgyDKKJIOwcSasQJcj0xxh0zdwil88+mt+/rN/p21aE3/5X/+axXMWo6kKppVDV9+buL0Ypm1x6NAh/u0HP+SFtc8xe9FcvvqF/8D1K1ZcdmKFlTZK7uJz6pGZhSSqHsASEqZloJoymlcrWdKEDRPrdhrhlJJfJPl8K5YjxEQGs4kkg+JR8epvH1/4dgjLKZXfeNNJ19/Zy2+ff5qfPfYwuqzwwKce4KN3fZSGmnqUD2GGs4uLi8tkQPnOd77znQ96Eu9E0SzSdeoU619fxy9/9jPWPvU0xUyRa25Ywdce+hpf+MyDXLNsKXXVDfjexaZzpRCOAAGSJCGMUvkD+Rz3kiTJBPwhmpuaWLhwEUuvv4GW6VNJpBNs3rWRtS+vY2R0GF/YSzwWx6PrGPkkqn42bi2Ry+HVtEsqMqqrKuo5m6XtOBw+epxHfvkonR1Hue/jH+OTn3iAysrKkjvM4bLint6MWUgiq17SjkPf3nY6TnZyaqSXdDpDOBhCFgaGLCPLCsIxKAKSpPB227kQDggHgYQ9UVlfkmTCoSitU5pJjY2y46X1CEVj+ty5RIMhFPnKZhzajkN330l++atHeHH1syxdfDV/+u2/ZOWNN+JRNYQjkGRwhHNJMXiyRyFvFrEsE1VRkSSp5BqWZAbHxugb6iMQ8uOdSN6wHQPTMjELJhIgKwqOVcBx7LfEn+UNg66eHg5t20vHyS5M1aaqPH757zlnIWkyAmfivCudI6GyMNPnziFQHmPn9u0c3neQWCRGU1MTPr/b6svFxcXl3TCpRVoxX2T/4UP8+tHHeOyxR+nr7WPJ9dfz1Ye+zmf+6NPMXjgHfzh83oZ0ejOXJBlRCshBQkIIcVbMCCY20CtX6sAp2uCApJZcerIqnyfczkVRFMqiZcxpm82KpTfS2DyFfF+K17ZvYu+2XXj9fhpq6/CGys5zV/p1/V1XgU+k0zz73HO88MILzLpqMZ/7ykO0TJlSmrslEIZz2e5HxzaxRMlqo3sCSJJEZjzNb9e9wNF1B2jvPEEim2FKczORaDkaIBwHgYIuK6jv8F4cq4htF7GFTME0z7MIarqOLxpk/76j7Nm/m0XT59HSNvVdrcvlkMyk+fXTq/nZT35Cy9Q2/uw//QXXLlkClFyKdtEGDSy7eNGEAChZjPcc2cepgV5i0XI0uSTULOFw6ngHqUSK8lg5Pp8P4QgECt39p+g4chwFhWA0jKLoIKtnWkQJBMJxKBpFunu7WLdpPW9s34hXD7Jg7twzry0oxds5QoD89hZNWVeQJAnTziM5ckl8TnxsHk1jVrSBSDjMhq0b6e08xbSWVmrr65Dd4rcuLi4ul82kFWlGociuLTv52b/8ipdfeJqqhjhfeujLfPqhh5i3cB5+/4WtZo5VKLnaVB3HsbCFiWQrpfIQeslOIxxRionSr5wbRp4QZ+ciDAdhvb34kWQJf8jP7KkzuG7u1egVIbZv3cpTzz6HXIS6thZiwfB54lI41nkWjQtRcoFJ5wm6ro4Onlm9mnQizb133891116HPpGcICnSJQk0YU8IXQHFfJ6R4ZOcGk+RzucJ+n3ICDInhhkzx/FUqFiqyqIpc2ie0oikSiTGBugfHmE8mUdRFDz621sFZUVFUT2ob3LZAqiKSjgUIm1nePnlNdRKNSy95Zor62YTgiPHjvDLXz5MZizDN7/+FVbdeB3KRJ9RSZYmBI18SQKtaBp09w7w2GNPcGDbbipqa4noQVRJpmd4CGnMIBKvIFJehqaqFDMFBkfGeP2NN9i4Yzu2phAvr0RXVcZTaQp5A49XI1fIkkkm8eJlSssUpjQ0k+wfQ1ElFi9eDAIc2yGbzXKir4/xVArh8RDU3nnOiqxj5+zSTcg556Ma8lDZVMXw6Agbt2zGK+vMnD6DUHRyd4lwcXFxmYxMSpFmCpP9W/bwD//2XV7fsY65tyznr778bW5ZuYpYLHJhl9hEaJ2saMhqyc0lSwqypIJUisEBUbKoyfJ5gu1CwuBCj9uOg2WYyLJ8SRYsIRxAnJFPknppwfGSKhOqLmPxggU0NzXRcew4T72yhmgwyOwp0/GF/Gc0mZEbR1E97+hOs4oZkDgviH7H9u2sfv556sum8Mm7PkF9y6WV2Tjz3hyBlTVRPAq2ZXFw225e2bKHXbt3MjbeT6isHI9ksHbXevr7RkjnTFRVZXpFE1V1VfSM9fL6pm1sWreR/n0DqB4P0cownndbFNWG3FCW3fv3Ma6lWLRkMZXRinc31iVgFW1effVVnlz9GxbOWcRDn/kSkcp3/3on+jvZ9NzrvPLKWoa6BshmkzTPmYGecHh5w2s88+pzFAo5mhobCQQCDGZG2LVlB6++8CL7du9ifHycuLcMXVE4uPcY6aEEodogxzu62L9nL36Pn1hljGQmzeHOdjyaxqJFi3Bsh/GBMbZv3s7zr7zI8b37kC2DxvomFPXslSYcgZCk824FZF25oDU66Atg2YI9B/aTz2SZM2cONfW1bu9PFxcXl8tk0vkghCM4PN7OL379M3Zs38Vdt9zKf/njP2Xu8kWoIc/bPs8u2thFG8GEXpsQbUXLIlUoAKVAc9POl16HkiXIyphnx3CcM79bKaN00DkMp1Mc2XOEfC5/Se/FNnLYZr40t4J9Sc85F6/Xy+233c4//PV/Y/bUqXz/b/+WJ154hOLE+wHQfbG3BIm/Gc0bRlHPWh4dIUiPJ3CyOSoagoTrz7FKnrN274gk0MI6CEExXeSw1ENFtpIFM6bTdfAEGze+xlhWsGvdNo7t2ElrbS2F1DCrt6/l1PgQHYeP0tvRQZkvTFYZY8eBdfT1dl/uEk3MWaB6dapnTmFG23R6jp1k7NTIuxvrEsk7Jn1DQ9iZIjNmtFIzpfY9jVcWjjN94UzmzJvL1NYGlixZQjAQwKj2Mn/hXFRV5eCBg4yPjwGCoD9Kc9tU5iycx5zpM1g8azZV0xtICYP2nkMcSBygoBowmuHEngP0ZwdLLyRKSQXaRBFdwzE4OnSc9TveoDISo6YszuvrXuLA9v3nzc9KG2QcgcOl0drUzKKWRhKjvRzpPkHunJ64Li5/iAhRMhJc7BjHdnBMuxRvWjQoFosUi0VyhTy5fJ58pkAunyOby533b66QJ1fInzneLJqYloXtOAinZDBw+fAx6cqDF8ZzvPjwSzz14qusvH4Zf/L1zzNt+jTki1QyP11moAhYho3XFih+Fa+m4dVUhHCQUNDVAJaAvAQhRUIJaaW4HQEjmQxV4ZJbRo1oOAjkCduBEA6Z7BijhTGaHPP8FxfgTFjMJKnk/hOA4gkiCVGKjTszzkSm5yVaFVRdY/b1i/mbv/1b7v/0p/mX7/2YeU1XseSmJSiqWsoIDOnvHF93+tqcOCRbLDKWz2FJgoCi43XOrq1j2jimgxp4e3eXcCyMfAJPoAIkCU/Ywxy7ic6WARKpYYZOnsTSde5oyWGUh1iwbD4rblmFL6Cza9deRlMpunf0EY3GuP1jt3P8RCdbd+wkmb408XveXCwHO2+BX0GRZXxeH2OZzGWPc7mYo2nS/aPIXi9lsbL3PF48HCa+bBlbdu9GrWjgxhUriEQjAFTNmcM1199A//GTyDjYjkXE52PerFmMjY2hCI1l1yxjzvTpdHZ2lkqEWH48eRVDLiLCZwP3JctBSuUxJnpuClNg9OeRTIcv3nwvhbjFf/+bwxxNtLOIxWeep0U8XE4xDR0N1VtGxnDI53PveX1cXD6MnPt9nykWkSSJoMdz5m+OI3AcG9uxcWyHvGGQGk3DWIZBJUVxMEfSTGM5FsOZUSRbRu3xY1QPk8pB1CdIFWQCUc9EMpVEZaAcVVGJqmH0ah/hsgrKPBKBQBRV8yLJMspE0pYkS2f3rQvM2eWDZ9KJtJ2Hd/PKC89TX17OPTffS339TOTLyNLzAB6PAkJgW6WT37YKZHMpbDVIpT+EKNj4/Qo502A0m6YsoBLwllEVDiOEwLQs8ol+kviojcVQZJlsYgBN8dEyczayJnCEjSwpOMKhmCgwbuTQfYKIP4xUlMkIB0WXUIoZ0oUCui9MNBgkb5qYtv22VecFIAlxXhkGVVW59tpr+c53vsOffv1rPL/tNWYuayUSrESLvL118TRWzkTWzrp4Q14vlYEgslYgKSfIy9aZY2VduWisniSrJYEGCASZYoLXj+5h8FQP9dEaksUiZUIgZEGDEqQmUIEmq6gjZUhGaasvlOcpC0ZRJRWP4qBjItmXb22UVBk1pJf6jxoWykiGeCSCdEmFSd49Qa+fiDeIYRfJGrmS9fF9+FKTkEhIBSzbOpPs4ggH0gWEaaEq3pIL//TxOYt8MU/eMRCOgwR4TPAUHQxZxyj6YfTsHbTilfFVehCKhuM4ODjkpTzFXIZkpYJmGkRSIeQLus/P3mxc9E8RBUO1kDwyQb+EV7Iu/DwXl987zl4MqYnSR35dI+jx4DgOpmniOA7pfJ7B3iF6Ojs4NthJf08fmbFhshmDkfERkvkUmZEURSOLURAUDQOAZLHkSZEcibJiHicaJVksEtY9eL2l/SAYDBL1RCAqE/AEqIxVEI1EqayrJRaP0BxroL6lBV8sTNTvJ+TzIcsysiSRNQwcx7mivZldLp1JJ9JefvklOjs7+cg997DohiUEwgGstIHsVS8r29Acz7N72x5ePLAJYVnYhkFLQwv3L78dqdrHjle2sG7vZgrZUeYvXcr1166iKhLh1MgIT69ezegbJ1HnRvjIx29hWryCpx5fy0sbXmN26yy++LUvEvKVhMzJnhO8vG4jRw8coa65hrvuuJOKeC0vrnmB7sPtCCAvWSy4+ipuWn49kXfo1WgBWdvEW0ieEUGnURWFG25ayrKZzTz75JN84cEHCQcqLulu50JWMdXvwxYhsqlSr8l3ixCQyDiMbDuAmBJn6rxp7Nu/HaVY5FRTCns8xUhyGNO2sOJjiJ5SuYhQWTXHDh9G4nXGRsfw+72Uxd59cLllmwwke9mT6qYsEqVaj7zrsS4FOaZR3RIi6lgMHDxJrieBv/G9W9RieOkfPcrxrfuYee1sguEYXQMnOT5whIHhPg71tBAOhikrK0P2KEgS5LPj9Bw8THNlJSoSeUmm61QHymsvsefQXgYLg1wjLQdKOtI2TcZ7TtK5+xDl06uI1lUQrIjx+trVFBSF7vos98fazszp9JZTMNN41OAF4x+tzPnX6LFD7XS0d1FbUUN9eQuSmDzlcVxcriRGLoGi+1BUL2GfFwQUsglS6Qyd3X3sPXSIfXv30n7kCIlEgmw2SzabxbIsFEUhXBahrrmOhop64rPihKNRPKEQsqIQDYcI+wEho/fFMeoGSOYg7IdMXxHhQEIqMD56ikLWZGRohPH+cXYc385YTwE1JKiICCTdT7SymtraWlrqmpk9dw7zFkynpqIG3RtCC3hLXUuu8M2uy8WZdCLt8Nb1DI2PMrWxkcCEkldDl2ZJs4oZhHDQvGHMoEqfk6Dj4EHmzp1LVUMDJ3u62NC9kbmhufSlulg6byEB2c9LezYiI3HHVbew/pXVDHR30/rQDCozUeg38TZVsuTO6zBCGuvWvsRY/ygVFRUYxjgbNm/nZO8AbbF59Hd18cZrb3DrrbcyNNrP4YEOrl9yHZnhYfZvXEdDZZTFC5e+7fxVIKJoEHhrALosy8xqmsn8G27nhz/8IUPtAzQ3NoEskwSCcMGEigygT/ycS2NTDbVtzXS3d7N/yy7i9fVEfD5sx8B2LHT10vqIypJEbUUZzZ9bws4nt/D6tm1UyEEqG5uosGvwTmuiLd6GV/UQCpRTHa6hJhIjfsNS8olRNr++juryGpbeej3lVVWX9JoXxHDIdCQ5cqCdz919D4HpDe9+rEtAVTxMmXUV8WmzWL9vG68c2sZHG297z+MuXriY9oEjPLLmNzxQrVNWHuOlp9eyadsOkpkUXbkcuRUmt6y4kWhlGa1zWzjee4hNe7djBBRWrrqRRdfNZ83qNax/4SU8oRCza2fQECzFzIWiZbTNnctLnWv55dO/4cG7H2Be2xyG5w+ydu1aNF3jtpXXMPWqpjNzGkgmqQqH8WpvL6LPvUbHczmO7ttPR3s7i69fSmVz1Vu6Hri4/L6i+8/erPWNDtBx/ATbNm5lzZo17D10CISgOuTF5/EQrajlmquX0DhnOlPrG2mKNxCI+onZYfJVHlRkIkJBaDm8wcpLev1CZoikpWEj4e8vMqKnKDo5sok8p0YGON7eRffOXo6dOMDWrVt52XqW9OMKEU8li1pbWbVqFVdft4Sm5iZqYpeFc9YQAAAgAElEQVSXUOby/jPpvjkPDqXQZZWaYBx9ov6ZYWVRZP2ipQxUz9m+jUUjh4NBW1sbK1euxB8M0jkwwOBogevLqpk6exZHDhxh9PgQ7Yf20xioYGhhlk0vbuDOT3yCW6+9FVkqZXHKssy0ulasaQZHN23FG/EiqTKZgoe+9i5mNjWx6pabeXXjRnrbu0iOJABY2Dydu264mf0nDvPG5s2MJS895spyHMayWeKh83uNnracnRsCGubtC3AEKfWEtGX1vOKuNY1NLJw+gye272Pb9u0sv245tNRNrPNbRbGwHKycVUoWYCK7M2WgRT1oisZnlz/Iqlm3lUw1QhANyAR9Ub5632fQwx4UTeGaa66hdfYcIgE/HlXlcw/eT/Keu9ElQSgQQvNeuDuAZeQQjoXmvbBIMGybIz3d/HbtanzBANfcufJMbOGVZPrMVq5dvJwff+9HrHnq18xvmUFjW9NFnyeEoGilLyh6Zi6Zzdfa/gLbtqkui6IqKuWfreGPbroPPWqT83qIBKP4J+JaaqoauOf+z3LLXQUifj9hn5/qsjpmTJ9LMZ8mgIQsAmje0ucW8gW59qrlTGubh64oVEWiSLLER265neuaFpGv9VIu+/HpZ10d1eHwZcWn7H59M0/89mnKQiEeWHEXbfWX3hrLxWUyUzBTeNTQedeDmTJQ/eqZkktj2Sydx4+z8+nN/PzpX7H72C5Cfj91LfXcsXQV82fPYsaK2cycOoeqSBwtWKp3ee4PwGmpJyGBFOCdyiydiy8Ux3t6g4hClCqYiLu+SgjErYKimSWVK3Kyq4eTXUfZv2sP+w8f5lBnO2v/6lXKIxGWr7iRW269jQXz5zOltZWyd/ACuVw5Jp1ImzFlCr29vbQnu8hZBfwEJqw6l2d2DRg6sbyvVLVdUdA9HoKBAI5lMDrQw9bXtzN6qAOzOsxoMUGCIpIElUoYn893puL7aSRJIm1nSMcD5OU8jihlkqaEg4oHXdEp1wN02BZZu4hf8WGV60hRHd3vB0nCyl9cpAnbwcqWxFBl8Pxm4QIY9b81R+diK6OrvrccVVUW56YbVrFt+x5e2Pg6zXNn8Ec1nz4vDqFommQNg1ggUKqHFdJJAyFKdcDOjYdTFZX6irMWQEkqfbn4YmfLhciyTDxydsP3B8vxBc8e/3bvRNV9IMCg5BL2WAVss4DuK7UAy6XTbFm/njWvv8bKG65lVePS30nQa0W4nHsf/ChdI0dYveZpdNXPn/3Jn9E4/axQc2wTs5DCEyhHODZGbgxPsBKPFrrgmLIsU1tWhqBkpQSoikQgHAFJEEEqNVWfOF6SJMoCQaKBYOkLfuKxSCAAfv85K3r2N5+uU19efl7AsOrTic2pRcjSmWQZznmN0xQzw+j+sxnFo5kMIa/3TI29Tbs2891H/icdPQf56oN/zKIlS1C9bv9Olw8/SSCkhd7iAtRCOkglY8K2Zw6y+tXf8vTa39Bzsofm6VP45Of+iJuX3MSc+XOpbqgh4vejqKXAfVl6a4u1C3M532fSBcJjz39MVcP4vRCPlrNo3jw+eue95PuTHG9vZ/PxvezYu5PDO7bzxpoXiTU28rE77uCuj3+ctlmziL2pj7TlOIxns1SGLvyd5vLemHQibcmSJRw4eJCeY12khnuJhUPn9at8O+yCRVGA5FPxATnNIOE9W6pCMh3krIkVkhhMFDhx4ABzli2lpa2RwWPHKZoG8WgUta2ejRs3UtNahzNggiOYvngmqqZSNIqYvaOYx7OIeKkYQWUsSM94L/t27+dE11EqK8NEAxq5rElUChMyPFjFIlahcNH0awBJkdFCpU3t3M3RsR0ObtnP5iefY9HChVTOakJSL7VY61svcEmSmDV7Nvd85CP88Iff5cnnHqe2uYkbly8vuT2tApJVIOovxXY5wsa28wTV4NsOK19IGL3pofPEk3SpEQ8SSKBR+pFUz5lzIplM8swzz/D9732PtvpG/vwr3yYy/cqa6C0jWyr74Qkyc9oMvvy5rzPSn+JXv36comPwzW9+k1mzZgGlun2n3R+SrKAHyifeUakLxkAyycPf+V9s6NiPIwRaRMdMm6hBDSUlIYIgZUH4QcqD8IJUBKGDZIJQQbLBKlrgl1CFgpQrHSeU0t+EOnGsPvFc78RYfiApMDUTdcJCigNKAqRKla999issX3Qdnqj3zOeoB8qx0iZqQEZSJMoCpc4S49ksm19+g3/4/j9xqvckX/j0l3nwM5+isj5+ufdXLi6TCEHBLFm9vYkickSnmH3TjUo2w849W/nNb59k7VNrGU2mWHnjDfzFX/wFcxcvpqmhgWggiKqpl1xj88pTEm2KoqAopX7KniYPi+rLmbt8EZ8ZvJfu9k42HNzGMy+8wI9+9CNeffppVn7843zygQeYe063ElWWKQ8GEcKhmB29ZLesy6Ux6UTandeuYvue7WzYuIFlS5ZQXtVEJDKxIedyeDQN7wWqoSseFd85NqaAR6OmMsZIZTUBxY/qUwnFQ0RkH/W11TTNa+ON116j/UCcam8ZFeXleDWdz1//cX746hP89f/918SamvnqtV+jmBnjx4//mmeffZ7h4WH+euy/cefQR/nY7R/jtltW8dtHf80PfvEvVNU38MBH7qO2sppYmRc0yOoGgVCIeH09oejFm787wsayC29pDG5aJs+88gy9Paf42jf/hMoyz3ve+yKBADfffjMDA/08+dNf8pO//3usfJ5Vt9xCxOtFVs62nZIlBV3xgy2wcuYlxwm+XziGjbBKZVVOd09IJBI899xzfO9f/g85OcN//MqfM2/Zgrd0eni/UbSz1kZVUbh6wSL+6i//M9/91//Do08/SntHN9/86tdYdP1i6ivrkCQZG8gBQSFhpo0zbmPHcei10ryxfTsBTSNtGgRVDUWRwYG0aeBXVPKOhVdWKToWuqxgOg6qLGM5Dook4zjO2TIsDkgy5C0LXVFQZZmcaaIppfZbxYmx8raFX1HJWiZBj05qopaZLCRqKmKcuOkUK27UzogsM2WQD2oEgmdLvsiSRN+RLp5a+xxPPvxzhpIJPvWpT/GZz3yG5inNyPKkK8Xo4nIZSHgmbkz1sA6SdJ5A6zjQzuNPPMKjzz1NT38fN113Hfd88h6uW3ItVeVxNF1HVZRJIszeGUmWUGUVVVPxNnqJ1JTTtmwuH/n4XWzetpmnHn+KH//856zfspHb772bz99wF3WzW4DTN+gSHn8MBJip4iVVHnC5OJK4FPPO7xCzYPCzxx/ln//pn5g6pYVvfOubLLtqGX6PD9txztSCuRiGEKSySchliESrkBSJTCoDBUEoHiaVSpEYTFDQBZV+Pw554tVTsIsW49kkiZGTKJpGTWUbuk/mRF8fqVQaPwWKsod4oJzKqgpQYGx0gOFUhnAwQrysHI+ukslmEUgEAn7y2SSFQoFAKIbPe/EsN/GmhtzFYpGHH3+c//StP6N1bhu/+n9+Qv2SVpQJF1PRyqAr/ktq4v1mbMem61gXP//Jv/Po6idomjqVhx76AituupHqWCmQX1gOdsFGDZbE8ZXue3pBBBPdIiSKlkV7dzdrVv+W1Y89zFDO5k+/8sd8+qHPEXqTi/hK4RRthBBnAuINw2D/0YP87Bc/Zc1Ta/DoGnffew8f/djHaZ05k1gggEOpevS562fZNv3dRygID4okk8sM4/PHMApJJNOHEtBxCjayR8G20siqDwwZNBnHySLJGqrmxTQySJKM5HhAgOJVcABh2GALJJ+KsIo4VgFFDeEUbZSABo5NsZDEGygv9e10BFbawBfzEy0rIxo5myUrHDHhDi3RM3yKXbv288iPf8a2PbuprazgM1/6LHfecSe18RpUddLdA7q4vC+kgS2bXuP7//O7bN28mcVLlnDvHfdw4803UNNQi9fj/b25QXEch3whT9/JPp5/7gV++ttfkErnufOWVXz5cw8xb968tzxH2AJJmfzC9MPApBNpACO9I/zrv/0rqx/9JdPmz+VLn/kK19xwLcHIxTdgp2gjHIHsmyhgK8TZivznbPSI0snnSCVzrXAspHPaJjlOqa7T6VZKluOUNmUEDqW4HVkuxRMI4WALgSzJF3T5ldpDcVERZdo2mWKRqMeHPWGtMgyDl195hf/wrW9hJJP85Ps/5ubbVqH6z1qy3izqLhfLtOg61c2vV/+GZx59EmEaLL/hDu6940Fm3DCNiNdXqpYtORe08v0uyWRT7N2yiyd+tppndzzPlIoaPn/vN/noF245U/wVSvXbDDOLR3t/RZtdsEvxdhOlJs4Vq4ZpcGqgl/Ub1vPUE6vZuXMn06qqWHb7rdx0201Mn9ZGY/ytWaeOY505z0rnoVLqtypkJFk+Uy9NCBtJkidKspX+jyRNPDbRC0BI589LlAKGJbnkXkU4SJJy9jpAIBz7vHP/Yl+wPb0dnNg0yG82P87rGzegpMZYtvJW7rznPpYsWkh5NIpykS4YLi4fVoq5UZ5ft5V//t//m/Zjx7jjox/jC59/kJmtswmFwsjKBUrUFDNIsnKeFf7Dhm3bjI0n2L5nN08/+iRvbH6NaxbO5tPf+L+4fu61KEGVYm4cM1COG532/jEpe3f6Aj6qm5sYTyZYt2Urx04eJxj0U1tTi+8dCuzZjoEj2Siadk6mzDkXjHROTJQ00QR74v9vFjmSJJ/3mCxJKHJp05TliabSp4eSpDOZoBfi3Iwdx7BxjAs3WZclCU0pVc53ZOgZGebhRx/l//0f/4NiOs3f/d3fcedH78QT8L5l/PeCrMiEw2FaprYSr2/g5OBJ1u14ngNHd5IfS+OLhPEEg/h0HUlS3pMgfDfkTZORgREO7NzLzx9/jB/86F842L2fa6++jm9+9ZusvGsF4bLzMyUlpFJF7fd5rpIsYSoStiyhStJ5n6eiKIRDYVpbprJg3nzKYzGGhobY+MIL7NiwjeNdCcZTo/iFjuPXUawMqn6+BbT0e+m8PX2OSdLpf+UJUXb2/9KZ8/et2WETf3jTMfL51wHSW8/9N1lJRzIZZDPNukNHefXnT/DLxx/jp08+wkDHQWbMnc+nP/4NHnjwAebPn0U4GEKZsCDYeatUVBoTgYMsucLN5cOJmTJQdAUkeO6lV/nuP/wjI0NDfPmhL/OlL36RmdNnEggEkN7GeibJCtKbktHeKwIYSafRi6Do6hWP/ZRlGb/PR0NdHS2tLYym0mzatJX+/kGmtbVRXVONrGhosjL5+k1+iJmUIk2SJSLhEK3RBkzHZM/ePezcsYNisoA37CMUCaFrJUuSZWQpODaOoqGe3pjPuVAc08Ex7MsqhHtFkSQkpbQBO5aBZeZQVM/EnyQkSZDNJjm8+wi/eOTn/OgH/0pMdfiTP/tzHnjgAULh8+9RDCuLLL33i1+WZQL+AI019cxqnkF5IEZH+wm2bNvBpi2b6OhpRxMCNa9gBzz4LhAX+H6TyCbpPNnFrl17WP3sMzz6q8d4Ye1aRkeHuW7lcv7DN77B1VddRSByYcvelRCTJUEuoTDxnXjO5wkgSzIe3UNFRQUzpk2nvqqerXt2smv/frr6uzlwbANb3thBe/sxcqM5NHSSIoMtlAkR/MG6CASl9PxErsjIkW4Odx3n5fXrefTXj/LUY0+ybsfzDA6OM2fxQj5x533c94m7WXrdUqrrKvHo2vkZ0bKEpEgTwdKTJWDaxeXykZXSubx3716+/8/f59iRI3zpS1/iwQcfpKmxEU3VeCeVdCXOf+E4vL5uDd2DvTQ3/W7iPyVJQlNVYuUxpkxpJp3P8+pvN5GWxplZP52yqgpXoL3PTNqgEU1RmDKvjYeqP0+sPs6zq5/hp7/6JbuO7OOWO25m4eIFNNc1E/L68HC69ICMY9gUHRtHtdBtE0ULnNeA3HEsbCP3tjW3Lgc7ZyHrMpIqYxUzyIqOrJ4Vj5KkoGglq5dj2CBA9pydi6SoKKfrntkO2bEsJzo7WL9rE8//9mk6e3u4atY8PnPPH3P9PUuIRN5aRV9VPO/bxa/IMtFomIVXLaKpqYmrFl3DyxteZdPmzbz89CtseWYnsxdNZf7SxbRMqSNWVkVZdTm1vvh7TiSwCxY5yyQ5liA1PsapkQEOHDrAgT176e4+SdE2iHj9LGiYSk9mmHhVLS2t0/EGfvfug3O/hN5sdRKWU+p96lNRvRrdw/0kBm1uuuVmVqy8iZ7BHg7vOsj6119nyxubiEQiVLXVsCDWSs386QSiPhpDdXgqfVQFKvEGfVc0tsMp2mT7xhn2pEkOJsgX8rR3dZI9McDOYwc4MXYQ1SqjUMhTE6/m6uvu5/qGpUy9eg7xykoCYT+qpl2wMvnZebvizOXDjaTKjGWzrHnxRQ5s2sTt993HvffdR11dHYry7izEBmBZBXTHRtUDZ747FN9bt2XhCOycdSYuGErhOpvf2EpTdTPienHhauZvg2UXSvvTRWqPvh26pjG9tYVP3nsXPe2nePGl11g8fxnhpqq3lOhweW9Mypi0c3GEzfDIKDs2bOeV9a9y4NABDLPI1NapLLvmOq6aOZ/ahnrClWX4dB3hCBwBQnKQhYOsnH8SCuEgHOuSynpcDGE5pY1IknBsE0mWkSZcOsKxAOmMQBROqev6mzdcw7IYHhuj+8QJ9u49wBvr1nGg4xgV5SFuXL6cW1bdybxpCwjGfrfZlMIRFAtFBof6OH7sEHv3H2f7joOMDA2hi1ESjkJrYzONzY1Ma56GpyxMvLqMcn8ZISWAUqFTUQhgxDwIRcInGRSFioNMvpDGGMuD4TCUH2U8nSIxOMbY+Bi9A710d3Yy0D9IsVgkHApRXVfHghlzmT1jDu3Dp3jhN48RL4/yrf/8HaZPm/Y7XZeLIZxS8H2hUGTj+g38r+/9I4nBJH/+X77FjStWkMlmGRkY5Niug+zqPsqpzk7yRh5jPMuQkUdRZeY0T6OytpLaeC3RsghlgTICVSGCvgBl3ii6oiGFVSL4kH1ebJ+CRyjokkURe6KZi8BAxTSLFFNpSFulDFOrwFB2EDNfZHQ8SyGZJjE0Sm9ikFPdPYyNjZHJ5ghrHtSgj1hVmBnhq5g6o5IZS+cRi5cTD8TQQ77fffKIi8sHyI7du/mLb3+bTD7BP/7l37Pk1uvQfe8ug3FoaIgTPV2MpxNYeZNYRQXTp00l7IswnBij4/hxhhNj1DXUMLNtDh5g547d9I4NURmPIskyTY2N/OCf/pVwTmLuHTcQjPqZPWs+lZEosiSxbe8OsqlxCgWBLaCpvIapbS0Mj41w4sgxLEUwffoU6msaUNTLb9smhCCdHueZtWv473/7/7F44SL+5s//iubZrYzncq5Ye5+YtJa008iSQlVlnBWrVjBtRiM7d+9h67adHD16lIeP/4J1Da8yb8o82hbNoHnBFBoicSL+EKru50K3FiUXmIadsybKObx7zi31cFoM2gW75OLR1FISg2Qj68qZDe10gVgzW2Co6xQHjx5m54HdHNi/n65TnXhCMnesuoc7ltxA29JZlFdU4blCrkXHKDU0v1BDdUmW8Pq9NDY1U11dxZz5V3Pjqn4OHzvKYOcJ9h7rQBvLsG33dl59+VW8gQAVlTF8mpdIeRTZr+CzNLyBIHlRJKhoCFRydoGiVSjVtUvkSecypDIpUokUml1E8UYIRGPMmD2d5rpmZrS00DStmarKeoLBAJ7jAda/VsHxkz309PZOOpEmyRJ5q8jOw7v48aM/pXegjy9/8bOsXLmSWCxGZUUFzQ2NTJ86jWWZJOlEgvZTJ0ifTLCj/RCjQ4OYjsmBowc5sG0TA45MRPEQD2tovjC65scf9qMGdXRUZFVB83jxSToyDrZUuucyHZOcbeI4NrZhgCEwDYtsKkO6kCGTTpPO5MG28Qf86D4PdXINoWnlNNfWEiuPUVkfZ+aUGUS0GOEyH6HyiCvMXP5gOb73MAcOHOCPvvR5ZiyejeZ59zfOJ06c4Nnnn8UnhYgEYhyVj6AYDjNmz2T/nj3s3LkTSVYZPNSOV/bSUFvLC2tfYN/BA1TWlVMTjDFn2TI0TWN/Tx/hw50krWGMkxLXfmQ+oVCYV9a+TN+pHpqmtmEZJkZzBsMx6Dh1klM9vRhmgfHUKMsWqjTUNV5wH3gnJEnCHwixaM5MFs2fz7GjR2gf6GDKnGn49d+tUeH3mUkr0vKAh7OupUA4QGtgOvHqOhbMn8fhfUfYtncfh7sOs2b9Gjbs2kC8qYrm2gamtbYxpamV6ngcPeoj6A8T9Jy945Hks9l57zeyKp0un4+klmrHFEyTVC5NOpmgt6efI+3tnDx+gp6OLk719ZLJZwAYGxiiXqpg4aJFLF95I2r4ytaZkZTzY/dwxBl3rDXx45VkPN4A1d4AlZUVtE5tJpfOcdv4OCP9Q3SP95A4MUpfbpDUeBa7O8dwrpehYgLSAmTIGXkUZCQkNLnkGvOEPPj9AQI+Pw2VdXhnzqM2VkZtTQPV9ZVUV8WIRasIBwJ4A15kRUMIh5pYOTUVlRzbu4/hwcEruj7vluHBIZ5Z/Qw7d+7gjjvu5I6P3k0sFjvzd0mWCFeUEa4oFbmdMq0FkbO5Pr2SfDZDunOELmvg/2fvvaPsKs97/8/77nL26WV6r5JGoy4hCSGqwRTTDBjT3bAN13ac3OQmv2Tlrnuz7lrXJXGJE5dgmyS2b7DBYCQMmA4SCJCQNOq9jdpIo+kzp++9398f50xTASEEjOB81gJJc8rsfc7e7/t9n/d5ni/p/TaH0p0MpXpRPYP0xxMMJhP0HO7FcW1STgYnaeOmHRzljD8IKdDy+XGmPzdgalLH7wsQjZZQXVKFFfMRDUQoLy2i1FNCqLycaGWEaCiEYRgYXpOw/53TAmwnhZRGoTCgwEeWTLKPI/09pF1FfVM9VizwnhYsmf4hUj1DNM1tYWrTZN5c9Sp7tm2nrKKM7Zu3UB4tpXV2K2tfX8HqlSupuu560kd6KCouIXWsl7QeYteW7QBE60u46LKFbNyyiZVvvsj8K6YihCA1lCSoh7jgvIX4LIHmDbBtxy42rFlLSWkJ+oBgy6qtFMcqKa2owvtu9kvzaFKjpKiCxilTWLd+PbsOHeKTcNJepgXOjAkn0rKpQXSPD11oCHKly9KwkFJHaiaRaIxQKEBNVT2zFyxg675tbNuylf272uno6GDZ9n289OIyopEo5RXl1NRV0VBaR7i2jKJomIgnSMgbxFsWwSslhvbuw7ynIp7JMJQYINufJJVM0T3UT9exY3R0dLD/4H46Dh3i6NFjDAwMYAhBSXEx5y1eQHNTPV5fmFUrVvDyiy/y2B8eo760nHmL52BoXkCRtVMY+tnNvxq79Tq2WhVA2C7CVmCN3ria1IgEI0SCESoqKkg2NzMnm8SNO/Sm+4kPJuk52EdCDeHYA6gOl66whq83jWa79BaliMb94LWQAYOIz8BvBggEwlixEH7LR8Dvw+PR0DXthK1qISQ+y09RLAa25Ni+HmwnhX4Wv8P3SsfRo/zhD4/z6tMvMr3lPL78uTupq357P8+wPwR+iJTkRJtdk2KankbFDdLuEEk7QSaeZqhviKQdpy+RIJN1EINpbFfhprPEtQRSAWlAgGV4kZqOgYb0G8iMi4gYRHxevFaUQNCLGfDgNS28lgdLWTh+/R0LQpKA5iQxpGekMEMI7aQ5aQUKfFRQaUkGhyAK09Te89XuCAgXhWlqqaW2vpp12wJ0xQdIJBL0DvTRMqOVlpYW9u3dTXv7QRQgLJMpjc0c3L6DsuIK+uL9iN4EjS0NTGmdSjbusvqV18naaZRSWJZFU10jUyZPIhIJkHVhzdq36Og4CLpGxs3topiawRmfkRKIrI4XA5RCDNrv8ZMpcDwTTqRJLddRfniqEJp+wgQgNZNAxCQQCVNeXc68GXPp7e7hyN5D7N6xi23tu+jqPMahjk527zrAMvsV4poiEgpQGSuhsrKCYCyG3zIoL6vC8PrwCx0rYoBuEvaOjx74pJekm0LlHQ1s2yZhJ0kmMyQTKdKZDPQNcbS3h97kAP3HejjYcYTerk6y6TQZ10UXAr/fTyQWYcb0abTUT2JS6xRKKssoLoqB0JnZMpWQL8wTLz/Ft7/7He77s/u48JJPEPJayDHFD1k7OSLYsk4SXbPe8ySZE2yj7yGlwHibhZUQAp/HkzP6DkCMnN1RYlIGABMbNQRxn4Y36SJdRTyQxUppKMNA6QIdB01pSN047eR40zKJVZVgRHy0H9hL1+Fuymuqzvi8zxTHzQKMS7wdGBjgtVdf5bFHH0UzDG677RZap01HSh0naZ80Ifhk6BGLMBYEAEZNjd2sixIOWZXLu9RSDkoTCEeR0bMIVyDsXGm+ruWcAoSrcDWBtBXKm7uvhDDPuNpZA6TQR6LFx38GBQp8FDG8fnw+H+lMhp6uflzXfcfXuOlc6svJHFAcCcrU0XVjxJrJdhykroNp0tc3wNChPnoG4liWhRKQyQ8f0mOiTB2VhGNaBtXVhZNJcKS3C180TEY3UHmvaNfMFRRougcNCAZCFFdVUVNfTSQQBiTlpaUYhn7CmOY6GZTroBlelO2iHDWu8A3AVYq+ZJzOziNIIQhHCi4DZ5sJJ9KOb/b3TgmNPo8XX6mX8tIyJtc1M2fuHLoGeunr7eFw91Ha93bQ13mUQ73H6OvspWtvF+2HD5AYiJPOZNA8HgyPRdSwMAMauuXFb+YmRsuyMJwUuhGiPzmET3NIOIKs7ZB2MiQSKVKpNEOpFM5gAtex8Ub8BAMBhGYSLo5SEo0SDZVQUVFBTUMtJWXFxKIxikIxgsf19pra2srn7rkb0yN5aMnv+efv/TNuX5qrbv3UuIjf+L5a731VdzKEFGcUzh/NRTAhBhGA/KFHILeH/R4wLS/VFTWUhyIc7Gynu7v3QxFpue9AkbFtHKXAtVmzYS2PPfwwqXic277yFS677MLc9fvAnLIAACAASURBVKvOTvftnLCSo5sSY9I+PHwwVa5m7kA+kN9VoMBEQXo0asrLKSuJsGXlRg5++jCTvM3omoaTspGmhqMyaFJHZfL5ylKMW8yMRdd1TMNgeIjVNQ2fZREritLcUM+u1Rs5vGs/x0SSK2csRAiBZVloUsOXAekzEf1gBLzs37uXJUv+yO79h5k0dSoBK4DIF63pxwU5ZtZNo+fYAMnEIP3xXMGCaeUWyUIdb7QsEfkcV4QYyT1SjspVoVoatm1z+MAh1m5so6iqhNqWxrP8yReYcCLtvaD5DCK+IiLlRbjKoTWTJDGUwk5kGcok6O3qpedwJ4fjPfQP9NPf202ia4gBJ0nWTpFO2OgZRVeyH2HbuK6L7qRxNA+9KkO5aZJ1BNJj4RUGsZAfq7QEU/ejBww8MQ/lZpTionIiJWGKi2OEQ1F8hhev348vFMDzNlY5hmnQOLmJe+78HJ7iCA/94j/50Y9+SL+Kc8NNtxLMW0rpWk7pDKZSBDwenJSD5tFOOSB8lLAMk6qyKoqKS9m0axtH+7uZ9iEcx3D+lRAO2C7797az9PElbNm6lWuvv5abbriG0tJS8k9610m5BQoUmFjMmz2bxZ+4nJeff40XX1lG1W2VhALBcc2ic+HrnLAZG61OZbNIITDz439tQwOuLimvqMTn9TBzZiuOMIhFoyxceD6GZpGwB5hRXc3cKfMw/CZXXXEJwhcmVddEtDJMV/8kvNjsOnQILA/NUxpZMGc+IctCAIsuu5TSaADfGCvChoY6MiTZtX0nQ3aaaFUZvryVnhR51xPbRSmQhg5Sx1W5Ajgt35s01wgeHNflaHc3K5Yvo6Ojg+tuvYmpUz6M0fijzUdKpI1FCg2fJ4DPEyC/E4dqdMk6GdJ2rhVHOhmHIZtBJ8lQOkEmmYWUzaCTRtg2qVRq5P2SOoQ0E01INNPEEgYen47l9eI3AxgBDwQEvpSRS6L2gKnr77rVh24a1E1p4p6ie/BIk9/8/Od8759+yEAmzb1X345ZNmpzNLZr/EcdZbsoV6GbGuFIEG9JiN51Qxzp6vpAj+N4uzBD0zh2pJOlf3yK5S8vp3XWLG6+/XbqS/O+p65CZd0TtgkKFChwblFTU8OVV36aN9raWPpfv2VqcxOLz1+M5cmJIJHWQBdIM++44WYRQiLFiQbrNdXVlJaXY2oahoQZM2agpImpG9TXNxCtKEe304QsC83woZTL4gsvJK10BOARNmmlYwmbGWPmqaJgbKSp7aJFi9BVFsMY3b7QwxYt01qoqawmI1x0nxef5eNk2ORSJ/LLUSDXWsp1MkjdQ29vJy++8jLP/ukJ6usbuPaaG4gFYyd9rwJnzkdWpJ0MISSmbmEOn7XXBzEoOZu/5CzksEshKC8u5s477qTY7+dnv/wl//K972N0Zvj0l26muKgMEAQ8HmwnjWaZfByE2jBe00N1STmWx8PhvfvJ9iQxYh9cU1vXdkHkrKAGBgZY9spLPPH4o0SLotxx9+1MnzptdNUJTOxOhAUKFDhdLjz/fO68/XZ+/dMH+MW//guOrbhw0QX4fKNCx3Gz2EIiGJ1gh3dQ4qkE7e376Ozo/OAP/hT4A15KykspLSnD5/Eh9NyxD2fdCVeCw0h6he269PR38/KLL/CrB/8DW9ncdeNnWDBv3od0Bh9tPjYiTSkXVzlIJK6TOStGt27GyV3Q70PvKCkEpUUxbrnjDpRl8eN//me+88AP6NMGuPszn6espjy/Ovt4KIDhgQPA8vqoqK7G7/Owb/cu+gb7KPmARJqUOojc8JXMpFi5eiW/+93vyKTTfP7LX+KSiy7Gm8/LU66Tu9asc9dUuUCBAqOU1ZRx2y230Xuslycefpgf/uCHDN47wMILFlBWXIahaeDmSsx0aUDWRcnRnNTunm6WLl3Ki8+9+OGeyBgqKsu49ppruOLyK/GVjorNYXHguA6uayPRyGZc9u87wssrlvH47x+hb6CHL979BW647vp8myuFnUmgm4VGtmeLj49IQ6GUC0Lm/nyXuGknF8YeE7ZW7kj6Qe45WXfEr/A9Hatyce00muHF4/FwzbXX4vN4+Kcf/ICf/PSXZAey3P75u6mrqxtpP5EBxrrHvZ8C8sPGtHRKq2KEImH2Hj5AV7afEirGPEPhuFk0+f40VJSGJOs4bN2ynd89/DCbd+7kM7feynWfui5fMTV6HGdyrRUoUGDi4KQctDGtiBoaGrj//vvxqBCP/um3/Mu//Iirtl/FJ668nEmTphAJhLDyxV2uyjnNKDufp4ZGMBiirKQElR3zSzQQGqhM/t8ShAEq31JHeECN7moiLXDz/5ZecJOjjwkr/zqVf12WkbCYMEE55CJjeYLBMF5fCNMY3QZSjkK5CmlIhC5wga7+PrZt2sTTS55kxarXsLIevvTVe7ntqs9QWlOWf2FucVrg7PGxEWlSaMi8x9qZqHzlKJQan5s/9sYFwFXDrttnfqAASuG6dr7dgaA4FOLGG27A8Pn4wY9+xE9//QBD2RT33nsvdXV1aJpGJptC182Ryk/lqnEC8qOExzCpKq6gKFrCpk0b6enshOaWkccVOTuxM80Cc9xsPo9E4rp23vh+/Lsd7OhgyZInWP3mW1x8wWJuv+WzVFRUjHuOkDq6+bG5xQoU+EiiHJfj3WsaGhr4+v1/TmVljN8/9Qcef2QJm7Zv5eJLLuOC+QuoqCwjHApj5qPqbsYBISguKeH2O27npmtvyAmpPMIAoY+KLaHnBJWbyP1qaYEbH34yaAFwBnP/1ILgDDGyqSID+de5IP15MZfXTdILymacQBQ+iS8WwesdnRdzNoaKdDZD70AvBw4e4q01a1m27GX2bN9BbWMDN195B1fedBEl4eIxbybOii92gVEKM8hpcjoWUmcrOVxIDcMTHPczXde57sor8Xm9fPcH/8hDDz2Eo6X5/I1fZdLMJjxuFqGMEX0oTLCFQkPw/ngrfHhIzcAbjBCKhrDTKY4cOYRjpxGaSca2sQwj3wT4zMhFMnPuES4uEgm2CyIXJR0YGGD5K6/w/LPPUlVdxV133cnMqa1n8QwLFCgwUdD9J285U9YY4Iu3303T9Baeeeop1rzZxm+2/zvrV71F69xpzJk1l8bKBoLhEF6fha5JLCRWpAgiRe/9wMrf+1ucDNtxGErGGejp5cChg6zZvJa21W3s2rYLj+Xlhquu55M3Xse01taRjgMF3j8KIu0cQkrJFZdcgtdv8I/f/kceeuRXZA7ofO6bd9E6vQUhNdysmxMXyiYrjI+cQBvG7/VSX1XNKo+XPbsPkEzF8foM0nmR9l7QNQ9O1s5FRvV8fpnjgIR0KsUbK95gyWOPIVyXG2/6NHMXzitUbxYo8DHEUx7kk+WXMWNSC23L3+KPrzzN9vXb2bxxHSsaX2fW5FlMnjKZ+kkNVJWUEwwFMbwmuiZP20ZNkau0fL+6E2YdB9t1SSeT9PX2crizkz27drFr2xb27N7NoSOdaJrOwnkLuPKTVzBv+myKat8nhVjgBAoi7Rxk8XkX8Nd/99f87J/9vPDm4/R6ernvy1+hdepUvJi5bTbNQrNdkAo+gnlpAcNPc3EDXq+XHbt2MZhVBKQk7PWCylVgnmlXfQDNyt0aWSeLJiSmR8vnoW3jt//vIXZs38Ftn72N6z91HdFABMhvEbjqpB3GCxQo8NGlvK6CK+68ksmLW9m2YisrV77Eyp2beXz3EiIve6mpb6C1eSp1TfWU1JVTXl5MJBDDq1toHh3d8KBp2kknZAVkOTsizVUOtuOSsbO4aZtkMs7R3h6OdndzZH87O7ftYNvOXXR2dKCMLNFYiEXzz2fxRZcwb8bM0dyzAh8YBZF2DuFmR4XHhectJvK3Yf7tB9/mieeeI5VKc88997Bo/nzCMpgroR5+/kdApDmui6tUrnoK8Hg8VFRUEPD72bt9B4n+PojmthCUUrlCjzMUaQ6A7eassZwMQuooFIePHmHJs0+xZsNaFp+/iFtuuonKysrRF7r5TtwFkVagwMcKV9nomoemxmaaGps579L5fHLfHlaueoMN69ax/+BBduzcidIUpWWl1E2up7q8ispIBeGyKCVFlfijYYK6jmFoeHQTXTMQpkAIia4buEKdsu9mFpCuje3mChWyTgaUQqVdsq5Nxs6QzdrEk4P09g3Q1ddN/+FuOg4f5HBnB/sPHqa/4yg4Ck8wxORJU5h7/jzmz5pDfVENkfLi8bZ2SqGcwoL0g6Ag0s4VFLgpGzmm/9b06dO5/y//DqX/hOVvvsaDyQFU8n4WLJpHLBo5ba/Ic4HhkPywSMNnYNUVE41GaT/SSX9HP9TnHhJSoAfOfN2ZAWTWxdDlSJFJT88Rnn/+GZ595hnqGuq4/XO3MWXG5HGvE7osCLQCBT6G5KrJRwuMymrKKaspZ+GUmRy6uoOth/aydetWdm3bzkBnB1tXrObN1Jv4Al6ivgBloWJkSQSv36IoGqLEX0woEMJT4kXXdCL+CAGPQPNHsLKQNMErRsf3IUCk+omnFU7Wpn+oh4yTIduZom+wj65EDwMDCfr6Bkh0dtGb6KO7tw8naROKhigvLmXS7Itpbmqmdfokaic1Ei0vwu85zsdP5ao+QeCkHfTCePe+c07O4spReWsKkb9gOHWrCaVyrTI0kS8PHuOjqHKVO8OrAdfJIrWzs/M/9riGS5KFPDEHQSkXlIuQ7/BVCNCDJ66ipk+fzt//97/B/9sgjz/xKP/5gwcYuv82LvnExZTEStDyv9N2XaQQyHx5qpM3CNbkxL/JlKvwaDqWMfod60DE6yVWVcHGbVvZvG87cxbMRmij5+Mq5x3zPrKOgy7luI7gXoAxAjeTSvPGW2v53e8fBUdx8y23MGfeeehydABT+RXs2fDoLFCgwLnFqQqVzNIADaWTaJg2iUsuuYSeo930dB6j/ehB2ve30915hMOHj3Dw8FG69m4nnkzit7x4PR4Mw8Dr86KUi1foyKCPQelQ3g+Ho4IK1ySTH8c9Hg/xeBwpJXY8TlI5JJwUKu0yNDCEUAIlFZbHojxcRm11PefNL6OurIaiyhIqa0qpq64mHC5Cf5vWRcpRuBkHzWecsqCiwNnlnBRpbsbJGcKaWu7vQuDmJ3BNynECybVztjyaT0c5bk795y8upRROykYPmCjlkk0N4PGPVt0ox0Xh4OTT7zVcHASakrmO8/LUfpnDxyU8Go6da1ozrvWHyrX0UK6NY6cwPKHxAnLkGN7ZnLtyagN/9mffxO8J8Ps/LOH//frXZFSaKy6+nLKSMqSukcxkMDQNj5br9ZbKZhFCjDFEn7go20U56oTIoNfrobmmgs2mYOeWraSHMljhXLWRQpF1knj0wMnecoShVIqg14ue/x5zvfTEiCmxch22bdzOI//5OzrbD/GFu7/IjVfdQDQYHX+MjkLZ7kcqelmgQIGzh9/jwV9bSU1tJbOYhZNN0j/UR09vgmT3EN2JbnoHejnWNUC8v5fevkH6u7rozvaT6ImjBgZJ9A2yB1DdipX797Jh714C4SBzZs3G47UImj6EqREuiVKnB4mWFBMMhygLFROqjBCLRImYYcxqL2VFpYS04Dse91gKuwUfPOfUjOK4LkKIcRPhcIJ3PJ1rOuP3eMZN6tKQkM9NErpE1yVKKWzXwXEclHBJDQ1huzauI4knu8k6OX/GdG8SRxtk0DVxXZegZpPAwO960PUURiCEpnvQpERTOpou0HQNqUmkrqGP9GU70RvNtXP5S9JnYugmyh4vICEXnXES2ZNG0I6npqSaL331SxSHYjz0Hw/y8x/9DPtogmtuupbSqoqRUmk7PYSQGn7PudMFf9icXJHr3TPcCy5o+mkobqDfkWzZtpUhJ42V9+USiHcUaABR//ieebaTQtNMhNBxXJfuzkM8/PjjbFi3gU9ccSlXf/paispPLJ8fe50VKFCgwDuhGV5iUS+xKNA4+nPXyTCYHKQ/bRDqTdLlyzdIcxROZ67breM6vNS2gr/9H/+DmefN5H/+9f+kvrURo9vGLTIIWAF8/ZJMzMQxJFGfbzRVpMA5xTkl0obSaTy6ftIWCz7PqJAZntRzKBzHIZPOknGy2FmbVDrNkd5uers7SR9J0JXqoXPgGPH+NKI/TWeiB11KBgcHUXnjRSeeQPNakN8e9Pl8YFnohkHA5yOaKSJY4qG4NEI4FiBQGqO0qJyQz4du6JiGiaEbaIae23Y0JI4hSQE+QOgC7bibSEhxWgJtmJqSar50/V2kLY0H/+0Bfv7b/yTrtfnUp66norwqVz3kGSNchk0lTxENnGi4ro2r7JGtBd1vEW6uIhALEO8dQHUOQmy0479y1Wk5LijXQUgJCAx9VFB39vXx0G8fY+kTjzBl+lTu+vznaJ0y5ayfV4ECBQoMIzWTcKCIcAAoChEZ+2BN/k+lqJ0U46Xlz7Hu9TYyA2mqSmrw1XhGW6mfVVPqAh8W55RIC3tzk7OrFALG5RE5Tm6FoUkTx3VxHJtMJkMqGefY0aPs3LqXHZ17OdTeQdfhw3R3d3Ps2DHiQ3G6E3HcRBwpNYQQWKEIpeFQbstLA4QgGAgQTyRQWQclIZPKMJhKkxgawMlmcV0XvA5hb5TicAlW2CIWjVEaK6WirpLJDZOpr26kvL6SWCiEoRtYponP0PPn5GA7aUz9vXmeeeujfOOu26ktLeM73/ou3/vuD+k80sOdd9014k4w8pmlc7lyw9HIiUvOC0+TBtqYQnRT06mMFFFXVsvuA3tY0b+OT1Ode4WrsAczGGHPKd5zVMRlU/3onuC4fMRsNssbK1bw9KOPEokGuP62G2humfS+nWGBAgUKALlcafUOC0wh8IXK+foXvsbX3voa3/637xCd28KChiaMcyDPuMDpM9Fn55MymEphatqIkTUoJDq27dAT76Wj+yj7D+xh/dr1rF/Zxp49e+jp62MgkUCl0/gsL3WNDcydNZvmSAXWlCqqy8KEA6V4PB6i+mg0Rqv0jLtZtKNpnKiB02ejMi6DTpxkJslgvIeOrl4Gd/RzqPMA+49sYceG9Szv6gddx+/3E/b7qaisZPLUqbQ2t3DxeQuontqEx8wlieraiduiubNTIzlSp4Ppi/KZG29G00x+9t3v8tvf/AZXKe666y7q6+vRNA0FSEt/rwZWHwi2m0UpJxdBG7a6ErleaJqrU1xZyY5tOxja0AsL8w9L8bYCDcAeyqL7DUxfbDSqSG5bva2tjV/9/OccOHaMP/+bv+DGq28Y6YdWoECBAmeNMWMa5MY1N+28bYW6Itfc/KJ5i7npxpv43c//jTVPP86Mz92HHgqNC2AUOLeZ+CItV+07juGImlIKx3VIpeN07j3E+g1bebVtJStXrGD3vnYyrovf66WhuoqLLriQhXMXMmXKJJqK60iWedClpDj47hIn84Gat6U/mSSZyUA2S9eRI+zcu5cdO3awsa2NdRs3snrjJmw3ic+rMWfaQq6++loumD2fipY6yiIRNE1DDntwKpe0PYRlhE75eZz0Z8BN112HPxDg/37n2/z8wQc5NtDFfV++j9ZJU0lrEgGcC6YeY6uNnKyDyrrofgNpSGLlUaZNaub5J59k9eY13K3uGfksVP7/pxK4Rmj0fe2hbC7XURPs69jHg7/6d3asW8dNd93KNVdeUxBoBQoUeF9wMw6u7Y7kI0tDvm2PRwUMAGHAjFrcc/NdPPPcMzz4y/+itWY2F199CablGX1yQa+d00xgkZa7urJDGTRLP+GidV2Xw10drN+6kbdefo0/Pf0cu3fsIGx5qWhu4s5bPstF8xczb8F51E6pO+Hdwyf85OwR9npHhGR5cTHTp08HwM7E6T18lLZ1O3hx9WtsXb+eXft28rf/65uEzSKuveE6rrzxKmbPmEVzVRNSSoSQWEZo5F7L9KUwo9bYj4jsQBo9YJ60CvTKSy/FFzD53nf+iSW/+wN0GHzl61+gZUEzpn5i8cBEvqczQNbU8I/JOTQsk9LqIsKmQ1+qn0x/CjNi4QIDKKzMAJb5zt/2cO7fsYEBljyylBeffYEFl1/OPZ//Co21De/TGRUoUODjjvRo78pWTjB+/pp2/gxuvedzfP8H3+eJl59izkXzKMqLtOxgBt2nF5rOnsNo//AP//APH/ZBnIx0vJu4ZmBaJpomyNhxQJAUGplkH+ue28ivf/kQP37gJyx7dQXFsRjX3nQTX73vG/z5/X/GrXfdytRZrYSLJ04ERGom/kiUppZmPvmJT3Drp27m8nmXUt5Qj0ylee7FF1n6uyXs3bSPpO4SiPkoCsVQQD+5qNfYytZMXxrp0dC8+tvmL9RW1jBz+kyGOg+y5MUl7Os9RkV1HUVFRWhOCsdOo+ke4uk0iUzmPXtfvl9owPFlFApBV1+G5Su24SQGmT/rPIorS/JRQoGunTpW2E/OamXs8PXS0mf4/ve/R7Qoyte++U3mzZ2LSLkoF2RhoCtQoMAEZG6wgdfb3mDVW6toaGigoaEBwzDQPNppFU8VmLhMWJGmm14sqY1MoJo06U+k2LJhA//6sx/zrZ/9E2vWr2L2jBnc95Wv8Gf3f4Nbb7yZ1plTCcXOjT15aekU15ZxwaJFXH7VVUybNg1/wM8rr73C0scfZ8+efQS6Y9ROCRDw5AoKkpk+jLzw0Lz6aZ9ncXExtU2T6e8f5IUXX6Sz/TDVFdWUVFfjtXLvbZ6icnYiI10bu/sYe17fxq7+PbRcPYOWysnv/EJyolcC6ewgUuqsW7eev//W/2FgsJ+/vPfrXHXFFQRDAaSpjQg0J2mj3qMvaIECBQq8NxTJzMDIXJAo9eOgeOaFF5BK0TJnDtFwGE1K0vYQUsiR1kUFzi0mnEjL9qeRRk7924OZXNNaKThw7BBPPfEEP/r+D1n5+pvMaJ3MN7783/jaV7/GhZdcREl5KYbHQEhxTgi0YYQQSCnx+Xy0tLRw8WWXMP/ihUhb8OILL7DkzYfZ097FtOI6YtWlGJqH4Q3JVHYATRqndb5CCIqLi5nW1IqDzfNvPsPWXVupssqpiZahB8Yn2aeyWQZTqTHFGRMTITUyQrDh4A42rltPa9NMzps957ReO3yt6bpJe+cBfvi9H/D6ylV85s5b+Oydt1NWUX7CZyv1t88XKVCgQIH3HzFuLvAIQXl1NX1797H0ueeoKg/T2jINy/KiS2PErqrAuceEE2maR2NICnRANyVCk+zbupcfP/Bjfvmfv8LQDD539z3cd+/nueCixcRKS9H1fEQpP586bgbHzaDJcycqNCzWLNNDbWUNF15wIbOaZ9J+4ADPPPU0ewcOUlVWRW1t7chr4pqJKeRp55AJIQjHIjRU1pNN27y2ciU79+7CXxyguKIEvzXa/kPTNCzj9ATgh43jOLTvb+fZl15iWlMzF1988Wm9bngroHsozq9/8gDPPfoYF11xBV+772tMaszlBAI4CRtchS0yKOUg38nCq0CBAgXeB5RySce78u41o2OzAAJeL9IweG35cgb6Bmmc1kxZSRn6WbI6LPDhMOFEGkKgEj3omoGQGps2beJnv36AZ5Y9zsyiqXzpy/dy3c3XUVfbhGX58k1Ic9hOGlfZ6JqJlDoCgeNmcZz0OSPYhBBoUsPr81LbVMfMBQsQus6SJX9k7cpVtLa2Ul1dnbOc6s+gm9q7ElJCCsLRME0VtYQwWL1uDes3byaEh8pYKb5IEMdO4WTiaMa5UPsJLi7dfUdYv/xFCAe46NIrTs/uKv+5/eGJJ/jZv/87keJivnnbV5gzZzaG1yTrJAHQDB2hSaTU8l6oE1+4FihQ4KOHEALNsE66dSmEoLQiytDOIzy94lVKrBitDS34Q/5CXto5zMQTaYCmmUipsW/rPh74zS94/rnnWTzjQj5//30svvRCiqNFaJp+Qqd8IbURcTbcdkEKiRQ6GcehZ2iIjOPgPUnelasUXYOD6NmBEY/NY4ODxNNpvKb5vkaUlO3iJO1xTglCCAzDoCQaY1bjVMJFHh774zPs3r6duZPnUFxRgu55+4KBUyGlJBQNU9FUg64J1q9Zx8rNG9GCFnWNNQS9IaT+/p7z2STr2Bw+doQN67aRHkpx+exFRMuLcw+qXPXrqRr2vvTGy/zoez9kqK+fr/33r3HpVZcTCAdzkU2h56Jp+ShtGoGDmMgl0QUKFPiIczKBls4OomkmHsNLwBvhzbXL2bF7F63zp1NZVYWhF0atc5UJKdKEkPTGEzz320d56A+PMWnyJO764pdYsHA+4VBwZBvqhNeNEWfjfioE8cFBdu/YQXJoiLLS0nHPUMplsPcIf3rxFbJpm6rqnPdG+6bd7GvfTVVV5QmWTWcTIQRClycVRZomCYaDTJnSipIajzz0EMlsirkXXkDQ5ztjISU1STAQpGxyJSFvmIPr9rFq05sMDg1RVV5FLDbqT5l1HAZSKbyGge269CUSEypXTSJhyGHjti3s2LmDmRfMYVJj3h1AMJLjmM4Oomsmw5Gwg5t28+Of/pR169Zx9113ccunb6GktGTk+sp9trnn2ukhhHIwNKMQRytwAq5SdA0N4ffkcjuPDQ7ie58XdwU+fihgCDi+TbcmdYTIzSFF5SVkELywbDnGUUH91ElEiyJoUuIksoAYadfkJHOpHIUWHROXCSnSAN7YtZJf/OKXBA0PX7zvPi684ALCwQDyDAc9TSg8HoEViuK3TLKpgZHtPKUUR3sHePW3SzEqQrROngpASkIgGiYWCp1SGJ4K20mjcJFjEjbdjJMzVT/+hhC87WAupMTr9dJcW8L+A0d46umnmDl/BlMaJ42Ix0yiF6kZCCGx49lcAcU7RNmklIS8Qapr6vDHQuzeuYO2dW2k7DTVFdXEYrHc84TA0HOeowIwNe1dfx7vJ1JIbOWyedtWtr7xBufNvYAZs2eOPD78Ocj8QAbQ3nmAX/ziFyx55hmuvuSTtRzQNAAAIABJREFU3PvlL+Vss+TJxbiQGlI7/WraAh8vhBCYuo6Wvy/G/r17aAhP/v4pUOC9IMg1Nz1+9B0bXdMNHU/QYsuOzWzctJ66hloaGxuwPJ5c2oYmGEynUUphGHquOK9wbU5YJqRIiwOv/uYFXlvxGrMXLeD6666joqzsjAa5eCrO+q2beP6FV2jfu49IKExZSSlC6tiOw67dW1n+7Ku0bdvM5s0bmTFrFtHyCh5bsoSNbWvwWRZVlaORtI7t7Tz36jJWrWvDGcwQiYTpSfTxwrJltL25lkObjrL3QDuanltdr1y3lpeWvUrnoaNEAiH8kcAZ3RBCCAKBEFLq/P6JJ7CExmUXLsDy5bbmhNSRUichBJom0TQJApLkbuxTSSopJD6vl7KqCoqixRzZd5A33niD/r5+SsvL8QaDWIaBFALl2mTTgxjmye2rPjQEOI7N/v37eXbZMpqam5l+3rwTon1jB7Innn6G3z3wAI2TmvnCf7ufGdOnYb5NdHB4lVqgwKnQxixcNClJJ3rQdA+GrqNpWiECW+CscDrL40gwhI3N620v0nOsl5rGOspKSjEMA4RAkxJd05DnWDeEjyMTcqO6u7uD1ZvfwoxYzJ86k5JQ5IxXoUJoGIZFemiILTt2oHv9TGttxVaKHft3sfzVN+jq7MERLp2ZPnSh4c1KvLrO6rY24oODzJ01C8MwONR1mGVtb7Jnz26UrtPTcRQzFsCvNFb+6Wl2HGwnHCwj5PNySe/FhMtLOdDZjmsn2LOvj2w8yfmLFlFSVXJG56LpHi5ZcDEtTc2sWb2WA93H8JnFeILWiDm4B5D5UHbWSaJLA028/desSUlpLMYnLl2MzxL86qFHeOaZZ0jZaW6/4w7Oa5mD5tMRQhvJ15toGJpOeaiEaCzKzkO7yNh27gEF9lBmxFEA4E8vvMCPf/xTVNjLbV+4g7mzZ2B53t7ns0CBt0MpRTbZm/OBzWN4AgghMQrdDwp8QNhDWTSfjmVaXLT4Mla/8iqvv76KNW2rmTppCl5PzmVGn0A7IQXengkZSXM6hvjNIw+RGkzxqZtupLG5Cf0MEx+llIT8AbxeLweOHMHQNObNnUsmlWH3pl2s37ieSy6/iGmhOjZvXU9D6yRmts6gvKyMvYcPM9Dfz+LFizFNk47dh3jqmae57OKFnFc/k227dqAZGv6In02bN5NB4oQ8ZO0sJbEiSqvL8Pt9WLrFvgPt7Duyn7qGWspKy87oXIQQeH1ennn2T7S1tbF1ZTu79+/gUFcnRlaSUAlsJfDoxoillMbpVX9KIbAsi4rKSiqqKuntPcq611ew58BhisrKiJUU4zFy/fmdxPgih4mAQtCfSrL2rVXEh+IsmHceFeXlIBQZN4lu5ETYvq17+eG//JCN69fzxS98gRuuv5GSaBFOZgghNYSQOEk7VytQqIgqcJoIkVsQijHtWcQpts4LFHjfEAKZ30UJeP2E9BAr33qL/fsP0FRSS0VFBdLN59xqIp+Wo8al5RSYWEzISNpQLIvwCLAEGS2DK9wzfi9NSgI+H0XFxfjCYchvW7quy1B8EOEo5k6aCVmXileqySobaUiKS4oJFcUY6OsdPa7EEEIpGhsnU15UgrHqZRJDQ2QGM4TDxZhGEEdXxBN9JFSCjq6jdO4/RM/RY2zbs5tAKJA3/T5zhCFJJpNktASdicO8/Fo3rzz/NP/hDVBSXcbiafOon9lKZXUljeFKIpXFaL63bz/iZhxQOQ+5YDDM+fMX4DUNHjF8vPDqCgbjP+ab936VCy6ci+EJTTiBBqBrGmWRGDVVVax74w36e3ryjwgMTy738MCxQ/zk1z+jbfkyrr3+em668WbKi8ty+XVjytqlIaEg0Aq8KwRCM+np6WHv3r3EvFHqWuonVO5mgY8+Yxttm7rO7NlzuPiSS3hk6eO88OYKJs2eRk1l1cj4NtwNocDEZUKKtJARYvKkKSx7dTn71xwi2ZrCV36iGTiAm3ZyFXzvIBw0CZYpYLhyD4EpDZA2Bw8eRLiC/d0dLNZPnW9lhQwyuHQcOAZp6BkYpLbKQMsIZNZBCRfDtPD1+cn0OWzp3kJAepg7byGO0Ok6dhTHtd/x/JWrcFMOmm/816OUon3bPo4cOcKU5vP533//dfpTGXZs3syene10d/fwm8d+j1oqCBZ7mVYzlZbWadRMaqSpqp6yqgrCsTCe46KSQpMwRj76vD7mzJ6H1/DhsyI88fzT/OhnP6E/fQ8LL7+SMuvk/dN643Gi/g9nO1RKQTgaonZSPX968kn2HTo08pgmDXoTCZ57+lkefuRhZk6dyle//GUa6utHcg1VRiJMARqFSqcCuHYG182im36yjkM6myWQv+4d1yWeThPy5sYkVyl6h4Y4sHs3Tz75JM8//zzBUIzbb7uFRbMXUt/SiKaffHwaSqXwGAbGcdXjiUwmF90+x2zaCkwsgsVhrrrhala2rWbZq68wa9Z0PnXNNYRCIQCk0HDTDkoWrO4mKhNyu9PEpGugi1eWv4ZMOUydO52ikqKRxFw37aAUI2XEQspTbk2lBuNsX72F5594nuUrl3Ps4BGsrCJcXULQH2T73t2sa2uj/cB+tuzdyqULL6FCj/HwHx/l+eeeY397O/pAmkBFlNKSUtoPdbB540Y2bNiIx6+zYMEcfKaPrZs34ZgSaVm4GYeioiiua9PT3Y3tOnR1dSEEzJ07l/Ky8pMeq3IUbtpBGhKFwmF8E17XdfnNr37Nkj8u5e4vfo7P33EnU1pamTZ9BgvOW8C02bOpK6siWBxC9Cp27dvDa2+u4LXXXmP9ujY279zCwe276OnpJq05KCnRNB1DHzXhVbaLyroYlklRUXFu1ZXJ8vq6N2nfvJ1ItIimUAV60IOrFAOp1MhEouCEyeYDQwhs12bP3j289trrNDU3sXjBbDTdwlWKF5cv5xff/UeyOvzl3/49Fy5ahOf4woJCEu3HmlQ2S9Zx8tewyhWL5LcshRAn5PHomoadtdmzZTePP7mUf/vlL3lp2TLChknHUBevL3+NA/sPkMLBG/IS9AdOiKwpctF+N5vI/Z4xW6Ra3oWkQIF3g5OwRyo2hSaIRiMMDsV5Y+VKtKEMTVMmEy3OzaeOm8ltd8qCEftEZUKKNKEJdJ+XPVu2sX3nZkIlxdRVl+H3+UYGMZdsLoKm5S4ux06hXPsEyx7HsRno66Wnq59QUYT6ihoC0RBlDXWUFZcQ9ARQpkupL0rz7BZaW2cR8pns3dVONBChsbaBWCBKSVMNZcWlFBeFUcLGZ/hYeP5cpkxtIRiKIIp0mppqmVxcT01DHc1T65nUUE3IH8L0WdRX1TCjZQb1k5sIBgJvf/66RGgC5SpUSiENieu6bNiwgf/9nW+B4/C/vv5X1E5qwmt5iYQilJWVUVNby/SpU5k9dzbnzZ7PpOmt1FRU4/P7GRzoY9uWzax6azVr169nbdta1m9cz8EDB0gMxnFTWZyMA2ZuVS80gaZrRKIRqmurwSNYt3otm7avJ+AJUFRfSsDy4yo1KsyyQ2j6h+dS4NoO3fuPsHbbekxbY8Gl5xP0hTmwo51v/+O32Lp5M1+//5vceNOnCRzXY65Qhl5AMez4IccJNHmcQBNCoFC0d+zn2edf4jcP/juv/OlJko7Dp66+mru//BUWN89iwEmzYeN6Vq5dy5GuQxgek6jrx+Oz8tHrXAK3FAKUQkgNlVEoBbo+sdrcFDiHUGokLw3ANEyC0Rh7du1i/fr1BEsiNDU1EvD5AYWQsnCtTWAm5Hank7Spr6zj+muv4xf7dvP00j8Qi3q58pKrKC4uQegS6WojjgNZwBUaxkkyvkyvRe3UJmIV5bjCRSqJMgTBQBjLMJg1ayaNLQ2IhIMK6HhMHx4dLrviE+Pex4oG0KRGc0Mj5SWlZBMOgYgfj8dCBCTz5y9EdxV6QmJrGtJUaLg0NU4lbTt4dANdGsi3yw8TClezkWgIBLpm4moOjuOwfsMG/s+3vsXB/fv5/77xl7ROm35Cg13LMLCKo4SIUlcLU7LTSPZfQldvD51HO9jT3s7OPXtob2/n8MGD7N21h7def5NQMEJFaTnNDY3UT51MdWUlFRVlBCIh/FaA+snNfNZ3G4bUWfroo/z0vx5k0B3k2ps+TWlktFJVfMielrphUFZTR2mghvXbtzKYSjN0oIdf/NeDvLpiBbfedjOfufkzRILBgiArcALDiw1luyhXnTSFImNnOXzkMFvWbuKZ5c+zas16cFLMnDePK66/ngvmz6ekqgrRnaBl0RyWP/Ucz7/5Kq889zIbN2zhxsVXccFlF1LT3EgkFBoRf1LPFbYo6RYiGgXeEye7bpvq6rj26qvZsXUrr726nBmzphEOBkeqPQtMXCZkJA0312SvuKQEKRRvvbWGnXv24hEeYiWl+IJ+dG20MamTdRFKnrQCNGevZOILWFh+i2AohN/vzw3IIhct8lpevEE/Xo8XU8/1G/MF/eP+M/Nm41JoWB4vWsCPqRsjrUE80sTQPGiWiWHq6JqB1ExMy8Ln82FaHnSPMa6X0okoGFtpI8BWDqvWvcVP//Un/PHZZ7n9luv5i2/8JdGq4ncUGrqW8wAtKopRW1tLS2srs6ZPZ8aMGcyaOZNJNQ1EA2FSdoZDHYfZv28XG9pWs3zlW2zeuImjew/S39nNUDqF1/JS19xEwPSza80eVm9cg6br1BRXEYgEAZDah+tCIKTEFvDWqjbWtK3kqvnXsnH7Rr73k+8xc8Ys/uYv/ormKc3vq3tEgY8A+bXecDoFgO26HOvtYe261SxdspTfP/x79m/bTHPTVK7/7PXccsvtLFywgOJoFB3QfAalJcVMamiiZVoLutQ5uP8Qbas2s2nvWlLpNAHdh8/S0c1cE+oMgCbQ8jsDuG6hQrTAu8Z2Uoh8rtlwCoeuaUSiQbr3HaJt/UY8AT+TJ00m6PGDKlSyT2QmpEgbtkgKBAJU1dYTzyTZuH4jGzdtIascIkVh/JYPQ+a8K4Wr0E6jZYKDSxYBKoN8h95hw9hOCnmcqbbtplFItHwH/kz+5yeTX1lyY/7pBJOHRSCA4zgcPnaY5S8v48Gf/oQVb67kyuuv5q/+/M9paG46rUiQ42YQjDZx1aXE7/dTXlpKU2MjUyZNZtq0acyaM4spLS1UlJbjkRoDySE6DnewY+s22lav4a3NG9m/bx+9g/0E/QGEo9G2az17123BVj6qa8sIh8OncYbvL0IIlOuwbe9GXnv1DSzl4bn1T2IkBX/1d3/H4nnno5tGwR+9wClxlY3CRcsv+GzHoWdggO1btvD0U0/y6B8eY0PbBsLRKNdfcRV33H0PixYvoqG6FjP/mqyTQstHla2gj+rqapqamqhtaCAeT7JpVxsbNmzm0L5DYGfxBL14/X6kpiPJjxWuA0IURFqBd42rnNyc5YxP4/D7vZBVrNu0kY4jR6krr6GyvALTYxZE2gRmQm53jqW8vJzbbrudqC/K008/xdKlS9h/cB+XXngpM2bNoLKyAt9phGyFkOjCJKNczsYsraedXDWgFDhuJieuTtJrZuxvcp0sSrlo+qkbp2aVzbHBbg6tOcyf1jzF80ueobejgxtvvJF77/sy01umv+djH8YXDuALB6iihtbp0xkaiDPQ00Vn7zE69newa+tO9hxs52jfUdavbWPlG2/i93nxWTqGkGzYuIHuxC9J2t1cf8sNlHqLz9qxnQkCSCbjBAJ+NF+W55c9xjHVz9fv+TOmzZlOd3cPovtDPEAJWsjA8gQIFJrnjmA7DlnXxXtcJaOrFMlMZsQPE3ILnngqNVJp+U4kMhlMXT9l8860beeszo6LwrvKITkUZ3/7Yd5qW8mq5cvYtHk7voCfSy+9lIsvvYy5U2dQXHl6jamrq6uJlpTQNKmBha/M4PnXX2X9zo3s2reHmRvauGLRVUyZMZmSihiaaY1sfwJkbBsFI1XZWcfBcd1C5WeBk6JruWtHeMbPR5o0mbHwPC7fejl/WLqEl156iabmOiZFp0zIdaubdXP9B3WJm8214fo4VqAKpdR7bd31gdBztJs1y97g4WefYOvObcRiMWbMm8GieQuZ1jiVkvJi/GH/CREyB3ABXbm4yhmpllTKxbVTaIYPFDhpB83KXdS2kx650E+Fk3KQZq6q1HEzCKGNRMFc1841FTxOtLlOJi/Sxk8wjusSjydJ9PbR3nuI11a9wdon13GgZxPSivDJT17KHZ+5g8bGxvfwCb473JRNvGuQ7mQvB48dZPf2djp3HGB75y6GBnvZ193L4a276U130lhcz8xLF9MUqyEr46RdP6aMk3F9mCJJVlnoIoWNhU4aGxOdLA4GkiwuOhIHF0murlUw2hJEIHDzj7m4aEhsXAw0stgYeMigKQ+OSCGyBuv2bmPV8qdJ9jpkvV5uv+02auurEEMqf3y54zKVF1skSY87rgwO5nHHpSFxUMhxx5VPNc8f3/Bx6WjY2BjoZLDx4CGNVF5c02TR7FYuvuYagqcpMj4OZB2HrOPgM02U6+A6GTTDi+O6JLPZnKBVCjubQDP9DKZShN7h83OySaRuksw6IyLt/2fvPaPsuq47z985N778KgcUqgo5kABIEAAJAiDBJJGUIIqiKMuSPfbYasth9Zo1a9bMrO75MGtmes3yh7bs7nY7tNxtt6dlqyUqMpMQQYIgGEAARCZyBiqH9+qFm86ZD/fVqyoEEqRIkSLwXwuol+5756az/2fv/967GgSYtXY4KvRASHwVe2Cnl6WpFgPOnbvInkM7eO3l7ew9tA9DaRbcvIh777qX21avoqmt7UMTbX+oxLvnT7L9ta28sHUrA2dO0NUym1V3ruHOu9azYNES8rlcXSPnhSFa6zopC6KIMIpmtD2LlMIPw8taoV0NJc+rN4Av+3699dsNfPTwwpCx0VFGRkYIVIgVWohIoxIBIrARgUYlA0RoITyBSvqgTWTZQKWqgIWcMFHpCggTo2ATZcpgmBijDlGmBKaBMeYQpSpgSWTBQbsVtCXr2m0AS1rsems3f/5Xf4kKfX7/93+X2++8AydMgFZoN0T49tT4Qgvhx2MSkYWoSlSyCtpClk1UqgLCQhZr45Mmxrgdj8kwMcZconQ8PjnuoJLTx1dFWwJZstGWj7Y1CEnGTtPS3IxtxR6+GyTt14SkAQQjZQ6cOMrLW1/mzTde58LwRdLJLEvmLOK21bewYNkiWtvayGYbSDgJHNMkAkLA1hGRDjFlTaCrIyK/gumkY5JWDTESkyvVCpZxuXcuUj5SWggEPldudBt/LqiFLq/uqIyA0AvxRoucGe3j6IkTHN27jz1HDzBw4iS+sHhgzRrWPPQgt9xy8wyB/q8aoVJUSlUYq3Cm2M/JC+c5NXiR8cNn2HH8NQ69vJ8zpRLLFywg1WzQH7m0lT1Krk2q6lN2bBJ+QMU2SfghVcvECSN808AKI0JDYihFJCVSabSY8kBqBFJrIikwlCKUEitSBKaBHYZ4pknKD4ksg0hWcWWesUKBrBAUwpgsm/kU6VFJmFaQ8PALGaqpEZpKecaS48hKFsstoqpptFlCRxa2q4kCCYaPDh2EDNHKQGsNIop7MQqIoni1pyMLYdY+a1XRfgJhl8HPYLgTjA9WGRge4TceeJh/81d/QfIajen1Bq1CotC7rP2Y1prQn8ByYv1jyfNmeNguReiXMEx3Rriw7PtYhoFlGERBNc5qm6ajjCoBQ4ND7D7wLtte28bOA9spDEwwt3sB9298gFX33Urv7Dnv+bsfBGMXhth/4ghvvbKFV3dupTBepqdrHqvX3cmaNWvo7ekhk81iTxbgjoI4c8+8/NoJlcILgmseW6FSQUpJ37lTnDrfx+z2Dub09r5n/9ob+GBQQZwEMlwe5xcvbmb7llcYr0wgowQiUqhUgPAN8DU6FUFoIqsalY5AmcgSqHQAWMgiqEwA0kKOCVTWR5smxpBE5Ty0ZWGMSFTaR1sm5qiLSpVRtsBRikDKOLHNdBgpltj95psUBgdZvGIFXfPnYPkm6Aid1IiqgwgVKuUjQhPhaVQqQkQ2oixRmWpMIifHJGyMMZsoNwGGhRwR8ZhMC3MoQZQroi1z5vjGXFSijHIERsFF21VMKyIyDJYvWM7DmzYxd/4chA6Byx0e1xN+rUjaJEb7RzhwcA9vvPkWb+zazfmBC+SSSbp7uumdO4e5XXPo7e6mc1YH2WwjbtrBkuI9w4yaWFs2+QkPMJSPKacmrSCqYkobISSlsIprWBjCiG9GQ7xnXD+IIvwwRKmQiVKRgb5B+k9e4MzJExw4c4QTp84yPjaK47isXbyYFbevZ+3td9De0/GRHLOPEkpripUKYbnMrjd28Kd//m85fOIEf/In32bJgsUMK4+WMZcgU8WecPDTPnbJJkj6mBWL0A0xPZPIDpG+gbIUMpQoQyGVQM9wWGmEqr0XSpQZIQMTZYcYnknoBhhlm4pbRUqJbdt4nkeiVmhUa81QVKFtLEkpWcZNJDBGBYOZCo1Fh9G0T75ko2pj84wQS0XIhANBSCQjZGCjDYVQgkgBMsA0Y22bigK0MOtjM4J4vybHZlVdKokqb+/cwY/+8Xusvvtu/uJv/ob2T4GG79MAHek4k/KSFfJkqFOjCfwKQkiyVhpZC+GMVyrkEh8+M02HKtZ8GYIgihgeG+HU/iO8/vp2Xt33OkNDg3S0tLJ++Xo2btjIogULsZs/nkLNwxeHeGPX22zd9go7d+xAKcWyJYtYvXYtt9yymrk9PSQzSVToo3WEYV19v+MIgY9hvb+ndrQwwrZXX+H1ra/T3jmLb3zzmzQ3f7KShc8SlBchDEHfQB/f+c53+MkPfkC6oYHm2bOYrJetRQgohLbRIgIRIpQz4zFCoYWPUC4IjRZVhKrNb7KMUMna4wpCu6Cn7FAQQbZkUnIiXBngCYk2JFYQIiNNZBkoU6JFAIDQM0Po08c3A9PHNHMLtJwa34x3rjC+6eOkv8jh86dZecdt/G//6l9xx5o1CBXEsYqaxvNTr8/6GPBruc8NbY2sbbyDJYuXsH7jvezbu4eD+/dxvu8ir57cyuvhK7S3NtM+p5vOzh5mzZtFV2szza2dZKwUUgpImjh2YoauI5r2GxEgVAjSYtKvYxlTF6QT1WqyidjQCEG91YYfhoRKEVY8wqpPNfQYKIzSPzDE0EAf586f5vS7x+k7dY4xXca1bfL5Ztbe9jlWr72DpT0LaG1vrXv2Pm2QQpBLJlG2y+KexWSzWTpbWvjiQ1/g5qU33yhvcQmqfpVsW55nn3kOO3lDizYDWoOKGblWGh3FhK3iVTlw5DDFvmFKhg9ByNI5S5g7Zw7SNj4UQZu+mNKRBhm3ejt28iSv73iD7a9u5dSpYzQ05PnCxk1suGsDS+cuIN/x8RKXpo5mNt5/DzctW8qbK1fyyquvcPjQuxw+epzdb+/l7rvvZtmq5bS3ts4omTD9eE29qFEqwODqJE15EdIxSNsm8+Ys5ODeAxw/fpxqtfpx7uZ1h8kFhYg0Koxw8lke/NIXefihB7F+RY4hLwC3nMKzq5hORKji7juRiv9ZJnwaGqx4AZzdc4q/+6e/JwpD8MoYKkTIyRB/TCJN4/rTYX46WcA1wLASNHUkaOpoZ9Ximxm4Z5CjF06y5+BeDr17iItn+zj2xpsEwVaS2RRdHV00t7XSmW6jIZcmPauRtnwbueYGXNfFNsEyXYqGgVPzngVJg4pXvOy3RVWhbYGemCCIAqpaEQVVoiCiWqlSHCsyMjHOUN8gY/3DDE6MMFocZrR/iL6+AcIoIplO0zmrnVVz57F06VK6FnTTM7ubllxsEDRxZqilQQXRJ9ovc4Yx0BoVxo+11BQzNWqrgeFgUqZ1A5dACDAMg0iH2L9EL9rPGoQpwVAoHSK0EXu4LEmlVGLHtm0c27WfRatuo2/4AidPnuSPvv4H2B/yXpi+mKr6Hmf6L/D2zh1se3krR48exbYs1t1+N/dtvI/bbllJ08dMzqYj5TikurtpbW9n2crlvLnlbTa/tIVtO15n39FDrN67mo0b1nPTTctobm6OQ6BKo6P4eE1CSKMeEr4aVKiQtoHlZlm69CaOnj/O0OZtH/cuXrfQpkDaJvmGPCuWL+OuOzd80kP6VGJfLk/bK80EQYBWIVpF9dqbpqrZmRsk7dMPpSMEol5WAsDMJ+jMd9O5oJuVa26jf6CfvvP9nD59lrOnTvLuscP09w2w5+C7aD+kIZkn2+iSFw6VXIp8KklD0sRON5FJJskYaSzLwmi2sAyr3oBW28TMadQjTAq88SqlSomB0KcyNogqVxkvlIjGyxSCIsVqhdJEFT9SdDZk6eho4daVK+ntmcPchfNZOHcubc1tJJ3EZV4zrTXVyMcybFSgPtmm5pq68dQadBDVH/uBV//Y9asaeB8ooBIRhhGWNLFE9L6bXE/QKJSKMA2zfh+oQFEeKuGnDB5cdzd7jh3gv//4CX7/N7+FTaz7nN4y7UrwwxDTMOqCeMM1iMoB/Rf7eGf3Ozzz0vPseOdtQj9k5cpVfPFzn2fN6tV0dMyUGGit0KhrLttzNSgVIqRxWUNrPwwxpMSQkqRts3TeIhY0dLPm1hVsfvNlXnr5ZZ5/6nkOvLWb9ffdzbq772LB3F4a8w31UiHoeCF1LX1npWXcWEj9CiF8haoGCE0s54j0jBp8nyR0FFc7+CTGowKFNMWMxIY6rCRMkycZlhtLIz5Fx+5XhV8/kqZCpDBmkLTpyCTSZHrSzO+Zx52rFaXSBP2FQYb7hrk4MMDQ+UEunh5muHSaCxcuMHD2HEdKwzSUXQackFwigSh50JhClz1SZopIhZjSJEgaUPbRIhaEToYH/FARhh45y0K6CVLpLK1dHSxv76CzpYOWplaam5pp6W6jraWNhmS+nkl6NQitcIIqmA5m6pNdPQhD1I2nkAL5DLTmAAAgAElEQVSj1jVBIsiJ2qpdQJj47E3+EfEu/VIRAaWRlbhAs68CfH2Dzs6AMBHGJYsUNNKxWDh3IbMXz6XqV/GUT1EEpImTeCZJmheG2KYZ59uGKm65JOJenAkhkIZBEEWMjIxw+p0jPLf1Jba+tQ2vf4yFS+az/uF72LDuLnq7eusJHZFS9ZZnGk2kQuT0MerYwAlToFRUb0cXhd5Vta+R8jGFC0LEnkMREzYvDHFMc0aha6sxwU2NN9O1eDar71jD5mc2s33zZn78ve/x+o43uPf+jTyw4R66OntIppNoBcpXGHWxU81jNs3LNklslR/3B568V01hXvG2DaIIY7Jt1Q18aKiMiczYhCLC8734unm/gtrTSXf9WpNXPK8quPbm6DpUIKf00yrQCMl7Eh+tYklC/PvXvhh437EECi2NeuUqPwpQOo4yhMRz7/Rf0ZGKC+9eZ8XIf+1I2vuVxpgOaUky+SyZfJb53fOAeOKZKJQxhisMVgqEhJwJL2IedbkgzuH5PvLCCGfTPuGFAhAyEXjYpkvomyhRImk6pPM5Eo5DMpmkIZUn05Aglc3iOkmyVhIn62LlMuRT2WtOi58OIQ3sxKdcXK7BKob1pyLz8d08WiviptdxhqVCgTBmeO808Y39QS9qpaO4V+MVTFVA7CEUWsWThpAfnLCZgqjBIPADHGnjiPD9t7mOEGlFoCKSxnR9qKYsQrIYKKmZyPk40sasKsiBbabqxqnkeXG/WSHiUjqJuIBntqZbKxaLHDp5nK0vbeEXm5/j1Kkz9PTM5Svf/Bb3fu5+epbMImHb9bC+MERcu63WbF0KA2HIuEhozaJorePfMkxC5WFLE7Qm8kt1kqYu6SVsmcnYSBqThEkghPGe5VhyqRx3rlzD0u6F3LN2PU9tfo4XNv+CE0f+M+++tZ977nmAlWtX0tbRRiLp1u8BQ+tYuG5JgjDENg0i5WFICzM9dZwrhQnCSkS5WmGiMEFQrGImbYQhqQQBrmnWMtXF+3RLuYGrQQSKqBoQhfH5uBaCo5VG+RGGKevXmmnGGVXKi2aStGoYZ/xeA5euEzo55V1+37FEGh3GCwAd6anFwHTy+CFgJGfO1NXQI1QhAoGtwjjEOS07+xONJn2C+LUjab8sLMOgoSEDDRmytAKwiMVw68zPeaVhZJRGGSVklKIoAxLCx1RJ0JKSCEgl3anm4tcjJAStFpGSSBWix/yPTZOmdITWEaZhoHWErwMwEkyXj2vA02B8wIkjjDwswyESBpJp5T+0wiE2+KEK8IXEFJIPTLk1yAAsx6Ya+XjKJf1Bv+MzDCMKIfJm6E0MKUklE7iWiaEkTaMZjISFPR5AW/yZSePUmIqzLpWOMFMmk2ewWqowMNDPtte388Of/4jT+w+RzCf46te/xpcf/RoL5/WQtG2MmgY17tkZawdt00CqiEqpguXaSAm+XyHyBYZj4Npu3cNtm6nYg2dK7GRjfR8CVSWcAGEKEokEQshaPUaBiXvZokCrEIS8YpQg35xnw313sfyWFWy8YwM//ul/Z+urL/HiG69y/8aNPPrVR1mxaBn5pjyeYZGSIFOxgS96Hk1mCttMEzI16ftRxO7XdrBj125OXzjD61u3Yy1XzF4+FzvtkrFNEJIJz8c2jBsk7UNCVBSWMjANB+0LdKAuKzR72TZSIh1R6xSop6IpQmCmrfr1BmBm7BnP3wsfJhlNWhJMUfegGUZM1oBp5PGXR9pKYkmLIAqIQi9OgLnRceP6I2nXCifVNPkIgEZmevDyH9xUf+YgBLgEeJ6JFZYhrT62cKchLbQ2UCoCaeJqCSqEaZ4KoTV2GBFVVTxxRbXQ1/vANuMU9oqOcIWMw5NiqpOEISxMw/nwN0ukYTzA9zyShktS37jtpkOa9mW1v1LJJKtXrAAZog2B2dvI5x/4AmFncmq79MzwehhVsYwEfugzPl7gne27+PET32fzqy8jEgke2bSJL9/zG6xYdROZ5pn3s9YKYQnkZD/gyOfcmVOcPzfM/BVLaG9sJKhojh46THpWloXdC6ZvTFQJMTMz98Ex0xw5uAeVDFiyeBmG7SCTEiEgLIUYjjHDsIZBBWlYlxW71rUQkBCSXFOOhx55iBVrb+GZzc/y5E+f5PmnnuPQ3oM8dO8DfOHLD9DeMw8rmQJ8bDNFU2qqdEgFSIUKaUqKlQq7Tx5CeVWWzl3MuycP07Owl3bRgw2EfhnDdG8UXv4lobImgRmifIlhOohrMB06UjVCbxJVIsz09AxeLrvewnKIlbk2b9oHgtaxDjnS6EBhJM362MyU9UtLcXSk49CriFshBkGA1hrTTl12H1yvuGEtbuBDQ2kYjyTJhM+onaVcDmv9Aj56pqa0ZqI4zuDIIMpK0ZJySbkmlhuHhJVSTEyUGakU6W3riCvUl0Ks7HvPiFqrWskQgRFUGC2W6R8eI5/N0NrUBIaB0vqX0+WYAt3iYNs2pajChPSY6QO8zqHj8KGQov44nU6zYcNd9Y/Mbmnhtx5/fMZmQVjGsdJMWiYpXMbGC+w9so+XXnyZZ3/+FAOD/dx5x5189fGvsnHjRhobpzxdWtdqpSGIdAhax5otpfAwOHjuAq89/yLfbM7R3tBAREBVBDjFyW69GqUitDTRyVj3ZgSayJrW5zcBQVWhdUyQjKiKgwOuJERDFCHRSCmxnAyRUkR+WNMJ1UK4tbFNl3p0tnbw21/7H1i36i5e+OmT/PS5n/Ef/tNf89LWV9n0zS9x1533MK+rm1DE3udJZICgHCIzNk3pNH/yx3981dNiudkPfi5v4HKEgoQQ2GaFUI0TBR6mnXzPTYQp6x4qM23FWjSlUGhMw6gtQjUhCgNdn+c+amG9ChQ60hiuia597/Sx/bKIqlOLFWFILNsiDKbkILpWnud67i16g6TVEBvrG+78DwKtFeXKeP15sjH9sRA0gGrgc+D4SZ752ZMMDw1y/+c/z1c2baq/71U8ju4/zFB1iN62DvS0ieu9EHeXcBHCoOoLnn76eV57dSu9C3v5+uNfp6WtE8s0L+sr+cEgQClKhQJpI01S+O+/yXUEFSpUEGEmrXiVXo1m6KZAo5VCSINQKQwtal0fUoRKo6KAMAg5ceECzz33HD//4Q8ZPnWKznnz+P0/+tdsuveLtHe0XyaujpQPQmJKu160ulIeZ2B4iJFSleGLZ0iZNq5wKU6MMTR0kVxrM73tcfanVopqeYwRZTM2MIAUEvd8BTUvi2XalMfLaNtifm83lmXhAFomGR8Zo784TljrydmcsmhqakELk/PDQ/gXxslmXbJdzSTcdDw2HRf9nW6sHNNkycL59PzLf8Ed96zhJz95mid++lP+5s/+I7s2b+fxx79Jzy2LmNPRjqkNlDVp9CWRAKmiGw3cfxUYdygXLLwggSkbMd+jGPEMTFu8aK2pjlc5Vxykp7Udx3UIij7nKyPkDJ+GltkIIQlLAWba+uhIjSXRpib0Qwj1R57ENv37JrwSfhgglI7rJ1IrCCzF+4aHP8u4QdKIyYYflnCs964vdD1Ba42G9/QgSSHJuVOeidJwET1XX1MxW6U1URCilIoz+QyJaZhIKVE6Lv4YqhDQWIaNYwrmd3SwYeXtvPjqLzh68CBs2hQLpaOIEEW+q5WG4eSM8xkpRRSEBFGAZVgYlolEEwYRhmVimykCPwChSGuTVStuZXCgj5PvHmakb5B5vXHCSaQiwjAkiiJMYWBZ1oxQ6vSOnpfCQJKTGZqTNhMVi7Jy+Xhq139waOIVuiElkbq8fpsINZGlMEJJdGl9t0hDzYDUD8Dk905rZKIveTO+ti55DY1X9mMJDhpZ8uIatyrOrAwrYxjJRoaKRfKRTWSMUVCxUH5k9CLnjp3lRz98gu07d9KczvDI7/0e33j8cRbOn3/VVkemcUkP3Sji6KkzvPCLFxg6P0ShWMR2Lcpehbf27+En33+C0dIY3/jGN/nCvQ/FBEcm2fb0k7y8ZQvtnR1USmWWr1zE3J4lvPXPr/H8+Vf40pc28VuPfYN0Kk11tMyWw6+ya/NO5MAEo2GZjXffz1333c3Zi2d58tWXGDhzkYXdvdyxfh2LFy4im0qifIVWGiNh1DvGTiKZSHP76nUsXbycuzds4KlnnuHJ557jzb27efChB/nSlx6kW8yi0hWTg7zp46VaSJRHcFJNiJrWTF5i2EXNyzj5eMZ7035fCFGvoqCZ6fUQCKQWKENgoFHTtpPo64Mk5j2SOR/HLhGGxXoY86qokTPUVBhdSEFJlfnn//L3fPWhx7jpjmWYWYvjbx/AcV3ubOrCMLhsYapVbT6efvp0TTj8Xq/p+L9iqcTg2Bi5TIaW6V1Spnu/r7QL6vL3rvTadOTcDI5pUykVUEFcvPbTWtD9V4nP1hF4L0t52Uf1tAlI/uoJ2pXGqvWVa8Z8nMOoGVMhRLxarz32wpBqEJBPznTLzzhuChL9U16hTEvumrsNjJQnOHvgBIODfQSE5FrzzJ83n9aGFgrlCudOnOVk33Gk0CyffROzFvTQ0t7Bitsl/eODlMtlAIIw5FzfRQ7u3cOoN84ty26pn89IRZwbHObC3qMcGTvOoob5zLplATk74t2dJ1lw6zxyuSbe3X2QMAkL58/n5hU3M1AaolAqImveM601F4YucvL4SfoH+ulMtrBsyc2kuxqYzPUM0ARak7qCNzbyYfSsZiRQzLaGyYVWHGqLIDIERqRnEiClp/q3164TdQmpUVohEGh0bdGpEapWz09cQoFqJOrS70BrQqUYK5fJJ5MMFYv1/RU13pU6X+Vcb4HOUyn6kyUiqeoEyxjwiXIWQcFHe6r+OwClqIwhDCIdUVVeXdsCUPLL+IGPIQwCHWIKk3JYRmhNGCqq5QDXhlJJw4RHkYAcNmPCAyHwPA/peWitkWgOHzvOlu3bSZsGX//6b/KNhx9j2dqVOKn381jMvAkHLwyyZ/tu/IrHmpVrOfL2MS5MnMJJpFh20zx0EPLMD39OuTB1zQdhyKETJzh95jT3P/I52jOt9E8M0jCrid/79m9z+AfDeBcr9QbRp0+f4fi2IyzOLsNdpPnZsz+jb6yf0wNneHvnDrLA/DmrOdh3mj2732FuUzukkvXq9ZHyUTqKewvXzvvknJHJZLj/c59j6a23cved6/mLv/z3/Mfv/h0vvvAiq1avJJdtQKKxsjk0kNcOZB10jWgnMxbW5MJDCJJmCkvG5Tksy8KohU2FECSNRP3oJU0XmRAIE7QyMBuniIIbmmRVlkKLSasMmVBOXNJGQtYIcNPTehKL6QRO1DMQhQChJMiphePkPDR9vqlTyulEIFYyxO/pS4jJ5OdF3Ng7vu80WkhELbIyXerwoWUPYy6lMZtKBIZjYDjvbXZVqFBe7E020hZBGFD1fM4M9HPi5Ml4YaoU1WqVufPm4aSzSDld2xgSqhCtISh4OGkXy7HQaMIwICgEWAkLK2kjhURphTdRJVIK0zWxLAsdKHwvYP/+Pbz22musX7+O7KpVWJaNAPyKj1es4mQSmK4RC/w1BEFAqEKCcQ8z62AZJqZpIqQgLAaYGSs+zVc4jvVFcDKBrC2sPoBJ/8ziM0XSIi8EfSX2PTPlUOmIIKzU9CzXgNrm8Zx4bZ6iK34HU8NQQYQKFEbKio1bdGXx8ceNku+jtSbjukRhBRWFWG4W17KmWmbVyGOkI8Jpxy0UmkKbiVYRaAjPVaGXa7qjiuYYP9r8BEf3HKGpuZlcNsuadbezft16RgeGeea1Fzl/8BwtTpbRtWU2Ntp0tcyKvTDTvDSmUNh+icPvvMvWvds4ufcYy/7Pm9BaUSqNsv/tHby4+UVamls4rU7x5TkZCo2d/PX3/jP/c9f/TibTxAvbn6XRm83s355NalaK8oRPGEyRpqBa4Ni7h9n59h7KxQkOGAZnGGJjy3o6nDZAYwRVROjDlcqm2BFmV5FGWxNUAkZPXcTAITjucaHLZdbZCuey4/E1pjXRRR8jp4kKoIN4X4vhBIGe0mqMVcZxTBs/CigHFUQYYgy7aDSV5ARVf5pzywsJKlVKxNtrQIchYaWCmUzi18iZqBk/zyuQGIbxNPWTGYwX8AsZrPQEhaiKqp2DcsUmlAW09AkmgjhzTQiCICCK4qK9YVTF83yisOb1DCf3I+6bWQp8bKVIBwGBlEzYNkIIDCQpx6QUhrRksni+h+vE3q9cLkehUKDVUezrHycslmif3cTSRQvoWj4fwzZjslm/Vy9POw4iD4Goa71GqqP0lwfp7ejkoS+sJdPqMv7SGEr6tLpJFsxZRFvvHOTEFEmTQtLc2Mi69RtYf+e9tOfyM35jdfN8qpWpdkuFsMjYxDgPf3MBzZ3dnO6/QDabRY0EHDt6nLFKmbBTUh3rp1SwKWmf6X0PDGnXy86oQKH8maFhKQStyQw3t8xn+bJlvP3WDo4eO8KYOkdatdHmavorgqrnxURfCbTQFDyPSqFAo5RYQqDTaSa0JogikpZF0nHqJM113bp30jAM7JSLmTDRaGxpkTQmF3Ya27LJZdKElSpWJo2MNNlAolozaAVIha71ckzkp45dXtuQS4AUZFxwhpqIWqsoNyJtpvGUT9pN4ZpOnYQlZQLHsJE5C1PHJE7lTLQLKWWTLaXxmqbmVxtJBoPQ9gidBhITVSKrjJ9sxC2PYKdaGCoWaM1mEULQXyjQms3EhO8Sb+Hk/TPjtRpBjGaXSHZ6JA9CVI1iHdZ7eIikJeOOLmhK1RLvvLuPvbsPoKTPmF9Aozk/OMyTP/8ZA8NDPHb7vXTcla/XDzv49gH2nj9ARESp6LO0Yx7LFt/ECOMcOPgO5eOarpu6WLxkLo0NTfQV+9l3cD/nzlwk46a57ZblNLY1sWv/Xp77+XPs2bmT8xfOUKwWWLVmA4YfsuuNXRw+fYp20cGSh+excPYCIj9k57a3OTD4LqZlURipcMf8Fdy07CYSTUmsXK2TT8HHTFmXaedM00QpVZ83AKrEtdKu52Z6nymSdiUXcqQCIhVnOU1CCgPHSteNvWbKAzAjFFP7E4x5mBmbohSY5SFcN4c0rKkV2hVuzkuJXOSFoKZqw0jbQNoG1SCg7Ps0plK/coIGkHamV3VOXtZ1Q4UeoV9CJhupCIOMmUIpRRCFnB0Y5J3t2+g7ug9SLR9ouSPHIa0t1m64nbsfeJBDe/bTv2eE07kBTp/aR/lEH7fdsQKvVOLIvkPMbp9FV8ssqqHHWHUcp5ZdKw2brrmL+dafdDDrmVnsf3tn/AMRlN8t8Pzzz3PnA+v5jS8+zuFzR5mdy3B2dBBUxOQJDjzwmoZRdmx8L92NirZIpRtYt3wVSSvJzzc/y5GX93HXvNsJez20VlhW4j0bX4dacHE05MzTB/hD8a8R/jRdmoAxr0DOzlAIJ2aQ0KDgxR0LavB9H3WFsCRA1fPwqlXSVjyxFUNBFEX4uoQ2Qgw/RaAU1TAkKyVhqUTJdcnWrgEpJY7t1MfkJMC1Y9LpJuKSEZbl1CdXoYFEhe5kI6ECv8EkLSTJVBJjWogxkUjgTLvOTMcB28ZWkoRpEwhFynTRNbJhSsgYFsZolqB9BOkkyZgpCuEEeWtKzO44DkII+ooDnHz6CH/5+o/52//wZzy96zX+8PO/ydq715HKZ5BSEkTlmODIqRId1iXhTgQkApd0kCcQKSZKAYYf4Sg7rs0XKYSpcZtjYyKliDOBiwFuNkNeTnXfmFxMKKVQWsVhfa0JAp9xV+MFFcbHB/CDGoETAikljVaStOkwv2c+K29bSmd7I1eCBqQtkbas/17V9zl+7iwv/uIpnvjhE/Qdv8gXNj7MFzd9ga5F3bi1LM3JItxjQQHrZJqgZRiMiGI17ucoiz7FyMPVBp6IKJWLRNOu10qlgufF+zpRKuGNKaQ28MwCXuRTCRQiclFqjOJggVPhqTgjMYqYKE4A8e1XuhhBzwDF4XhcDbXxaSBKjJHUzXGrsHgHaXI0xUBgJVKYtU4LWmsS+SSOsgm9EFKi7nV0DQdXzjTvtpSkTCs+fqaJlYkXnIZhkE6n6+eCRIKk45BXDqOGTz4bX3e5JBSrglTOqYeHM1aGpJOoe7PSRgpbWBhZEGmLwugEfaeLVLw0lp295hBepVph1/53eOFnz2GaJuVSmdJwEbPNJnPBwywEbHnmGZqbmliy/lZkjaRt3b+Dp378I26+dSWZhMs+P8SVkr2njnFuZADtVbnw+imyeQuRsnjt9V0cemk3OTeF7o3oH7xINu9gBOBWJVkjSTaZQrouE9USx44c4KXtmwlVhfPWEca3j9PwYBtJ0+Anrz7PWy+/wl0PPYisVtlpmLQtm0MXycm+PVfVCgdBcNncdiO96jNG0iYRVSN0pDBTFoa0ZraP0TEpC6KIwWIRpSLGC/1Q8QgGNcPBKBeL/YhqhfFy7ESSYx5jVMloG5F1oWakUlmHtlwTzU4jtrSRTRbNIoOZTpFszZCqGSYhxFU1CDM8Vp9CSNPBrhXnTIWKwmiRI8PHeWfXO7y5ZTuvvPoix4+eY+XKZspG9QNld1qpFD2NvfQ2tDOe62fcHqQiCgx4RY6dPsZ4aQwhDXKNWRKp+Ma2pUXaTOH7M8X3UkrcRAI7F0+mkaE43TvG4OAgy5cvRwjB4tkLATAPDSEiTVZ4SBGT8okqTC7gUi5YxhRRSmkLFfq8fmgnxUKZvUf2k8kl6SsPMkt2XdO+GoYklUtxtnKBgQNv4zl5XNelWq2S7cxjjEChqUjeyc08fi3Q3NyMNe0aSaVS9efashBaY1oWpuviurUSH1pjZy0SDshSAhEkEZ0BGTOFlPIynZYQAtd2SETTiIsAqwXCQTBmuSDBvOARtdpoU9A+kSHKGCQyUJUOgb5y4k02kagTz4+rnEP/XQVWv72Wf/re99j60lb+8IXX+OJjj/HIxodYc+cqso0x2fQrYximjWFdnl3X2tpK68Jmdu97h7P/PMyp48cpFcYYj0qcPneRvdt3sfuNHZSHCsxtms+cJe1gJFBZG39wCBlOeVH7xscZPHCKLXveJOPY7HtzD8tvm0tbTytz0028vHUntuuy59395HI5srNbuPX2tYwNXaC3qxvLdImSDmNVjwYzDlVZRmyyyr6PF4Y01KQI1SDg7MWL7HrtNX78/e/z9v79ZLNZvvWtb/HIfZtYevvNH9lxjsoBgfYoE1KNZUO4IkSiCYqSqDhB1QpJjRsM6wJRi4X2FGrEx8hAOBJvo4WmIj0SkcNoOI7Wuk78Rv1xrBMZgtYhCn6E0lAoFuseFs/30dX4hi2Xy/i+z3i5jGkYRJ5HqVSKj0vkUSgWEBPgKZ9SGL8eBEH9MzEmtQVTkAJaXM1AVZLL5Uh4o/RVBK2uxnNycXj0EkxfXE1+pW3bTEyUKFy8QGNnC37YR+AV37e/KoD2FdUzRYTv84f/0/9C8cAZ/tdzx1D9AQ13dPH7y/4FZ0fPX+YQyGubBR2z+IN7H2PeumWEqsDOdw5w4MAeuubPpmNuLzvf2MX+44cp+lVG95xh+W03seFLd+M6acJKSNZxuXdjD7lMlm3b2tlw1wZW3rqSCxfPcfzQITpmzeZLX/4Kx3fu56XXXqI0bxnJJT1kkinuXbySb33723Tk8xT39WGaIaLmya5ODOIkG+s9OafDsi0cxyGo6dEAonII8soOmOsFn5k9L9ZWhxnXrVVRnilInahMcPrsGQoXxjg2corRwSL9Z88yMjLM4bNHKVwcY3x8fNoWsYamLaEpCIFtZXGDCYarirwFhQB8HZvTqjFCLtFCU0s7TfN66KWD2flmGubnmN05m7auLlpmt9KWb73i2CMVEqoqjvnJlzhVXoQK1YysGz8M6RsY5vS+Izy7Ywvbtr3EyX1HiEZG6fO8mnBYkO3Mf6BQcGUATujz9I72cb48RpRV2GmDhsYMi5csYfmCFbR0tqLQdKbiCqaGYWBomBgdY6RUqhcyDaKAwdJQ/buNSNJ7Kk9raysDJ/tY0r2I0oF+irNckgu7GKfMeFnRP17kyLnjLF+xDMOKr5lSFcrjJVSNCA5Uh3n+1RepVCqsXXkH/kg/SimyztT58om7E6SohaGqM0PXUaTwA597H9zI//N//d9krQzjQZF8to302SoTXS7p81VKnS7JPo9Km4Myax6r2nekpY+tEkwAjjZIphx0GKfcX+sk9qFC9QunPe6e9l2T/4u4tMMlirdLPvfxoi2bpfWee1jdvpSXHn6Z//azJ/jBEz9g25YtbHr0Ue5/6F5uWbKMbHIqpHapAWiwc6xasJrKqMfx06dJZzIsmz2fDiPHwYvH2XXyIA25HEN9F3h53w6aezeRyZgsmTsX1duL3TBFQEcL/fx0+4ukfJ/xBptf7H+Tnnw7c26Zy7o71/HGzl30Dw5iRSaWNMmnUty1aAVbxku88c5+mvJJVq9eg+ukL0twSNo2SdsmCqqM9vfx1hsH+Kef/jNvvvkmmXSaxx9/nE2bNrF27doPd77fA0bSwsDC5Qp6oSxAYz2w/GHb0+tJEfsVrqig4GMkTIJgDDyTCcCQVVxlU9YGlVo3D3s8RGiNkgJfT+A7EU7FpNgY4E5YTAQxSdNVE33BRVnDAEQ6Yiws1EhjlRF/HIGgMFKhabSNkfwAo8XxuEyL76OVAs9DaM3ExEQ9lF90QI6X8AolxsuS/cUAJSwyyeZrImgA5aDCydI5kg0NtLc0IBb75O33L4syJnzali4mt3w2RsLCoImyDhjxxwiOhhQGxkkls8zr6EAbEeWcT74rQz6djr3Ll6yjYoIba4DDKJ4fU5ZBS2OWU20OCpj0IQvToHXtcjpqoevMze0zJgA3PdMGTp5PaUlGy2NUQw9jWk+XS7sSXI/4zByB9BVW6IXBUfbt2svOk4c4d+IEJ4+dZPjiMKeHzlKqlFjYkkPm2mhpaWHJqkXkCxmibnDzeXK5HALINrgUx1j5txMAACAASURBVD3SNfe21lAqeESholgqUS6XUdUqlYkJhoaHGDx+ge2FI4xWLjBSmCDvtjK/t5euri565s1j+ZJlLFm4hJae9roo35Amhvxk8v2i6kwdn3SMevuNahBw4vwZ3nx5C/s2v8nWd3dTGCvQ29HD0mXL2fbWW3S1tzEgYsFedM6Ljfg12IWWUgpBif07djF44Qx2IsGtty2ju7OFhGkyOlLknfPHsAZOM7d3FnOX9ACQEBZNiTx7Bvfzg7////jcxgdItWX5b9//PtteeomxQoGGv/1P3L9yPXOXzeWWdSv56U9/ytatW3GyOR7cdB8L8nNYtfhW/vG//iNz2nsZOtWPmbsdWY33e3HnXA62dvKTJ59Ej4TcvHw5c1IdvHN6L0cOH6e/5GFlshQnBcVehAwVyRqxlZa8rDirlJJMJoNlWCxomIudd+ma9Do2Ql4ATbW/zdBwlWMomAoBiNpx/7Soaj/pYQghyCxu44sLv8qiVbfyxnOv8cMfP8F3v/tdtr3yCl989GHue+BBFvbMI2HbdQMQVWLDaiRMehb20ji7jXKlSNJUWE4K20qwajzBTam5lFtiDaltmOTMNJZls+6WO1BmccZYevNZfvd3f5cMZQraJWsEZLOtGJbF0twc1OKAYlAmX/DJGC4C6FjYw4OdTXzOL5JOJLETGeRVsh+LQ2PsfPNtfrb1RTY/9xzjpRL3b7yLh76yiTtvv4v2fH6GmPxjOd5XfGHKD/xhr4cpYnn5Nzg5FwSYThOkJvlEbsZ9AUAj0+6N1tjDr2P9nWgQMyUtiwXQU9908r1LZTD1RB2IhfFpi3AiwEya+N4oppNGGjZ+ZZRCoEm5aSwf+gqDfOfffYc33nyD0kSZqPLemrRJJMwEc7LdXDhyjnde283JgVMMDQ7N+EzVH0eOVqkW+jEbOxEi1rL5xWKsFZ48HMkGbm2YS8eCOfT2zKfsl5nVPZ9yuUyqKjh38BSHO3vIGC4oTcPstnpbtbDoM3p2jNGlJRKOQ1tDA0MXBzj89iGODwyTDwRGh4NEkI9sxovT7oVLTmEw7lFO26QNgQEzCvA2JPIYWs7QpN3AZ4ikCeL2PiPFEQ4cPsb2l7ez+623OHfuHAMjI4RKcdOChdy8Zjn3zH6QWbNa6Mi0kk/ksWelaMi10uBKHCcWiU6mpdeSHmcko+hpN25cfkAzWiqhL5YY94bpKw7TNzLIuYv99J25yPHDh3nzzTfZsv15UpkkvW2L6Z0/jzW33c6aFStp7u2gIfXRkLThiQkyiQT2NbarujTTqOL7DBZGOXv8OK88v4XNb2zh7LHTZJJplq1cwbr71lOaKPGTn/yE7vZ2Pv/lR9i5+3VESdULD17TOJNlnJYU83LLWTR/Pl2zWpk3bz7NTW005FtwHIfDx49jRJI53fNJZGJtTqa5gTvu2UCiMUdBTiCbTFzbZkn3QlrXdeB1FUin0sg2E8d1+fqmr7G0cSHvjh2jPdvGvEw3iXySTb/xJfbu20dPqoubbr2JRfNn09Aan4NZC9r44kMPc/jEQfzuLH6Ly8Yvf57GRZ2YVcnqm24h56RZlIgz0yb1hTMwfXIKNOJilUqpTMZKMy4DWkViypxdapPex7qJqz65fuCPetgNl8uJhRSY0mTh7AXM/d1ebltxG89teZ6nnn2Kv/7zv+LFp17kscce48GNn6OzqxPpGDO8kFJKsqkU2WQSmEw8EKQbm0nnNXqaYFwCCEGiKYVmZvg0kWmjKxOb9VzNvE/WYRxyxth57ACnj52gubWVm+9YTmNjDiEFjZk0kKr/LkDol2Ldo5NhbGKcvYcO8MLTL/DUz37OaHWCtetW8eiXH2Pt6vW0NzZgmtZlWYgaKACf8m7A7w8x7cElyZpXJo2TDyc/L6aeX/p9HwB2kwlCxFpLAXaivU4uHbuNFLXSJBoSTJDOpHEcZ4ocXstvJF06bppH+uRB/uEf/xa3qQGzwYY2k/3HD/Dz7/wDO/bvZV/jMYYqw/zOt/+Q2S0tZDMZZLYFy5i6rrvmzWPhfWs4tGc/x/YcJDurjXRnK0sXLOCWu1exZcvL7P3ud2lqbWPD+jV0dDcCCXJNOUTa4KkXn2FClXhkw10sa1/ED48d47/8w9+SamtmzX2rmdc5h2q5WiNqV5fvWFmbrBBXPOxhGNaTU25gCp9qkuaXRzGdFNKwGSuXZ+i3CpUKpmGQtG0mPI/B8wO8vf11Xtz8M3bv2UNfoUJHUxPLly7j1uW3MntxL+3dnTRn22iwk7h5N26WLSTCEAghkYIPXdDWTSSgoYkOuligVFyfS0V45XH6hwcY7Bvn/JmL7D92gON797D9+Sd58udP0trSwlcefoj7N22id/78evhOqxC/Mo6TakJpzVCxSGv2/V3dDanUjBBHWAqQtkEkPaQwoSoQhkCZAUzLbCv7PufOn2ff7t1s3foK2994g77BAea1dfI7D/wWqx9dx+KbVlDcd5J/+9R3GDw7wFe+8Zs89PB9jB4/wbvDpz7Q8VJCM14Yp7erhzvvuIPW1haMWp00x04yb+5Cerrngo6zfiZFsUIKGtua2HDPBhQqrleG4L7Pb0Tdp9GmRkBds5VIJFh51yqWqVswhMS24ppDi3sWMa9zLoaIWwuZplH3PDhOmgU3L2bOknlI08Q0TDKtnbQ1tsYVD6g1nJ6cBN9vfjcFtDkkkgmKYenyUhg38IExmSl2NRhSYjgOS2+7iXk3z+f+u+/jqWef4sWXN/Nv/vRPee75F/jGo1/j7o1309QxMzAXO4SmSFL8VIBxFbXltHpiUy/JS+jA1PtdXXO4935FeeEy0u2tdHV3YtY8r5PkLKqECBmL4E0rScn32H/4AM+/8DRPPvk0509dZMnChXz7wS/xyF0P0LioA9t2rloiQmhwxz3IX895ch8hxEySNyOsLMRUwE7Ez0sTJcqVMoZrXrM0wbJM5vd088hjX2Fs8Cyi5tla0L2AsTBk7aMPsvG3HyYcFbh6Fg2mQgj40v3rUEFAvmHKXjRns2y8dQPzO7so9BdIt7Yyq6eTtOuyYslKmprbGRoYIhck6Zo9qx6S7W7r5ptf+QbnBy/QaOdJtrSy6M48fzC/gb5jF5GdaVpbZmFIAzfh8uA3HiVnvEexbnF1xbJpxvO/VyzWpSbT74PrFZ9qkmYlsnXSlE0kEMTCVWFK0m4cIjh16hRPPf00P3vyKQ4dPUpTPsstt6zmt1fcxrqVt9K5sJtMqgHTNjEMAykN5CUp1B8FpBCxMUbOUMOlEgnyDa3Mn6MIV0d8fuIBBgf72ffufrb+Yivb33mDv/67v+P7TzzB449+hc998QvcdtttCGlgJ/JopYmKPk2Zq+vVhiYmaEgmMaSsT9J+WMY0bIyEWStK6cbzSgJA1I/rSHGUY++c4q2tO3j6rR+z79B+km6OW26+mf/xm7/DmrvXsGDWAoyExekLF/necz9k1/bX+fxXvsLv/NbvkByoUgqCWNjcxDUvSJvKSe5YtoJUZyOpbArLmjK6cVmEmBxd8VhLie1c0ifRvbrxsWwLi5mru/f6foHAtExMa9r7wsC41Ft2rQg1DHpUKhWyRiquT3UDvxSu9f6dPI/LVy2ne24LGzau5Sc/f5oXtz7H//H/vsOGV+/nka8+wh2rVtGUncqkVH6EDjVG0kSpkFD59R6vvyxMw2TB7HnojjkIw8AwJHE5kgpSmHGyk2sweTOdO3+eZ599lid/9COOHDpI89y5/NG//GM+d/89LOiaR8pNIqz3WVwKsK+hA8cNfPQwxkLS2iHhJlBeROSF10TUBODaNnNndaE6OuoExzJMmgyTtevXIQ0BEaBNTCdeHOQbO+Ptp4W7pRCk8inmZxej5iqkYWDU2o65mQRzUnPont2N1ALDNOqk03ZtZs2eRfusdqQWsV1yXTq7emhr6wJD1EPyhmHQ3dGO/JCL0PFqAS/0MBOJeo3K6ffB9YpPJUkLiz5G0qrXfYGpyvfSjUnHwPggbzy3hR/98Mds27+bxmyWb3z5Edbddx9Lly6lraGRpOti2OYn2u5JCIlhSAwDbBuSCZd8Y57uOb1s3LCRs+fP8dq213jppZf4s3//7/5/9t48uqorvdN+9j7DnTXPAiGBxCwwg8FgGzA22MbY2GBjV+wMVUl3pzN0J53vS6/VX6/Vw+pOZ1hJJel0UpV0Ja4qu1zloTxP2MaAzWgGY5t5EKOYBELDHc85e39/nKsriRkDljD3WUsLSZx7tM+55+797nf4vfz8l6+w5LEl/OoTT9Mwzle7N6P2JRelonAYKaXveQzGkNLMtjoSIAQJwEL4Zkr2NG1HTrHxi89ZsXolnyxfwfHW49TUlPP4/EXcM28ut00YR3FJDaFICMu0OHXiFG++8DI/f/ttJk+dy9O/+Qz1Q2o4zDG8bPy3qyt9jjbVxYnUFjGn7H6kKbHtb3kjXVNAaYBgKESXl6BLOATPzc7Nc0MxbYvSilpmFlUwpqmZ2XNn8eprr7L8g2V8tn4tD8ydz8OPPsaEKROJBoNIy0Cb/nMtpYElru/7ZRpmv9omL+EiTas3bC4EZ46eZNnaT3jp5bfY/PFqiqrDfOeZ7/LA/Q8yauIYItFIv5DW5biV+x8OJIGiCNqWOK4f1TCuwiskwO+9ek4Y0ACMnjzsc6KLF+vi4KcCWOev+kL4BVkXCjUKLvB/vmF2Ie+WcQ15kLFAFNu0/d6dOU9l/pkdlEaaEfZ7j7lxJ9d8tQfX6ear3Tt58aVXee/1t5FC8tjDD7NgwQLGjxtHtKCAQCBwTQ/LDUX4O5WwGSYcDlNcUsLwhuHMmTOHN998kzfffJMf/OMP+HLbl/zOH/0e99wx+7INc83stVrBGEL0qIL3Xn8Q/8PelUpxsKWFTz79lE9WrOKrL7/ATXYyavRoFi16jDtvn07j2EYKCgsIBYO5D/vJtjae+8XPefGVXzBmeAN/9FvfY8Ko8RhS5ioQ0WA79mXlN+L4woSmZRC5UjHhmx0BntSkkymiZpCwTOHXQ+b5JhHSIBA0qBxSxQNlDzB2/ETWLP+UV17/Kc+98i98unENix57lAfmPciwhoY+ciHiijYe14IMGtn1SNDWcZpNn3/OW6+8yfqVH4OQLHz8AR5etJDJt02ioLCwnydZuwov7V33vop5rg+ZziROd4qAsLE8A5VRt3T47mIoT+FknP5SJnkGp5HWY5QYQbPf7q8zleLzNVv42QvPsfazDQypr+fRxx9n7t13M6S6up9g5mBDpT207nHf9mKaJkVFRUSjUcoqKpg08w7eeeMNXvmnN2g5+Ef8u9/7dzy0eDGl0csbNAlpEqS/+IiXcDkVP83+A7v5eNUq1q1ez549LRgBg+bJzdw54w6m3347w+saKYjGsIP9QyIdHR18svxD3nnxpwRCAb73vd9gyqypBKzAeb0epb70QpZJdhCwwxjnKuZ+23E1VrtLIBgg7qZ8cdyBHtMtguMmSRsWQWEiki7C9NXcI+EIIxuGU7O0gvFTR7P84+V89O5yfvIP/8iWlauZ/+ijTJ8+nZq6OgpukLZbX4QUdKVSfPHVV3z01nt89MkyTpw6SfPoCSx4+GHuvPNO6mpqcoK0/V5rSIxg3uMwWLGiQYyQjRN3UK66fGj6FsUw/J7IfXXS0vgOhls5UD8ojbQ4fuqUNPobaJ+uXcv//cd/4tDhfdw7/14effhRmidMoCAWQzjal0IYRDsUlfZLiWXAQFiyn48p7bpkXDe3WzdNk8qKCmYXFdI0ZBgjiofzTz//IX/+53+OqzyeWboIO3xh9fEegpBLWO1IJmk9dIidu3az9uP3WbthPd0pl4qiYh6Zfz8zZ01n9OgxlFfWEotGsc3zDad4Z5y1K9bwL889y1ndyTPP/D7z5s/P9UQUCkKnskmiAsxiLpk+YNphRLYXYA9dqRS2aRIwB+Wj+LXQrkJlVK/GjyFwIwaZdIawESKsBu9m4tuCk+rAsCMYhk1QZPNEbaPf82lISWFhAZObp1BfWc/U0VN574N3+WT1avb+3d+wZe0k7p67gJlTp1NdX3PDxtrj4X7vw3dZ8c57HDl4lNqRI/jOwie5e+Zd1IyupyAWOy86oF3lt5YLmbmNrfY0XsrNe9UGERnp4koPbQTRZjAfdu6Dl/BDwMKUdGfiOMrp57WWKc/XDf66+cDfAgblyhgAXDeJZdgIYeAlXHZt38qLz/+Ew7v38eC8+Sz9zhM0jR6Z21lqS19cTZMLLJxXQXs8TkSZWJFL54adizBlb/XPOa8zpcwlR/YghSAcCDK8oYGnv/skQyvK+G8/+jO+/5d/RTgW5aklT+SOPROPUxwO93ugDSB1tJMvWnew5csvWbPqU1q2b8f1HMqH1fPQlBnMnD6NhpHDKS0rIRQMXTR/IZFOsHXnVl575w32HznO408+zYKFCyks7C3iF1JjF/Z60xKpDJcS7pJZD5qXcJG2RJiSoHW+XMDNjjBErl0PAJ7GSCgs2yLppUgKl+uTgp7nYhhW2K+wFLK30u4iaQOWaVFRVclds++icWQT02fM5P1V77H2861s+HIXn02bwQMLHmTM5LFUFl9YkPrrsn//fjatWMM7Hy3jyz3bKY4VsPjRx7ln/jzGjR1LUVHh+fIuPchznjP8eeZqcp7y3Hg8FEFDEQikiatuEpkMYftW9g31Im0jt8EIWUFMaeIpD5Xye1ublrzkxv9WYFAaaSagDIue1htHThzltVdfY+e2HcyadSdLnljCqDGj++VlXNZ4yk5oWrm4mQRW8PJyFgCff/45a9evJ2QGWDDjXsoaa86bNL2ki7Sk78o2/HAK9IZtM/jVYrYm5+kzpORiU6k0JGU1Fdz36AOciXTz/f/vv/GDP32WO8ZOpX5MA+CrjvckVZ5NJEgcOcXmfTvYtGE9W7ZuYf+hwxSEI0y4/TYmTJnEhOZJDK+tp6Sk5LyQ5rlkXJe92w/w2rO/ZN3WNdw7ey5PLH6K+trafscprTnlJXI/27EQV/KJkrb0+64A1rdMF0dpF6VcTLNPWEoKVMhvOh40LGyZpicnze3OYEbzE/b1Rl5lSF1IQSgSpn54PWWVZYwbOYo1K9fy9uqPWLbiIzZu/4LZ8+5iwZz7GV81kkCNP39orXBSndihItC+5I0Ztci48Ww16PmfB8dLcupQG5t2bGPV+2+wbv1mPGEw++7ZzJs3j+axzZRXlGFfomK5Z8znnV/QL4c3z8Aju1ycuML1bGwZwh4EUYMU/qZ+IPytHckk0UAApdOYhp1b54XulbIRVlYaK7tOeMqP2Bjy1psrB/5puQhS+EPrSqXY+PlmVq5eS11NPYsWLWL0eN9AU2nPN74siaccQF/wTVSeg3LTmIGonxdm9k5+Wmm85MXDA6LLIZlK8+nWTxk+ZBjTG8oJnGNeScs3OqQpSUtx3sNv4BteV7MhEFIQqyjiofsXsufQDn7w33/Ms88/y3/6r3+MbUYIWhZnEwmOHTzIli++YOMna9jZspdjJ4/RUFDJgnvuY+L022luHktVZSWF0QKsC4Q0z7tXyqX18CHeeuNNPlqzivHjxvKdhx5jZEPD+ZOLkAirT+P67iu8tm/xIiKQyHP70kkgZGAZFk6nS0b3qVq+hd34gxEhBbFYjDFjx1FdVcvYSeNZ/fFKVmxcwxsvvcbOzTu4a/rdzL3/HqqGDqUwGMSwslr3gpxny5+H/OInM2zmNlQn2k+yfcdOVn28go9XrSbZfpox40cza+58Ztw+nfq6OkKhfFvpbxM6IJGhIFggdBzhZUAObHW3CQzULBy0LL+fNb2OGPCllTzPQymFEg4aD5E1UYQw0BmFYnClNH0TDEojzUl3YVphhDRob21jw5p1uNphxtwZjBo3OhfiFIbITX6XktkQQiINGw/odl3Otp0g3t6NNCRF5cVURMvwPI/Dew7RGj/OkGgNsSFlFEUiDB/ThF1qsW//LjKui+qRm0ilSBw/w5H0caJEGFozlHAsjMgkOHOqg3g8QUY5KKWIFhZSXlGBaVkoR4HSF33QtFa4KoNl+GK7FSUVLF3wNK//+B3e+/B9fv3pZyiqq2HXts1s2bCV9Rs3cvToUbq7u6lvamLW9LuZPO12Ro5upLS8jHAodMlKV5XJ5s1ljYVjJ07y+ttv8+HKZdSNrOPXlv46t02ddMGcMa01juN3bYvH4+zcv49O4ggBESNMwktekcJ2QAZQ2sPRLgFpo9A4ysGWFiDIZHdRpjAxhUFKpS95PoEkbARJeEnCRoh4H2/f1Yyr//gUjnYue6w/RhNH++PPKAfpCPZs2cOZri6sgIkletueKEflDbVBiLQNSqpKmVZ8OyPq65l85zTef/991m/YwHOHnufzbVuYN+9+7rhtKrGaMgrN3tcBGLK3RRgIjref4NDhQ3y68lNWf7KG4yeOUVZVw5P3PszMe+6gblQjBdGCwVuVnudrIzIaL+1iCo1tWRdNMfkmGciFP7eWiP6jUErl+kALYfRb06Uw0KbsbfdzCzEojTQprZzx1XrqCNt3bae2soox48cT7aO639cjI8XFH3whDYQ0SDppDhxu4fM1m0gc6sQYEmLUmBGUTyrjwM4Wlq/8mGMdx6mIFTH1rruZPGECsbIihsWrCRQXkdFurjy4vbWNjevXceTQUbTU3DZ1EpOmTCIaCfLZls1s2rSZcCxChDBlFWVMnjWFxroG3317KZeaEP2uxZQmo4aNZP6CBTz37LM8/8LPCRZHWbt6JSdbT2JYFuMnjmF641RGTZ9IXe1QCivLCFhmbqek0p7vOjZlP+8jZA3d7HPf3t7OqpWreP/ttwjZikWPPcyMWTMJF/XKRWjl4TqJrCK1JuMkUUpx5MgRnv2H/41VWkjC6TVQtIawZZLyPAKGQcbzsAwDx/OwpMRViqCrkZZBEo3WAtvzkBI8w8JRCuFmCAiJsm0cT6O9DEGtce0AjvIICgsVFxhWHBUMknZcCj3IaAfHDmOl4+hIJDcuK51Ah0IkXZegaaLjFpI4ImSR1ApLGoiUifRSiJDAkxYZz0VmDCzlIYOKjDR8AV/XgrSHDGRwLQvH00ghQblEtSBtmziOov3EaVRXJ1bQJtCncEB+i72K3wasgE1VXS3FlWUMGzqMqbdN4eP1K9n5xQ4O7G/hs+bbmDF/LtNun0gkVEjhOV6wLi/DiYNH+GTtJ6xcuZJ9u/ZSbkdZcNd87pw/h4lNYyksKz4/hUL5G4IeYy/PzYu2BB4eZ9rOsGHj59hRv/m48LzenoM9/Sql9L+yjdoRAkwTeioehUCbJqJPBaS2rNzP2rIQrttrzJimf+5zjBsjEMh1cfEcP1lfa43KnkdmvV1eVvn/guMyjN6frwbLAtfFDATwMhm0lKAUrUeOcOTIEUpLSyED2gVhgeekcAQYZhDrFkxQG5RGmmH1uoLbOs9y9uRJmsdOpLa0ioDdP0/Dc1N+mx7z0vkb2tN0nDrLl5u3cvroSabUN+MODVFJjHiqk01fbeXIyaNMmT6d/Xu/YPPbaxk3agShUJTTwRReIoGhe0OWO3bvZOfhFsYNGcaxs6fZsOkzKqsrGT16NEePtdJysIU775rBsJphaDwkfoK9n6d2iQdNAWnRp4s2WOEAoyeMpqOjg395/lmaxo0kHC7k7jlzuH3CVEY2N9JQPoxQSezCoUTZx+PYx/uYyn4gg5ZFd0c3n674lJdfeolUKs1jixcxb+48YsXn5O4JkQvnKU9x5vhp2tvbKS8vp6CsjFBxMRHPI2Rp0p0udsxEJCFtQCxjkLAUIVeSMjUohSdBojA8KLYlrqvAUxhCIiyJp/2CDzNgIpSBzng4AY3lZXshBkAnBCpiIs0CPNPk1OnTrFu7Bi9uMW3R3RQXFiI8A8og3eFixQqRSkJEQBK8kI2QMYRtYCQ0KiDxYiZCpxFaIwIC11GY2vSNR8/1y+gFqLSBFiAtLze+VBCk1tieIqoNnADUVJcxaeI4bp82Hal7Q/KpgJEvIrgJCAQCNDY1UlNdw+jxo9m6ahPLNn/C6s/Xsm3vLrZNncbts+9i9ojbCNQW0JFM0n3sDB9v+IQ1q1axZ88ebNtmxh0zmH/XHMY2T6BySDVWoL8R5jnJ7KbS98DlufnRAUk4GiOZzPDesmVs/eIL/z+UwvE8FBAQAlcpPCBgWXiui+N5fhtEKVGuS9p1CVkW2jBIplKEs4Vnca0JZ7sRJLQmlP0+6brYto3jOFhS5jbGhpSkHQc3K6FkK4WwLLAstOuiAcM00YCpdf9xOQ6OUgQtC08IMpkMIdNEa03KdQlaFknHIWxZJPr8G7J88yrpOAQCAaTWZLLnl4ZBKpMBz+PUqVPU1tVhBgO5fDQhJcZlFTi/vQxKI60vVleQTCaDZwmCdiAn3KoyHkL2tDe6/Nun8eiKd3DsyAmqiku444GZuCGJlfSIeyn2HdpPcXk5c2bPBi/Fp2+spiOZIhiM4kVsnKSDjZVzwR4+dhjpwfjbJ1BzpovX3nid9vZ2/48pxbChQ5l++zSGNw0nnUoTClx5DsK5RRBSCIoiUYQQ1NTU8OCiBUwaO5W6mhpqy6uxQvYlb4Hso8vT3/vovyieSrDx8428+PLLtBw5wqMPL+KhBx+jtvJ82QEhZC4Hx/M8Dh44woGjR3nggQf43ne/mwtFB0xw4h5WWOIkFdqU2BmBY4PlgGuC8jwwJNoQCEdhmv6Gz8sWjBrStyddF7QlMV2QCjI2CKWRnsIISJyUQmc9EdpTtB46yv88fpLTxzr5nd/7PcoLCxEpFztq4sQ9lG0gMh52n7H1NM4OpP2xeT3C747CtATa0wgJ2pB4GXXe2AAMDwwXMtn9glAaXIUIGJgGeEpSWliEEerT0BtwUp1YwRj5RXlwI6QgUhBhwrgJDK8YRtOMZtZs+JQtKzbxwXvLWLNlEwfvvJcxd03hWFsb9Rl9QAAAIABJREFUW1euYe2mdWQyGUY1j+aee+YxdeJtNNTXY1+kuq9nPpNi0E/Nea6QwnCM2TNmERZhOlNd6D7pDp5SKMCSEoFEaIkSLgKB0AZK9HiqBFKbKJH1dGnrEt+7gM4e7+GhCcsACTdN0LCIpzpZ9emn7Ni+k3Q6TU11BVOnTWP4iJEEzADKU3jZMUr8QIvOft93XBrfp2Bm+xgrB5Rw8IQgYBgoR/g/44c4Xdc9b3xaeOjc94qgGaB+zAiqhlblCu+kYQ9Y/txgYNDPBGZQYsUiZLrjdHV1+bsBw8h5g6RxZdUeQkq/ibajcG0DJyIxTY8OM4XVLjEyGhURBHBQUiK17ClApLDdRkWCJEUapX0LwlMKT2v/WEsgjf6q5MXFxRQVFhMNxogG/XCh8jJorTDMCxtsWis87WAGAmg0npfBNAIoV9G27SRSSp5++mkWL15CeVHZFaug+7tz87yKN9s0Sbsu23ft4uXXXmXXgb3MvWcWjz/2MPV1Qy95TqU1Hd1xWnfsQyvFnTNncsfUqVc0nhuJ8hTRSIxYaRTDiTNlyChKhpVd/oUDRBBwr3CjkeebQ7sKrfQF8wWFKYlVFzOtcgoN9cOYOf4Oln+4nBWfreal13+Kue5t4l0eTrqbkQ31zJkwi4n3TKV+RBOFkeglJWcuFxHIc/MRCUaYeddMJk28DUe7uPrCIUJDGBhIMtpBIrGkSTqbjysQBKRNSqUR+HmyPbm5IRkkqVIABGWAtMqg0QSk7euOGRITE8dzMIXBmg2r2b13L5Zpk/EypJw0jUPH8tSjTzKkoRqtFC4eQoh+eWJKqX7jEkLkkv1Nw8TUfr6wmc05s5RJUqVyPUJd173A+FwUClvYeLgYGJhhi1hBviNLD4PeSBs6qpSRjY0c33uY3bt2MbxpBEUFBbmKTqEVuL6dLS+h5CyEJBYtoLa2gn1HjvDeu+9SUBgkXF3EpMpmRo9qZMu6bbz73rvsPHCQqrG1xEIhhICAcKmoKGf7ji+JFEaZOmUKDbX1nG47w/IVy0mlU5RVlFFS4ovN2tLAuWgC8MUnaAVkhOj3piitae3u5N2PX6e6uprJd0yhvKgMlfL8Jr1XtLb3hliVoxDZMn3lZti/dw+v/vI1Nm7YyMTxY3l8yWOMGtWENC+d3Kpcj5MHW9nbspshQ6tprB52JQO54WihQabRQAeaZKYbGLxGGoAZuEXaY91MXMHnypAGVWWVVNxZTt3QOqbdNY0V77/Fmm1bKbJLmfHQXObdNZvRlaMIVxYgjFvZH3BrEyuKESsaeMOjra2NPTu2ke6IM//++dTU1rBixQq27/6Cr3aOYvjYYX5OWJ5Bw6A00hKZTE7kdPjQBibeNpmtOz5n89rPmDhhEpExkSvW19KeRnt+BV1BYQG3T52CmRYcPXiI7uIiGosKCRWGmDx9Mp0Huth+7AAVgVIm3HMbAdvXObLLI0ybOJGWL3bQ2nqMTHOGic1jcLw4W7d9ScSMMm36NGpq/PDgiPrhJJwMwUj/5j+X9fppjfY8kP7OyTQCJJNpPnl7Fev2bGDhA08yrH5YvwXE9dIYxsV7ZqqMhzQCuIbAcxSyT1uS1uPHeOPNt/hw+QfUN9TxxNIljB3XfFFPX19cz6PlWCvbj+xnctNYKs/RUBsoJBDSJgEZ4GzKu4oazjx5ehGG5BK1SP2QhqS2YQjVw2poGD6c2fv3UxCMMWxcA5UlFX4hSZ48A0zScfhs40Y+Wb2a0qpyZs+dQ/Oo8RRZpfzTz/83r3/0EjX1tdx1991EgvlM2cHCoDTSlNZ+FaUQmHaYqTNm8tmWT9myeQt1K1YRLI4ypKoKKxu+c7NRvAtPhb2dCGw7QEN9I2XBUlrjp7ADNgWlhUhpUFNTx5zFczlOGzVUUFFZgcx6w8xAlOlTpzKmoQkpJJFwmFgsxB0zpzOsaThhEaa6pppQtl3ShEmTcdHECv2dk3azRQOXqeSTQED3Kvg7ToYvtm7kp3/795SGqnl64VIqi3zF8568pstKSWi/UsyTBlL73kZhSs6cOcOyDz/mrXffp6yohCefWModM2ZSEL6y3Z7rebS0HuVE6ynGPDiOirqqK3rdDUdLpAqC1hipFMZl+onmyXO9kFLS2NhIY2PjQA8lzy2OpzJIafXbvB87dozly5dz4mwXi++/j7HjxlJVUcXsWXPY37qXd1a8zTtvvkVFSRnjJk4cFKK7eQapkRY9p1H6bc3NLJ73BP/n4A957e1fEozYLJh/L1XVVUhpXtJMOXdHLG2DwroyCs8JgUlDMmT4UIZw4Vys8sIyygv7v6a0uJLS4srzji0qK0Jplx6Xl9a+SKw05CUTgoU0MG3f+5bOZPhs8yb+7m+/z5et2/jd3/1t5t5x53mvsYxLe71kwEApD5teDaeOjg4+/PBDXn7xRQJS8itLnuTeO+dSEM6qqHvaz8e5SPjYUx6n209xfNt2QpEIdRNGUTBYBDiFf80aSDgOrlSXfUmePNcDV2Uwb0FF9DyDD60VaI2nXaQwUF6G9es+Zf2G9YxpamLmtDsoLiwGoLapkkULF3Hg8GHWrllPVXkVpdWV1NUMGeCryAMDJzp8WVTGQyvf/IoEAsyaPYelix5HJdP88hcv8dYbr7O/ZS9pJ43FpdtbaK1Q6ur1XDJXeXzadXNlzVorlJvG8Ry0JRGWyGmsXQqlNe1dXaxet46//Kvvs/zDVSxevJh//W/+FYFa34hKZDJXFcYzpZ3TXkukk6zduI7nfv4zTp4+zcKFC7jv/rkUFhfmPH6+VXnxv+C5LkcPHGLHnu3U1dUwbNjg+TALKTBDJrb0i7Ytb+CFI/PcCmi07iNSnPYucWyePDcW0wgihMw9kwcOHuC9t98knUxy1+zZjB89nnCgd2M9pqGRJQ8spLiilA9XLmP9quV0dHQM1PDz9GHQGmna698wvaymnCVLlrD0sSdIZJL89PkX+Mnzz7Hh889oaz+D4/VOilq5KK+P2B8alX1YtdZ4FzLYdK/6fg9+ofCV42ZbWoDfFkYg8LSHhy9KaUjL91K553t3lNZ0JRLsb9nPL998jf/z13/NxjVreXLxUv7gD/6AqspeQyjTV6zwHDzlXDQEmkwn+fKrrbz+y5c5cuQw9947jwcfeIDyshK00v49xw/L9nRE0Er7XRL6/g3Xo+3oSXYdPkRdwzBqqquv4i59AwiBKQVKaNpDyYEeTZ5bAoFlZKVpVAblqqubPPLkuQ70tEfswTSCxNNJ3v1wBTs+386k5glMnTaNgsLCfq8zi4LMmHUXjz30KKl4kl++8hqfbdpIMp2fPweaQRnuBPppSfVQVlvOkscfJ1Ic5Y1XX2HZu++z90AL98yayx1T76CubijhSASpPbTycpITUhhgGLiAgUJpF+MCl35ui55gxkOcU4KvlOuLTV4gUT9yTpjWsEK5Lp9auXhao5WBoXSuI4anFOl0hva2M3y+cxurPvyA5R+9R1BbPP1rT/N73/1dhjT1D8EWhc9P6vSUi5QGSrtI7UuUaFeB9JvUKs9hT8teXnrxF2z9ZBMzp9/Bk4uX0DR8FNK6hLdJZ43KntCnhmQyxbbj+3HTSZpHNVNVcH7Id0DR2u9UoEEk8x6NPN8snnKwzykaypPnm0ApBynMHoUqlKPYvnsnH3ywDDMS4e5Zc2gcWnfBfLOisiLueeA+9h46wIoPP+SNd96irKaScU1jcoV6WmtfnD2v4/eNcdPd6fLachY8+hDVw+t47813WLd6NT/d+SO+WL+JGXNmM655PDVVFUTDMQxP5creNeAApjD8B06DclU278r3tJkRC085uVYsKqN8A6aPPeZpB1P7SqZKuwiMS+qV9XinlHJxUEjLwgIczyWRiNN++iw7t+9m85bP2bhpLQf27WN0fQMLlj7B3Afupab0yrxU/odTYhmhrDGaNTqzzd9Pth7lw7feZeXqtQxrHM2jT3yHMRPHX9pAw8/pM0K9DlfP8zh96jT79uxjeGUZDfUjLtqcfqAQQmBLicZBxi9spClH+S2Z8nUFea4ztpk30PIMDJYZRrlphGGDEHS1dbLyvY/Yu3c/989+gDumzKAgVnDR19fV1bH4oYWcPniE9Ws3Ut/QSHlxBTWlZQhTolF4ykUYBlrnjbVvgpvyDpcWlHDfXbMZXT+Cj8aP54MPP2DD5o18tX07TeNGMea2cUwcM4Hh1Q0UlhUQCAWxTJtQH9kOrbUvT2FJNOCqNLY08FQGQ1oo5WJGzzc+ekIaQNagEwgubujkKjsDQayMR6YjzvFUN60nj7Fj1w52b97Ols82s6P9OGNqa3j6N36DhQsWMGrUqKu6J5bZO64MEKDXG9nZ2clb76/g9RdfpbywgiefXsq0Gc2ErMsbVz2q0j1X6HgOh08eYvu2L6ksq2V845jcsTmjcIDRgCsFJinc6IUf8Vw/0ysUBM6TJ0+emwHXSWJJEyEMduzawapl71JRXMjcmfOoqh1ySZWBkGUxfmozDy55mGM/+GdWvP8+o2qHUXjXbKJlMfzVzvCF15WDNG5KE+Km4qa+w0OGDOHxpUuZNH0qm9auZfWKT9i8fgvr122krnEY40aNZUzTCGqGNVBdVklFeRmRUBhhS0zTwgxnm4wjcrvfnn8dlSIgI1zK1dLXYOuLq1QuN83zXFKpBGdPJ2g/eobj+1r48tAutm3bxv69LZzt7KRh5FD+zfzHuXP23YwZP/m8cKbL5d8oD8BzMKRJuI/hEY/HWbVqFT9+9UUyIZtnlj7M7LtnUhAruswZe8+bgVx/SZXx6Dh4mvbjZ5g0bhJlw3tbR3lJF2kNfHWbEIJIOEI4ZeO1ZWDk+cdcyADPkydPnpsdO+TP7V1dXSxb9QF72k7z+MNLGH9HPaHC/g4FnZV86ml3qLUiFopy9513cujgQX7x8iu88sor1FbUMKZ4IhYKz0liBQuQF1n/8lxfbiojTWsFQiAQ/So/J4wcQ2P9CO68ew671n3FZ+s2sGbPZ3y07B02r4wRDFcyvLqYmrGjGDmsgVBllPKSSooKw0RChZimJGAGMHQAAtmiAjOEl3BRtkCf423xACujcIWHFhrt+tWQrvJwPYcz3d10xhOkkkm6jp2i9UgLuw+1sHPPXk61nYR4Gul5jBwxgVmzZzNm3mgmDx2LFTzHDa39nLWUIbmcJn0KMDJxZCCKyLqg006GdZ+t45+f/Re6jh3nV3/lGR5euJCKioorvt+GVoSzDdW11nQkutm0fweWbTFy1EhK+uTeWAUDb6CBP86ueDedgXxlZ548eW49HM9j7bp1fPDBBwyrH8Ijs+YxpHzoeeFJTzl+eyftp/Uo7aG1pqK8hPn338u+o61sWvEp77z3LoFh1TRVV/rrlPaLynr6a+a5cdxURpqr0khh+uHInnBVNrE/bNuMHD6ckcOHM2vRHBYd2sfenbv5ctNWtmzdyqa9x1i/60tMw8C2LYZWVlNcN5SykkLCsRA1RTUUeFXIhjSmMDAKKqg+5ZKsCORKYLXpK1PEEcSOJ+g0ukgaDs6pFG7cpSPVwdn4ado6Omk7cZrDBw/QcbIVU5p0CwsPxbimJmbMmMb4UWMYWjuC4iEVFF5EY0xrjU64RGOXN34iAKGiXFWsyrhs37ONn770M77au5tHH36ERx56mIrSKzPQIFvs4CSxgn4lkON5HD11kv27dhEOhWkaPThFO6WUFBcX4+nugR5Knjx58nzjHDl1knfef4/Ori4WPPooZbc1Qdju5+gAMA2/2M3NxAFfPB4AA5pGN7N00aOc3H+A15e9Te2QGoofX0RVSQlaKbykd8GIhNJeTvIpz7VzUxlpfcOLF6r+7KEwUsCUMZO4rWkM8+fczbEzHRw/fIKWQ4fYt2cXB44epPN0nOObN6ISHZxKKrTjUBoCUVlFoRUjapnYBQUoT1GYEqA0qUJwPAFCcLbjLJ7rkXCTdHfFSZ7tRnkKaZlEIhHCoRDR4hijJ0+haUgjw8c3U9VYy9DyMopjJcSCl2+9JKTAvAIDTXu9Oxov6SKDgpO7j/DTH/yYtSvXc8/suTzz+GMMbxx62UKBvkjD7tfKyvMc2k610rJ/P0OraxlTPuKi4xhopDTwug08feHCgcE01jx58uS5GrRWuRDluT+rtMu6NSt56733aB41mvvuu48hJSWYgKPSSGFhyP7rZ4+Iel9ClsXk8RN59OHH+Kcf/wPvvPsyw0Y1UHLHTOyAjRntn9vWYwA6boKANfB9Sr8t3FRG2tVimEGKi2soLq5h7Ag/wd3xPNpOt9PRcpTDXadobWujo6OD062tuJ5H27GTeFLRkewgnjhL18lOTtk26UwG3aYJ2AHsggDCEhRECygXZcjmImp0kEgoTKy2kqLyQmqLqqitqqW8ppzwBSQzridu3MGMWr5RF7U403GSny17ifdWr2DypIn8q0eeZGz9eAzr8oZhDu178oQUuZ+9pEvHgTN0d3czsnE4sRE1/V7idmWwigIXONkN5pyxSimJRCIEImE6vQt70/reszx58uS5WdCeIqPiBKwYnlIYUpJx49hWFIGgbWcry157l5CSLFq4kJH19djZormL5VFfjMKyIuYsuIdd7Yd47qVXCT//E0rDxYyd0owhZc441FqRcf0x2cblknPyXA3faiPtQliGQXVFGdUVZYzu83ulNac6Ogm3pmgt6MRsTZO+hBilBegyi1Ivhi4MES2JErxQtaTOft1AW6BvLlg6k+aFl97gZz/6Fyqry1j6zFJGzZqIGTrHQOu5touMS7kKlfFy8hraU7Qda+Pj9SsJhEKMmz6dslj/3dKAGGjZsXlJN+d1VEqR7O6mIJPBsC/siRws+XN58uTJc6VopXG7HQKFMTTQ1t1NRUFBznPlei6vbv6IjzZ+yOLmx7jn7ruIFVyb0VRTXs7S+fdzbP8x1q5dxZtNb1LcUEtNaTGOm8Q2IggpCVgxtNZkujIECgdmLfg2cssZaRdDCkFlUSEUFTKKSrhOnY68lAsCjOCNv9Wu6/L2h+/w9z/4e+xgiH/7q7/LfdPuIRY690Oqs+MSFx2XtGROnkQAGIKMzHDw4EGCwQCNtRfucToQCFP2CwtLKQnHYpwJBDiaudrmXnny5MkzOBFSYGUNIAFUFvQpNtOaHQd28eLPnqc6NoSZS2ZRWlV9zflhhhVkbEMzv/3gE5w5fIifPP8y5RVD+O7Tz2DLCG63k9v0ajSpwgB5E+36MfCiVt8UA9SixQiZGEHjhg9AKcW6dev4i//xF2Q6uviPv/dHPPjoAmLF5wsXOl4KbavLGo4OEM8OO9EVZ9vGr2g708bwkcMZW9xwA67i+qCUoqurCwlUqHyD9Tx58nz7SZ9J8cYLr7Ftz15mzZ/PnLlziUZ7NujXtv6YBUFG3TWZpYu/Q5Ep+eAXz7Hhsw1oobEKbD9gpBWZeBuFlz1bnqvhljDSVEbhdg+cR8VNx3HSN67SUKNp2bSDv/hff8aulhZ+9bd/g3seuY9Y0YWTNy0jlKvquRSGowhm71vCSbL79D48x2PiuNtI1FxFfts3jJSSgoIClNYc7z450MPJkydPnhvO7l27+eUvf8nIMfU8cvssCkO9xQDpRDvKTV/T+QtKCpiz8B4efOxxNmw4xj/86Ifs3rITD+jE11oLRq9cPSDPlXFLGGnS7g2HaVfhdF69wdaBr7z/dTADUazAjat22Xt0P//5H/+E5Z+u5Ld+8zf5rad/k8qy8z8sbtxBpa+8l6W0eu9bV0cXX274AmEImiY0UVFwrodOk+w8xkC4LC/0nkohKAmFKLbO39ed6OzEy3vY8uTJcxOi0aQyHf1+d7yjgx89+/e0HGtl8UMPMXHO7QQivUUCgXAJ0rz2IGR1RTXPPPUkcx65g5WrVvP6ilc53dWV957dQG4JI60vwpRYVyBrcS4FDIabpUl2HaevIZRyOnn3r15n+Ssf8MSSx/mtX1lMZVnJBV9tRizk1xB4VV6GjtMnOd7azfDiGE1Fwy9wlCAUq2IgmmGe+54KKQnEYtB+ho6uE+cdXxGLYciBfzfz5MmT52oRCIJ2/03yni++4P1PVjGmuZHZ8xYSjtw4p8CwuiH8/r/5NRrr6vnRP7/AilfeBvyiBues763TwLGOjoHKMvpWcWuuVD2qEp7OeWA0mpTT2e+wDnrNoYzTlWuhcS4ZN4GnnNzPTqoTN5O44LEq7eEl/GNVxsPt9r/XrsLtupyHT2Tdyf4FnOzs5Ec/fYk//dlfMn5SM9/7nd9hWON4DPP6VC56yiHjxunsSvDF9l3EkycpGzUes+kiVRUD2Qezz5/WSpHq6qI9GEQFzt895vt15smT52ZEK43TkabvhHe8o4O/+uHfEI/H+a1f+R5NQ+owjRsnJmtaAYY3NfP00scpESle+OXP2b155wWLGvIz7bVzyxlpynPIJM4AIAyRU0wWCAJm/92H7XTSY6bZZrSfeGBfLDPUTxzQDMQwLd/VnMp+9SBtAyPk/01pGZgR/3XClJfuJ6nBOZvuN4a1G1byl3/z3ykqLeAPf+PfMmnkaOys5ITb7aCcawvpGdLCMsMkUil2trRwsquTcc3N1BrO5V/8DaG0S8aN9/udkJJAQQGFVgj7QN4RnydPnm8H5wqcpzIdbPjZRr5a/wV3Tp7C7XfeRfAKhNKvlaLiYuYvWMjdi5aybuvn/J8f/wP7jrX02yzL/Gb4unDLGGnKUbjdDtIwsUK9zcX7ipme62EJmtFc+4ye/0u73SjtcSYeJ+P6fT6TCBKpTjw31Xts9vhA9qv3j9D7IGd7pWXcRM8ALn4BAsw+2l7r16/nT/7z/0B1wX/5o//CrAX3EY5Fcqc2wibSvPa313E9Thw7SfvO3RSXacY2jSQUKb7m814vpDAuKNAohEAYGre8bQBGlSdPnjw3hp41S2vNwZMneHblD1DaY9GTS2morc150dyujN8mEGhPJHLr1dXiKQfHTfrnBOL482tFZSVLHnucByZM441ly1i2bCWnurqu+fry9OeW0UmTpsy2ARL9jDEFdGuNne7CPZgmUaLpdPwHzT2WocPpRKM5nTiDSiXpSnpoLfGUwky4CE/jhS0wIRSxsWyTWCBKSaCIgLSRBSYyahBJBwhZYTIFJiHbzrWFktLAEle28+n5cO5t3c+f/MmfsHN/C//Pf/z33LvwPmIlhf2uS0jB2USCkG0TML/+2+y4GVrPnODAmQz1ZaOoilUgBlVfNnGecS0RxJRNRypNp3PhQol0/DR2qAghB9O15MmTJ8+VoZRi7VurWbV6LUsffoS7Z04iFOx1CRgRKzc3FgSDX9uzZUgzp7VmAD1bYtuyGDdmJI/97tNs/7M/5cc//CFDh1Ywb/o0ApGya7m0PH24ZYw0BHhCkEw6eEfPcMLq5MyxNtri7Zw9m+TMqZN0Hj1Fy7FO4vEjpNMpus504mqPTCbjG3haU2hqOh2ImhDPaDDA04JAIISnPDzPxZAGSWlgIikOBYiVFVAULaSqpIqyIdUUlRVTW1VBSbCYaCRCpCxKRaQ8p+5/MbTW7DvWwt/++V/z1erVPPX00/z6U79GSWlJ7sPYnkgQDQSwDIPYNXwwe0jFkxzcs48zZ49y+x3zKKmvvqbz3Si0p/2uA9mQsYkgYtuE+7gxnc6MX2AgwA4VIvLFA3ny5LkJUZ5i16YdPPfi89SFDR6d9wjllcOQfTadQgoybgLTCGBcw2bUQZBxNUHHwQhbaO2R8dLYZphoOMKM22fyzOKneP6Hf8dLP/wFI4vqGTk5b6RdL77VRprnpkmmEnR2u5w6dJh9J1o4fLSNs0dOcqD1BGePfsWRjgTxVJq6giAJEcSMhYhKG6UU1UNqKOyO4pVr7KICCghgxWw8ITAkeBpCAcg4oBOKhJMmrV28VAqnvZu0k6HbTZHqTHKkq5t9B/aT+SRDJh7Hcx0ilRU0jWigoqScYXX1FJSV0lhfR8XQKgoiJRRH+ja91STTnbz9N6/zwvMvMHf2bL73ve9RXVmN7GNsxAIBvEwXyo5gGJc2+q6EZDzJ4b2H6EwnqK2vp7R4cOZ4CSkwQr2PswYSmQyptt5iDDNs5kLNQn6rH/08efJ8S9Ba4XhJbNNfDzSaePosb63+iE3bv+JXnlrK7bOmYwXOj8iYRgB5kVzqK8UEpCmQ2TlTComV1dkUQlBSUMLCuQ9xdPchnn/rNUa9M4rv1IRpqKrvd54z8TiFoVC+sv4quelWKjfdjTAsjKzmi5tJIITAyCbqJx2Hs90dtLed4sD+g+zYtZOWPfs5eugQbe1txBMpgnaA6qpaiqvrGNpcTnlplKFltUQCRQSGRCiOVRATaaJFVVieCQGBMH3PmDBlv7JiQ4LWWU+OUigB2vPAcVFKk0x3kWrrpuN0nDPJLs7E2zl6upX2U2c5e+Y0Hafa2LtvL++9+x7BcJgh1TVUllYyfHQjo4aOYPToMRQMq8R1Hd568w3+6tnvM3bMWH73j/+Y5tGjMc8JZZqGgbQj1yWMl3FdWk+e4NjBvTRVFDO6sRHrBlYNXROCbDg7+6PQ2LEUbqD3/ojrkKOXJ0+ePDcax/NIZDIUhkIIITCNXgPMcz0+3/wVr7z0C0aMquexpxZTUFRwwar1a20JBf6+1hDCj3Vmf9M35cUwDaobarl3yYPsbD3Aj3/xAg1DG4gtLqM0FkUAmcQZonYsX0zwNbjpjDRpBftVOPpyE4Kz8Q5ajx5l/54WPt++lZY9O2g7fIxTXSnCls3QqmrGjx5PeVU5ZcVllNaVM7S4lnBpjFDAwraDWMJEBCWmGcDCuy7if1p5qIyLk/FwlYejHJJOGifj0tXVxYkzpzjVdpxT+9o41dLOocQ+vtz7FZ99voGSwgi1xSVUNY2lwory96/9nLLSMv7gP/0Hpk6cSCgQyBUKuHEHI2QipED28aB5SRdpya9loGQyKY6nXOtsAAAgAElEQVQebeHA8VOMaBhDbbT0mu/HN4GUglCpjeWG6U4nB3o4efLkyXNVGFIStnsKxUTO2FJac7K9ndWvLWNPSwu//+9/n2nNk5HGAG5ABQRCQabcNoVnHnuK//XDv+BHz/5fCoaV8OCseQgpMQNRpGHixl2MkElHKkk0GMTMe9Uuy01npGWkiUnvwM8ed9i7czebdq5lw+bPONhyAFe4FJeX0DBuPHcNG8KohiYaKoZRVFlKKBzCtmyMoEnYDF7CeLk+t0ZIAyNo0GcjRE9tpKcUI9wROE4aZ6ZLvCNOW0crJ3cf5+Cpoxw8s58v97ew7aMPOdN+lH0tJ1hw7/2Uxkow0iAC5MJ30jYQQuAlXGTAIGUIbPyuAcivt3vpjnezY/9eTnWeZcG4Rirrb46WHxrIYCA8k6CT37nlyZPn5kIKgbxA1CLjZFi7cQ3Pv/M6d068jUWPLiYWjuVUCAYKIQTFBUXMunc2207s5Cf/8Cy/ePEFxpc0MHR8I9LwDc6edSps23mv2hVy0xlpJr5uSHtXO9t27GL18rWsXbOWk6dbKSkuYuTYUYweN5rmkc1UV9VQXFFIQaSAkHUpg+ybR7sKXEUoGCBkByACJRXF1DqVeI0ucSdFe+Is+9pOs//TTWzc9zlDtmxj/6H9/O33/4bJEydz7/x7GT9mBOFYiW+MAcKSCAkWWbWPr3nN2lV0nOrk4OFD2DGXocOHEi0aPNIbl0SAbYJlmnTHO8m48Vw+B/heRz8/LT9J5MmT5+ZAac2J02d4/813aO/u4A+X/DvGjhiRC3MO9LwmpKC0opSn7n+CM7tP8fIHbzG2qI7v/r9/SEVREUKI3DplX4PiwK3GTXen0uk0B1r2sHz5R3zw8SraTrdRVVXF/bfNZ9qkSTSMa6KkpISiaBGWaQ4qw6wfUuR0zJT2UMrBNIIYlo1RZGMTpogSaofWM2XocOZ03Mv+lhY2bdjAli1b+JcXnuOj1at47KH7uX/mUoaMKSIYCiEtieulMKR1TVIZXsql7UArRw8eoalyJE1DRuQSRwcjWitclcYyQgjANHxPpWsbGLJ/AYU/UeQNtDx58gw+lOeg3DRmIJr7nVaa7tNdfPL+x6xc+SnzJ8/g3gfmErR657aBmNe00qiUhxH21wbDMBg+YjgPf2cR23d/yYsvvEdj8208smRhTmg9z9UxeFfdLF7KRVoGwhCc6Wpn86p1vPzGa2zauoXyonIWz17AHXfPpL6xgbKSEoLR8Nf7QxrchHNZGYxrRSkXjcKQdi4MKRAIcf5bIYCAlAQqSimuKGVoXR23NTezd9cXrP5kK299+A7/+NP/y84N23jo1x9j1p1ziIQiWeMsu7vKxJGG3S9P7UpIZ9IcPnqEY0dbmTFxGvXFg1N6I4cQyJ57KATatPA8D+26/r3ug7QHafFDnjx5bigZz8NxXSLZdnGuUiQzmZxupdKa7lSKgpBfiKaBjkSConDvuuKkOjEDfgearlSKsG1fsmLRc5IIIZFmgJTjd2vpa1xlXBdXqVwOmhAScc587SqPluMHePPN1/Acl8eXPMmQ2qH9jhmIeU0IEGZ/w9AMWkyePJl//dvf43/+17/l2R//M8VDi7l7+p3Y1oUNtb7rVCKTwZRyUHjbutNpAqZ52YK5lOOggZB1/e2Hgb8Ll0FICQJOH2vjjY/e4tWfvUjr8ZNMmTyVRxYs5PbJUyitLMu1WrpqtMZLeRjB66PQfzGUo/wyUEsgdP+/I4TEuEyZtADCgQDh6mrKSwsZN3oKoyaN5c33XmfNqk/Z+f3DxNuS3Hv/HIqKSnLFFUKaF21n1XfCSLsuSilC2YnibKKLPccOYQiT4eNGUVTtN23XSqPSXj+5i8GAQPR6zJTAPBvFNE28zPn9UB0viWkEBzyPI0+ePN8sUoh+fS0F9FuAfS/8xf8fQBpWbu4wDeOyvYCFNCA7B0spz5t1pBD9jDwhjfN0zRKJOMtXfsRnOzYwb/5C7pg3+7zN54AgxHnGoS/LUcx99z/I1t27eem5F3nhpRcYFqukYexIDOsCDok+65Qh5VXlq/VUwsqMgnSGeKFDIGWR8vxm71ILCtMh0sUWoAkLFytYcOmTZjHPGUtfA9JzUiAEhhnAkBKtNcrNoLWXU5u4HgyulbYPrpfGkBbSlpw+1sbrb7/BT176GelEkkeWPMYjDy5k1KiRhCKXvxna02hXIWyBpxxMI4CX3UFFA0FfyV9oPNNB0v+Bc9JdWHb0onF+lfYQuW4GfX6f8XCyMXgLcAVoIQgIifYUyvWQtoFSLsrNYNpX7gE07TAlVWHmz5/PyMZG3h8ymh//4nn++m/+mi6nm4fnL6S0rBRhiJxUyYXo+/BJIUD2hl/bzp6k5dB+YrEoI0Y1Yhb6O00h+rfSGowIIQgFbQzDQGuNk+rs96EUwsibZ3ny3IKYUmJKiVYuXnbe9RdYDy+TxAxE+1RV+vR43XrouwBfieekJ2kewL6AR8Y0jNxC3LNW6YCBi99S0Mk47N22h7dff4toKMqS+Qspqepfae8l/KrJwTSxFReV8dSSRRw5dIyVK1YzrqqJJ6vLqCovRwqBm4njmEFsafRbp87tkKMcRXeym7NdZ+ns7CKeTBDvSpCKx/E8j3h3N51d3aRTHm5S4RQmUHEPJ+lAWBCSQYyUxizy5UDKC8OYdoRgMIgVDhMKhQiGLSrDZcQqS5GmQTTgG17Bc97fvgakL4buf99jyCvPQVznbpuD0kjzUm5uZO1d7bz/4TKee/nneAh+9VeeYsFDC6mtrcMyDDzlIBCXz5fqETHtucFC+CKwAuT/z957R8l13Xeen/tC5dhVnSO6Gx2QIwEQBJgpZooiJZLSaKz12CsHjTxrr453Z+1Z754J/mOPPWvPjGRbWkmWSFm0REkMYhADCJIAkUgEIjVio3PuyuGFu39UdaMb3UgMQJOuzwEO0F1Vr17deu/e7/1FpwrI6d1RBnBkChf9hVYoK2sWMlQUgWnnC65KFOy8hVAFQlUKFipbomja+XtGLVrSUIpK5/xpXczSdTm8DgdLOzqo+q0oLqeL7/3D3/APTz5FNFzJbbdsxevzXvL1M83JM3eL2XyW7t5uzp09S3lllIbG2vMvEqI4XgsHaUvsvI3qKp6XIjEC59vaX1gzTlsIO9ASJUpcU2zLQNpmUWRd2E7u/CYVCt1dktksLmGSkRqpoQnSVoaRiQnSmQz2YIa0liWZSWJZFjk7j65oGLaJLjTcmo7udOF0u/AGAnj8HsKeAD6/D93rxq1rODVt/k20ON/i2bJthoZHePOFl+g6e5zHHvkq69etnX6qYWUKvYsXaOh1R2snjz7+KF1dXfzipeepXdrOfXfeidftLriAOa8r7ZxF1jZJG2lS8QRDQyOMjo4yNjzM6OgosdFhhgZGGZxMkc1Okk8kSNsGKDaeYqqcITw4nRLbspGiYEXTFY2YkcCpOMhms3i9XiYmJnA6nThDIcI+H16/i9pQNaGqcvzBAPXV1VRVRakMVxEtD4HTiSY1HLqGKJY7mRLftmEX/tUVpKrzcTs8F6RIKwgoB0IITp89yYuv/pr0RJwnHn6cz9/zAFW1tdPpyQJx2d1DQTwVe4+JYipwMQ1YIrGsPJrqRJuqojzjtZpjttCZ1R+T8ynF0pr9SkVXccyoXaPNOPKU1c3OWygODfUjBuRHqqN86fHHMPIx/urHT/LzF56htqmKZR1LcWhXL0jyaYOhc8PEJydZt3YNlZW1l3/RdWa2oVOga4VbJZfLIazzE6GVMVFdC2vHWaJEiWvFlBVERVVmeGGkwDZ1hvNpGJlkLBvn2NmzJId6GBhPMt4zRMbKMBaLkclkyI6OETPy2JaFZZoYmJimRFHBqTrQszpOnwOHz4HX78cb8BJ0+wmGgvgrwtRUVFBXVU1FeS2RcBjN58Tj8uLW9em1ygGkczkOH/2AX7/1PLV1bdz94D2Ea8pnfJpis3XdhBmxyAsFzeFl4/r1fO2LX+E73/s7XvjpkzRXV7Fi5SocDjciZxHLTZKIx+nvGeJMz1l6B3oYGRxicHCYkeFhJmMTSFMS9nhwODxYuptIJEK4pg5UDZffgS8UwOlUEE43/qyXvNeB2zJIa3m8MSejHgtfPM8IMZAwfm4UgLQwyE2mSI4l2HdugMQ7CYQQBAIBKiojlIcqiUSD1DQ2UV/XRFNNHf5IgEDQj9tZuH6EKNpfKFRFsG1QHB+fal6QIm3KUjOZjLH33T2cPnmaDevWctett1JVWXtVQfDSkkjLBodKJpsnMzKBKW1yMo9QBL6QD5/bxcjkCOlYGoBIZSUut4tkLkd+JMaQlcWFxBvwUBYoI5mOYVomQW+QvG2Snkjg83vJmwYT45MopsCh6giXgjfgAySTkzGMbB6n200oHEaaJvGJGLZpk7YyCAn14Rr08MXdt1a2KDDmIVod5ZGv/Gve2PMe7+3Zw579e2msbyQSLLvk+NhWHiQoM8RcPJ7gXHcvuqbT1rSYkPd8KygpJZY0FpQ1SigCMcO6pwiBS3UipSSbzV7ilSVKlPiXgqLqcMHaYZgG4/EJEqNx+rsHONh7iuEjXfTFRskmxhkcniBtZnDbKp5gEF8ohC/goaYqiJnV8ZV58Rg6wuckZRl48wqmZpJJGgjLJkacZDpDIp5i8Fwf6WwaU9h4nG5CwTLCoQjVNZU0djSzeFE7TbU1hEJB/E4fUhMMj4yy/fXXODk6wB987VusXLp01vnP7ESwUIkGIjz00EMcPt3Fm794kV82/Ard4SQUCjHYP8yBo/s5dqyL/oFBJsfGSKUTuG03kfIQi+rq8axcQllZGXWRasqqovgCYcKBACFvAJeio+gKtlcFFVRVwZNykvGouNN5kn4Df8xFMqDhj+WJuXIgJXbMBCCRTzI5MkE8k2Bo4BwDYzHywwkGYyMMTozxweGDjE9M4AsECEaj1FXUsKi5gRXrVtLWuBhvMIw34MWjaygUEk3krJ5EH50FJ9IsO4+iFAIzx4ZG2bVzL5pQWH3TTVR2LkK5IEFAIhHyUtY0OfWHyViMd97YxuDwIP5IAClgUedi2lta2LV3LyPd/bgthbat61jT0clw7zDvvfUOQ6kkHo9ORUM1N63ZyJHTXQwPD7D5hs1YKryz/S06ly0hI3O8/vJvsJJ5QoEQ3vIga5atRAjB/mMHSYzHiFaWs3rtGjweN+/s3UHfyV5cIS/pRIKbVm1i9ZbV8weESsC+9NjV1dVx/91381//9m/pevcYifUxyvzhS8eQybmX1PDoMEdOHsMfCNKyePEFMRry/LZhgSKlRM44x6xi4S1e6gst4aFEiRLXFhtIZ/NMDg7TPdjDB4f2c/zICc519zIZG8PM51EDfjrqyllUvYqqlhAVwTD+sjL8ZWHcXgcVniiqUFECGgHTieV1IDWBnrRIiywmeeyMZMKME08kSU1mSIyNMxkfZ3hwmP7uPoZj4/SdO8eJw4dx7dlDJBxmUUMtbauWs6J5BdGKCHsO7uO119+ktbaDB2++mWjwgli0rInh0nAVxVo6ny9Y4xZYDcjK+iq+8NiXOLGni+eff4Hx2ARer5eBkREGh/rJTaYIlIVpa2yhcXEjjdFGqusqqaipxFsRwOf14cGB0JU5JZXm4AEPgNdd+NcFbgC3i2lJWyz5WQ3QVvi/mUuSsRW0uMVIaozuoQFG+/roGRik/1wfx8+cYt+BfRz6YD9797xLXVUdDYvbWbp6Ga3NjUTDUbwuz8duy1xwK5aUxdgtIUhNJDnb3UNVZRUtbW14vHNjrC73hQlVQRRrZsXik+w5up+JkWHuuftOUjmb1OAkh/If8MHb7xGJRhmJTzK87Q0W19XSc6qLV999k5WNi1ECEfITGWTepvdkD8eOH2FlxwoUr8q+Q3sJlHnJ5ywO7nmP0bFRohUVhCIRlLzENE3O9fdQFghy/PhRBBbLl67m/YMH6O3u5b777qevv5df73yN9g1L8LvmEWmC6Vo0l2Lj6vW4PT7OdnWTnExyOVF/YeurfDpL/5keRgYHaGptorKxavoxaUukKdEcH71d1seFlBa2aaDq53eUQohZPU1N+zLqtkSJEp8pDMtCSjkr7ta0bdKpNKPDoxw8dpT9O3dz7MxxMsODJKUgUBZi49oNLFu+hLK6WsoiQWpdrVTUuVE9V+i9cYOb8/XNqpkbKpKaiDMyPMJYOs7k0Ci9p86w/+RRTp86wY63zvDue/tYVN1IfX0Dx3tPMpFM8JUnvsyihqa572dLbMDKWagOFdO2kVxbp6ctJVnDmJNwMYWZTxMbT2PnDaJ1PnYcPkf85QR1tbWUVUTYtGo9y5rbKF9UT0N1HXUNdbj8H7KU1kdAc/rwA7ihAT8NzU0ApHI5kqMxzvR0c/rsKU4fP8mJo0fYs3cPb7+7k7rt9axct4oNKzaxqnM54doQQnN8bOJqwYm0mebbjJUlnklRG60gqOnoM3YHtjQBgWnPnyZ9IZZtkTeyuJxOVqxaxf333UvaEEycG+CVPW8ydLKb+o7FZNQcpw4eI521wQ26y4WjIkQwEias+1DdAiFlIci0eD66oqAJMGybpqZFeHw+QsFCheXe8R7GRsdQc4L2RS30dQ3SfbaXzsUr0IXO8sVt3HfP3Tg9Dn71z78ka4D/EhZs085f0tXo83lQNZUxcxzDYc7JOr0cE4kJTnR3YeUNWhqaCERmu0ultcCsaFIibXPWrwQCZ3GMrFx+3msjk8/jWoA7zhIlSnx4bKtQVsi6YF+WM/IMDA1x+P3D7N6xg32H3mN4bIxQWZgNK1ewYu0mmtuaqInUU91U84meozccwBsO0FT8OZ1Lc+NQP309fZw6fpLdu9/l9NEudr+/j+GxEaory2kobyDrl1y4PVY9Oh7AsmxAJeC6Pu7P6Y2wLMZaF8NPJpKT9Jw+ybtv7uPVd7bR032WFWvXsqSplc1bbqSpbRGdFS2U1ZSjXCSU55PCsvNXVMbE63Tira2gsraCjRvXMzE8ztneHj7oOsp7e/Zx7MgR3njhZQ6/fYhVq9ey8a51tLQtpyIcnpOp+mFYcCINCtkSiiZw6y4CXh/5RIrRiXFyRh6P01UIzpMWiqpiWTZCiMuKNFVIXBo4fD7CFZU43QGcblAbwdhhMZxLcXq0F19OUlddg9vrpa1jJRtvGGdscJDe/gE8Pp3GJc2YTgVMG2xJNpnFMPJYgK0ouEJBIqrE5/SSSiSRpolpGEwm0vSNDuJ2uGhsaERxqnh0N+VeP6qi4XT6UATo4tJWH9s24RIX1oiRRAobXzCI9iEK642lY5wc7MEp3XQuaicwIx5NKGLBuQuFos2qzD2FJrRC7IFpkMmn5+zy8paFU9cXWJhtiRIlPgrSNkEIXEXLumlZJJJJTpw6zhtvvsmet/cwODZIbXkNX7xvK6s2r6e9uYXaiprrNrd5nB4WN7SyuKGVDes3cNNtWzl86Bh7du9m564djA738dyzz5AJ5Ni0ZhMVFdXTpT+mhMYVW/o+RqS0sS0DVXPOEoe2aZMVFvHxcbbtfJPX3nib4wcOYmkaN63ZxJZ776CzaTGNLY045vMafcJk8nncDgeWbRY9cVe3CoQryghXlNGxrJM7b76dYx8cYNeO7ezau49/eulp9hzfzZ233cXGmzazuHkRXpen4IWy5HRbrKthYa24RaRhI1WVYCDMsvYO9h8+RNfJLpYvX1YQaZZEUXQURcGpGldkDREIVKngkAqeGUHymqZS21BF55J2ljW0ous6DqeK2+EgPZGgPFBGZSjKvqP7GTh7jkzSwut0Y4/HOXPqNIlMir7hCTBtdEsi8ga2ZWCoNiYWTpeb+uZmcoksDYsWoaoqjQ0NANgCzOJ3JgSoCriyBszVHNM4tNlmYMvMoqpOEIKcabJz5y6ymRjtHZsJBIMXOcqMsS5axoQqMG2bsf4xBo704/GHWLS0DV+xRpBEIm1rQbeGmokpTXSHA0tV0efR70H3x1dssESJEguDmTXMTMtiYHSU3bt28epLz7P/0AECgQgP3n8/t950OysXteOovMRkex1wO1y0Ny2mub6ZTZs2cdcHt/Pyqy/z7p43OPOdAfZv/IAH732IZZ3tBDx+LNu4fkVtpcQ2c6iqE9u0CwJESGzN4NCxk+z6zUv88oWXGE8m2bxyDXd9/kG2tq8l1BhFzDcpf7Ini2XmUDQXWdPE7XDMWUuvFrfDgbu6nPLoTaxYvowbt3Tx6puvsfPdnfz4yR9x7ORx7n/gXjat3IDH6y306/6siDThAhQI15azactmdu/bxTuvbmdt5ypC64LozvO7BmkbSJTLlrEQiorPHaApUk3Ie/7GdDgcrFi6nPxolt7hQQIiSGVrgIxhQCxO92gvEguHqtC5bjXl/hCiqZ6zDZW8t/cwmktQWVZLyF+F4c5SVVlFKBPCG/aTLcvQ2NxIJBzhyNHjDAyO4nf7MOtMnC4nNRUVlDt8CARBn59FzS2I/MVvOAPm1GCxjCyK6kAakqNdx3nzNy/hVGDjmtWUhUKXHWtp2SBBqCrJVIoz3d1MpsZY0tZBXaRqxhNtLGmgLMxLZhaCQhq8w6kxOTmJaV/7XWaJEiWuPVObTktIegcHeWPbNp7/5a+YGOjjto2buOW2u1m7fDVl9ZXX+UwLSLuQiCVmlGuStkSTgupolPKtW1nc0cma36zil8//imf+6RnGTvXwyNeeYPOGzfjdhbXMNuwPZaX5KAhFRXcFinUqLYQmyORynDpxhCd/+BN2v/I8vtp6vvk7X+e2jTdRv6QFtej+s20ToajXrOuLlBLLyKJqLsKeCwwdtlHUDx/uXFTdRVlVFVuqqliycikrV6zg57/4Ba+9sY2+vj7kV2xuvOlGvIFL1y29GAtyxbXsPJpwEXC7Wb92LVtvWMv2d/fwwksv4gl4aW1rxel0YgFC91xRHT9pW3i9Dm7YvAF3eXGwJKhSYVFtE8rtKmdPn8Ux5KWhvYwyrxd/SyUbWcvYxCBuV4Dy2gqCFUGCZQ7ufuA+Rk+mcIZVNK9CY2MjdjJHdbgcG1DcgA2hUBlezUXY6aN3cJSQK0BDUzVOt4ctt27FjRNdKLTXLSLyhUdx1szfrkICOQoibeYN6XAXhNjZM2d56rvf48zBI9y3+WFuXHsTfr8fW1oIlHmtjTaAQ50ev/jEOKdPHMewbdqXdRCs8E8/Vwi1UDRRSmzbmFVFe6Ehgaydw7QKLaEurBheokSJzybStJHSYmRynN+89Ar//PRPsLIWD3/+cR760kM0FL0YErCQKNJGEdevOPdUiShFiOJmWRSSAfI2qlbojlBXVcnDX3qY9sVtfP/pH/D2Cy8xkUzisBU2b70Vp6Zh5yykYqFeZY/mj3TugAVoikDz6hiWyZEzJ/nxj57m+V/8gg0bNvDbf/g7bFl+I66AG0QhllwRhSL0mjgf1z1FYb0SH7rA+7znaduk40lw6cy3ahUqSmgfi1yMRCI8eNf9dFQ384/P/hMvvf4Gf/fj76Koghtv2TxdW+1qWHAizQRUXNOtFVpbW7nv8a9ybHCMX7z6HBk7wxcfeZSlS5aiuNxgSxxcvlWRouoEIpUEZmQwy2LfTs2n01zdRHN106zXODxhli8PA8tnH0zTaWsP0NZ+wZuEoKxu/h1aa7iD1gsO4204r6xDFWFCFeFZj0/fBBQ0/pT9z86ahbpmAtK5DKNDI3z7H7/Ly889S+f61dzx2D2UVRQ+6NQuQczzVedtCwCXoiJtSXIiTk93D7aq0tDahqnMDUKV0sbMp3G4F65IE0LgV33TxYmT2SxOX3HHaeWLdfZK0WglSnwaMSxruj2PtGShQn9x/lecKpOTY+zcvo0XfvEr8kaexx97jEcefITyuorpY1hATto47DyKeumF07ZN0oks8UwSt9NJMBgsdKv5CBQsaBQ227qCbdhI0y50udEUVE0pVDuybISmoDsdLF2/nK9X/j5loQjf+R/fJmTqROubWNrUjObTyZspFLRrZp2ygTyF9UnaNuPDYzz/7DO89Oyz3HDDDXzrW99i9erVswwEppVHV13oWmHMbWkVGsoXz9m2DRRx8X7THwYjb3DswGG8NZV0LG6e87hD+3AWLihWo2B21yDN76T9hiV8PfJbeB0ennruGf7h6R8Qro2wumMl4ip7hKt/8Rd/8Rcf+gw/ATKASJsomjJ944WjUSqiEU6fOs3unbvoHx4gFAoRDYVw2AoKyvQHt2wbKWVxZyKR9sUFnJinOez1QCJB2oUvWhZuYKGAbZlkFRUH5y9mKBb7FRCLxdi5/12+9/ff5Rf//DM6V6/km7/7R2zYvAG3r3ATqJdosI6RRbEtFFXHyOY5vOcIr7+0DX/Ex6P3P0BD3dz0cSGUWeUuFiKWZdHb28vzL/+SsmgFTzz2+HQD43w2hqq5SlmdJUp8SknmcqjFpuR2zgIhprPYDdNg38ED/ONTT9Hb18sjDz7C448+NkugQaGLkkPMX3Nr5lwLkmQ6xu5tu9i2ewcyZ1JXX4d6QaKabReqDVzpvCLzdiG2urhuCVXMcVdKW2LlrOk1SlEUIsEyWppbGBuK8fNtLxJwO1nZshxXwI2mOq6ZQIPCGOoUW2il0rz58ja+/e3/QUNTE//hz/+cNWvWzBkPVdEvEG3ZQi/l6Qb0VynQLrPGA+RNk66Bs0RlPeFq7wXf75W+jV1s1zX7fSyZB+Qca6yiaARDAaprooyNxdj5zi4CDg+rOlfh8F6dZ2fBWdK8AL7ZN07Q7eauLRupCLr5/77/Y17b/jb9Z/t44PP3sXXLLTTWNeDRPGiqRt40saTE53RimxJp2HPri00JoassT/FxI4uFYSU2lpVH1wpZIFbGRPUoWLkkPk8YicQwMzh1H9K0yWZzDI4M8vLLL/OTZ5/m1JFT3HXnnfzeN7/Oys4VOPUruwhmNnWP5WCD828AACAASURBVBIcGTtGTJ3kpkU3EvJfulPBQqHQAUGizdjZClWghnR0zUPcSDCZSFERKriRnZ5Px+cqUaLE/MxM+rkwI7N/dJC333qbntPnuGHjBj734N2U1xYE2tR8O98CLaXEsm1URWBa2WnrSt606O8f4dnXf0F9fQsVgSiKUDAtCwUbCwUVGzOfRHP4EKqOadsIw0aoILRC3JW0JbaU2MXClYoupjeOF0OoBTfiTBRFoaamlt//6v/K0VMf8Ivv/x1bV9/E1pqbUbVrbHCQstCYXgq6hwd55c3fYNom997/IGvWrLmiQ+jzBO9ns1kSiQSGYWCaJk6nk1AwgEN3kM3nicdjZHM5XG43IVcATdXAIUgmksQSMaSUBEIhgn4/sXic0bERWuubCIcAJIaZxqn7mRyOM5EaQ9M0IpEwbreXeDJOJpXBtm3y+TyBQIBAIIAUBqrQEYpWFGyFrt2acvG1VtGcNC1eyoOff5iD773Pa2+8wX133sPSihVXNcwLTqRNIaVdVNzFWmSuAGuWbST4zUra2jt58Zln+Lu//m/seH0nt3/uNtZvWk9jdTNutwtXsW/WlCl5zrGLQkjzXd+Actu2sKWBrrpRNA2QSEWi+AqlIRyegvuz0EDeTTKZZKx7iPcPHOK7P/keO3fsIFxVxdf/4Bt8+StfprG6epZYkbZECjGzn/tFScVSnDtxDpJ5lra1E6yJXOYVCwPTtknmcrOCQaUlsScK9ZKEJfDLUuJAiRL/Ejh3oof9ew8SCAa46+Y7aG9YPP2YbZvY0izE1l6AJSXxbJYyr3daoJlmnuPdPbzx5iuc7DrHfY88QlVbLUKFU6d70EmSyOt4NIPKmjo0RSWbzdI/OkquZwJ32EGkvhqvx4+dMhianGA4PYG0bcpDZVRHImiOq5+bVE2hbUMl9z30MP/Hn/4Jr+zZztpb1uPXfNfUkmZLCzObQOpexocHOLL/MB3LOrj3hq0f6bgnTp7g5ZdfYWJinEQySW11DZ+7+xZa6hbRdbqHbW+/zrmeAeoaFvHg1ltpXtHB2PAw21/dztv7dqBrOhtv2cLdt97O7t27+MGTP0CxFP746/+OtVvKcep+0uk0z37vJbaf/g1er5cHP383mzfdzLad29m17W1cLg/9A4OsXLmSBx54gNqammkLoGnnUYRyRVm1Tk2jo3ERm9Zs4vm3XubM0EmW8hkRaYaVQVNds8yIqkenrbONqqZ6Olau5OkfP8mOd3ey7713WL5iObdsfZRNq1ZR3xnB64/i1DRUfe5HFKq4zgJNImXBFanO+ApsaZOzsliaFy8Ft52VN0hnMpwe6ufwnn288stf8dKud/H6fDz88Of58hNf5oYVN+CN+GaZfKW0sTImWYeGU1fmZIXOxJaSsYkJeoZ6sYIqoUW1BD4lJSp0VZ2TrSNUgVrpLMR8xCVxJYubT8fnKVGixKW5cAM/hWVbTJwZJt4zTt3yehraGmf1OlYVHfUiM6GmKJQVO9pIW4KQpBOjvPqb3/Dqcy9x7Ngxfva9fyL+aIzbtm7h5//1R0y4xslPOLFdWT736N1suWEzXce6ePfddzlx4gQer59b77iTDevXYI+meeet7Wx7/y1k3mDTqo3ccfsd1DTPDSm5EjRV5c61N/KD9hYOv/ceJ3tPsnLxClTl2lnTFEXD4QmTzWRJDyQZmBhk7colBNrqPtJxE+kUx44fo7aplk3rt3J830H2Hj6Iyx9kbGCUytoGljSu4tj+Ll7etZ37akIc/mA/+44dYOOmm+hsamHMjpEXgtu23kpE9fEfv/v/cHq0i7WsR0rJ7j172Hn8Re7+4v3094/yysvbWLV8PelYjqP7dvHE1/5n2les5LWXX2Lxkg7KKypwFmvT6VfZLzUUDNDe2sLPfpOnv3/sqsdjwYo0h+Yt3ixzHwu43dxz662sbu7g7R3v8Oyvn2XnvnfYeeB/p6O5nQ233sryjtWsqG2gtmMRuqahaRqarhdi1a4zlm1gS2vOjk6goOFAZLNMZLP0D43Qe+gEu/bu4pV9r3No1wFaW1t58O67eeyxx9h8wzK8wapZ5ntbSoQQBZHrduK7lEm92Dwglcty+uRJJs8NsrhpMYvqP9pNthBQ7YL50AzYBER+zuOFuL/rfy2UKFHi6jCsLJriQFG0Qu9mAASjE6McGjtCTE+wpbyOKm8UKPbyhSua+6UtMZMGesCBP1TN448/TmdjEz/44Q/4T9/8D0RX1DGUTHAgfZSOuuU89q9u4+3tO9m38wDLWpYyGpukoamBdZvW8f5Le9n/8g5qwmWcHujh8NljfHHrfTQ3NzOZT30k96SiKDR1VlBdvYa+3sPIVPa69VS2pU3cSBBLpwlrPsKej7YhVsddLIq2sHXLZlasW0d+IoE5IAjaVXQs85A7eZBzI2foTZxCERqTw0OM94/SUFvLlx//4pzjNa/uZFF1E7ZesHxJKTly6hRawM99t91L33gf3/rTPyWXzyFSBi1L13HDphvxhyO8vfNNdCuDJi2kLJYMKca7F4PULoIstucSSB2kH1RNQ/NcfW22BSvSAKyUMZ3tMh9VjdU82vgot950E+/u3ceru7exb9cufvQPP0BzPEVHSwvtnZ0s7uigY3ErzW3tVPiCKJqCqqkoqlLMLJk/TuHjp2BBU4SOEDq2ZWPZVuGvaZFIJzl57iQ9J3rYf+gQ3R8cZt+Rw4yMjLC4pZVvfOMb3HbbbSxdt46qYHBukKqUTKRS+N3uK8pYsXKFdkrZbIru/rPEjAw3tNYRCi2sAo9Xi2orVCR9hYzVoQSaPbdenJnIo/kdJaFWosSnjJlFSE0zg6JoqIqDQN6NN1+IEbJ9GravIIIyhoFpWZf1DkgKGzc9UFjMhRBUBgJU+sopj5aTrnUhi/NFvSfCmo5OOhYv49TZARKvfoBMm7S2NXHw/b0cfGcf757ag8PvI23nGenvpyoQYcm6lVTWV9H4EcdACrAdDnxhm1RvAmuSy/Zp/qRQhUrEE6aqIsix+AAnek7S2dTxoY9nlqcRZXkUDYSk0GpKTTGSOseuUwfZv30P5YrOyMQglfkqwhkPAoFt2xiGUZjTbYmqFRISbCmxLJvEZG46G1NVFKRdWH/L3S5EygJbIn0OKMaqu8YM1LyNNQYyC6adQFGdqLoLK2MVkj2c8wttyzawbRNd82BlbYwJC4+qIrPZqx6PBS3SNP+VlXmI1FdxX/193HnTLfR0n2P3mQ94Z8+77N61k51PPYXX6aSuppKqaBUro8uoXl5Ly7IWog1VhAJRwpqFO1BZyPYs/p2q3yIFKPIKgrpmIqd09NTPBXGWt7IY6Ry5HCRkjvxkksHTZzg8fIZTXWfpOnKI8cQEfV3d6Lkc4cYmvvDII3QuX8GW1hW0bFh2ybc1EgZlXs+swoiXYsoVEOuN0Xf0FB4TVrasotxfdZlXLmwsxWYwkCz8IEALzr2O9GCpdlqJEp92Zgaex8MO0sFihmMsj4gZUMYFLeHmbz9uS2s6oPxCMkqO3ORsFSSBgOpHFQpKwsCq0ZBuhbd/s40Dhw5RW1Y1q0yHoihIKTFNE9M0i3HGAnElpTzmOWVpS7oHhpCZDDlnGLXGBddpwyl0gbs+SHXlKgYHhsieSyEb5QwjwtW1fFcMEysnsU1wxAyslIXhE+TMNMnuERoba9ly81befu0tBkcGyQRtor4I3ee6ef3NNyirKsNK5Fi9vB30IOeGhhgeGsLI54iP9RKI1NPZvIg3X3mFD04e4eTpkzRUVqHrOkoyXxCGQpCpcGC7VLJRJ6ZbxaUHpz/NnGTEKYofVVUcqIoDKSX9wwO8ufctVJeLpUuWXPX4LmiRdrU4yr20lHfSsq6TR2+/j75TPRzsOc6xA4fYf+g9Dp89xo6u7dhvl9HmVDDcQcI1Edrr26hoaKAsFKKtoZEaPYRZ70IIsKKC+u4A2Uo3cipdGvApObJSx5TK9K3rFXkMqSDGbJJWgoQjB6aJHTOJTSTpnRiit6+PobNnOXv6NN0DAwghsCyLiVgM04L1nSu45Ws3s27TOlaUt+HvaKAyMH+B2wuZ2gFeDVbGZKBviFPj41BWRllN5ZyMok8biqIS8JcDBdP2YCxG9RV0XyhRosSnl0qXi7XhOt4VXs6M99GXHqGC8zFflp3Hss152wEpQp1XoAF4bBcxI09QyRa9LhA38qTULDYSGXCQz09iW3liIyN4fD6W37iClJ1idGQcYVm0NS1m2/ZXeWnbr2msb8aBTmtz62Vj0qRpY6ZN9IBjltSRUpLvSXP27FnKK5eiXMNYtAtxaA6WN3dy24YV/OXf/7/88vXnqFi+iNpwIZM+m4/jdASKSQ2XF2xeT4iKmga8gQD5kE64qRLTyuItD9G4uIndb+/imZ/8HGHZ1NVUEIyGWHXTGs4lennhuefxeLys27SJ1SLEnheP8f2f/mcGBgd49oWfM9Y/wJ/92Z+xfuNKTrx/C9/7v36C4hnnoSe+hM/vx1flojJZj8PpRAB13gi+C0pOZQAV5jS7t7Im2LMFXDwxyb73d3H80EFWNjdR44le9fh+pkTaTPQyD01l7TStb+e+z99NdiLBxOlx9vcf5/ihYxw9d4yucycZ7R5m+Mwg8XgcgFwuh6vYLLapvBEZVQg5A4SdblyhIKGcihL1IYu9x5TRFDmXSRYYG50gY1lg26RzCSYnJhkbGGV0chJV0wi43XhUiaZABgfl5eW0tLTQvqSDJUs6WFLdRqitnqjPd83qeKWFydHeLsaG+9i47AZaKxuuyft+kghT4uu9erNyiRIlPt34mmrw1lcycXSUoQM9GB3t07G/U9aNq0EI0MthxYYNeIM1CKEQFFmWrVlNtKESVVepiUaJNS/B5fZx81138cILL/D6y2+g6zodS1oIhf1ULFvGqJFm5/btHD3cxZq1K2lf0Xr599cU9IAD07YZTyapKG7YTcvi13u3caT3AP/+iSdY2tRxTZMGprClRd5M4XK72HLvRl7Y/SJP//SndCxp4okvfQ0Al6NggYoBenIEt6cMcYk2jvWtrUQbGgi63XidTm6//fZCgXKXi4aKJtZ0rMHOGbhqIrgdDsLFhI+vPv6vOHdjN3pSEGqrR3UJmjZV8q2Kb2FVOVEHcsj6wrXgdoT48u9/iRsfHsS2JW11reiazvobb2f1Rpuoz4dD0/jGE7+Ho9yLpp83XHgAK22QlTk0l4ZWTCSYmaQCkMlk2PPWAX70358lpWjc/NhXaFi5mKtFSHmdog2vNUWXo0Ri2za2aZOcSNAd6yXbm+LYaBeJM5P0xwYZOdvNRD4HwKQRBySJoXghkaGI00gymbXQXV60Ygapruuoqorq0VCcKm7VhdPhJap7KQ+G8NRXEG1qorq8muayciqaaynzegtuVqVYdVm5lknUMNYzxHe+/W2eff1FHn70Yb76td+iNlp9Dc/g40dKm76Bszx0/yMElRxPvrpjliVtKB4n6vNdtk5RiRIlPl1k+mJ878nv8/1nfsyKjSv5xr/7BmubVmPnLGzT/lBeAiltLMtG06YW4UKMk1AEilDI5OJoqgut2JJpNB4naxiEPB48TmdhbheCnJEils4gKCS/OXTPRTfjtpnHyCfQ3aFpN+yUDcoyTA6/tZc//D+/RTKV5C//y19yxx13zCmwe63JZrO8/NKL/OW//2MmpYv/+Lt/zcavbaAmHLoq16eEYj27+Z83S7KI2eulLCzy0+to4Wd5PthfzC44PHWsqd/Nee+p114BppVDYqOrbiYNg3fff58f/re/Yveed/jtx36H3/3j/2VaZF8Nn1lL2hym64UVBBEahKvKCFaGoBXWynWFumKyIOKklAzF47h70wx44zCYIW9KMkqOrJFD2haa7sCyLLyKG10UWg2pZRqKVyOUdREpi+KIeqdj3VCU6RtWFYWOCte78v1gZpSu8R5Up4uO1g6qIwuj8fCHwQJSgFdCPAe2hJGsoDIYnPW8Cr//uo97iRIlPn7c1QE2fm4Le08e4ODug7zy5HZqH2ulqtX/obvLCKGgaQrGZA496AAhZgkit9PPTOERDQQKUuQCAeHUPZQHPMVjwqXEiqI5cKplIAROvZDIJSh01Dk7PMR/+s5fc7Cri//7j/43brnllunzMWK565YQ5XK5uP2OO+nq/iOe+sEP+Q//8Cd8k3/Lvf/6UWojkWJ27eXPqzA0559nZcxCnFfRUjVz7rbzFpZxXnyLC4qCihnx5fOJrQvXgQvfGyHIm6miFbbwHkY2jlC06WLwVqaQgKe5nYBkfGicl3/9En/3k7/nXN8ZvvDQY3zp33yFcv/87vTL8ZkUaZadn7fExYUUxJIKCqjMvYGbPB5EuaRc2FC0UkrkLPUtpSw2hJ26EAp/FVkICl3o2YN93X1kBodY0lxNVUM1yjXJcv1kUAE/xcbxQsFfGWCsZ5SRRGJWXF9JoJUo8RlFESxd3MKXvvAFBobHefpXT+HR4YuPPvqha5JNkQ44CIj5PB0XLPTzPqfwvKuZeqQlsTLGdAKdYRp8cPIwP/zOD9j32qs89uij3PzIbThmJEboAccVW34+CbxeL7/32/+GuopK/uZv/oY//+v/zKHDe3n4y0/QvmoV1eHwFXkwjGwcRdVRdfccN+IUlp3HUkwcV1PWQhaErB6aHVFmxPJofn3e9VrXCtmjZspA0RUMpx+V8+Jp6vxSuRxdZ0/y7DM/57mnfoYqbX77q7/Lo49/iebaRR963flMiTTTygESTXUyX/lWE8hRbD11BShCgCbQCiruE8W28pj5FA53uHBzpgs3p5SSvJm8aFDrR2EsPsaBIwc52zfEbY3t1Ps/vVa0KQSgIPGTITWaRAK2bU8/bsRy130iK1GixCeHyx1gy7IbyTyU5jtP/4B//PlTpIwUD3/hYTo7Oz/0cf2KIJcawemJIITCaDJJyOOZ1eUFIG+mC4VzpywvVna6Qn1hjQJNvXx2udAU1KKFKJ/Nse+dffzt9/87r7/1Nptv3srv/NvfZWnLktmL/zWc1wzLIp7JEPGdL9kkhMDn8/G5e2+l2lfJ9374bX6951d8cPoEn3voYe5at4XqjiYqwiG0S7hnNeeM7gmCecdNVXSU4hjbZg7TyOBwnw9rkdImb6anLZFTx9JmJNhNrQdTAs1M5FE9+nTLyHxmEk33IDQHmkcDBO4LhjiZz3H8dBc733iDV178DUdOnqRj8WIe+MIXuPeee6iORj9SvOBnSqSp6tTgz97J2LaJZefRNM903fmZQuh6YRs2dt5C8xYuNt1ZsPYIVUzfnEKIK6p5BpBPj6O5AigXBGVaaQOhqSgOBStjFmIpnCpGzCA+MImiqlS2NOKtuvrMk4WJgi4DuMu8xE7HZj2i+ecKtPFUCr/Lha6qTKbTuB0OnNpn6tYoUeJfDEIo+KrD3PnQbejlOj/88dP89Omf8sGxozz6xJfYtHE91WXnywzZloGZS+LwhLFsm4l0mqhvbq1IBXC6y6ZraoY9nukyG2bSQHWphUB/1TVLOGmKEztrYisWqnP+9cbO20jTQvXMNi6Y0qZvYJC3Xn+JJ3/0Mz440cWXv/goj3zlUVZ1rEDXrl8mvqaqhOaxYgkhCAcq2HRHmJYlFbz45H28sv95vvPtb/Nq7fPcvGwtm++9nbbVK6mKRtHnEWtTYzy1Xk2Nm52zkLZEdWvFMZOFGHDVga5qc44xXybvTGvZ1How9XWp3tnWNN3lR6BMHbDwT/Gx0dgYXSeOsPOtnbzxxlt0nzlDTbCc/+nBR9n6wOdYtWoVHo/nI8c+f6ZWoosamRUVTbimPJHF34k5N8S14Hy3AReKppxv8i4EotgCywIyimBqmpiv0G7OSODQZ/dq012B6WMABfOsQ0VxaWQFSCuLQ1dQiwGuZwZ6ON3fQ01FDcsXL8HvLVzQtmHP35j+U4KNJI6JnlRxaDqegRwUN1hCEeSMJA7NOz2RBtxu1OL//S7XguhKUaJEiasnS2GOd6oK/nCEG2+6FW8gyovPPsvLr73G8f9ykjtu38q9d97J4o6l1ESqURQN3VXwVCiKQsjtLlhh0hM4vbN7GIsZFpGZi6/q0abnEyEUrLSJ0BUUvRCDrDi1OXFomXwe07YLc44ukDM2hnnLYmBkhP27d/PML3/Ju3t301BVzbf+5A+58+7P01Jfi0ObLfiMeB7NN7/L7pNAwEUFiBAKObeT2kUdPP4HjXScaWXfrp3s2L6bn+38Z17at43OzuUsW72aG5evo76tmUg0PGdzrDhVhIBUrtA1xutwTDdWUHQFqU2/IQIVadpYWWu67ePFitSPJBJE/f45YyUUQT4zgeb0oyjarPU0nsmQM00Ge3o4sv0AO3bv4MCZg6SSKeoDdTxx9+Osv2czS5YtJxr043R+PLU4P52r8FUy3cph9i/PC6SPQBpwMHsgk9ksqqri1nVMOwcItGLqtyK08/1IxfzxUQpcttPklJ98JlNpzZPpNF6nE82lIRQKwacAimPWWPT3nOPc2TO0tS6mpqFm+oZTNIG8zplCV0shfsNE8+koikLQ78HySsZ6k+jl9qzn6pr7gp1ucTecMlCdKqaZQNVcKNr1s7KWKFHi6pl5xwqhUBYMsWHdKpojFaxtWcHP33iON557hb2vbmPVbTdzx6Z7WN64hrolheQiAdNuON01OxPPiOfR/Y55Y9+FIjDMNKrqKMzxLnV2/Pk8wsmp6zimFEfRmpPKpjnde5oD+w+y7eU3eP/994lnszxwx108eOvnWHnzenz+4LzWJ82rLagYaC+F/p6BqJ8bAutY3trJzTfezuFjh9jx1k727XuPAwcO8Kz351RUVrBi5QrWr1tHfUsD5WqQUCiMFiqUt3BNlcCYYfWa9f+pX6kK6oX+yHkIeTwXTWHQnX6EUDFTBsO2QX5ghN6Rcxw8cpiD7x/kxLlDJEaSWDmFxrYWPv/AFlYtX0XT4kVUVkVxulx8nJHd/yJE2ieJE+Z8IS6HY/oCUMVsa93MxsA50yRRbBNhWQZGMok/5yTuyhHMuxgvz1A+5CVTUSisN9P3P7Px/IV4nU7UYhapYWVQhV5wgc7YVYwnJjh17jRWxqSuro5g+Yxir/Nc/AsVW1pYVg5d9aC6i2MibWQuDjoEXB7sMaDoyd2/fz+WZTGemcSjuFjU1k5FWRmaoqC6CpOcpnhmjVWJEiU+HcishSXzqE4VVXGgCIHX7cPT1kK0upqO9cvZ+eY7vP7Oa7zy8+fZ9dxrNLYt4ZbPbaJ16VJam1upLy8kGCjq7Llb82hzBJqZMgrzhipQVee05WamWDLzKYRQUS8oijrV2SaRSdI30Efv2T527dvL7re2M3i2G+lwsqK9nVvvuYfbb7mVSCiMy3fxIPkr7TRzrZi5QrkcLlwOFz5fgNbWVjav2szRvi5O7+zlwOEdnBk6y5M/PcqzP/0pofII1dXttC/rpKGlhprycioCEVx+N4EyN2FfEM1xkRCgKzS+XChyx1MpEqlxjJEsvZP9TMaT9J3q5siJ4xw71kVmZAgTiRbwUNtYzy03LWdJ5zJaFy+mtqISr9eLw+n4RMo6lUTaR8S2MghFR4jzQzllmbFzFhOpSUbGRxgfnyCWTBAfjzM5NkYul8PMGyQTCRJGlpSZRpommq1gKjZOqaF6HFgpA7e3UNw24vag+334fD4cPh+1sh6jLUOjVkO4ropIMICqKLMuQFVxnPepz2BgaICz3WcJlgVZ2rGEMk949ueSJpZtoquuOa9dSAihoKrO4s1Z/JwShOHEr/kY1VSG9NS06/gnP/kJ2WyW8spyRodH2bLsLu565GZcfgVVdSCEOuu7LFGixKcHRVcQOGZZyoVQELqCvyzIcv9yGhoa2LRlE/t27GZP1wH2HXqf3X+1l4DHy6pVq1i9cjWRqipaGhqobKyirKIeP8zbQ1p1qtOC7GIbZ1VzMlPdTaZiDA4OMtw9xNDJAc70nmX3qb2c/qALYZr4o1G23HI7N23ayvJ1yymvrCRwBfW18mZqXg/L9SRvJosx1YVz0nUdXdfxt/mobqll47Is98ZvY/R0P7tO7Of46ZOM9w1w7lwXe4++Qz6XxSlc1EfLqGmqxV9eTnkwSqSiCm8wiKZp+HweAn4PfmexVIkQ6LqOQKBbGkkrhZQSwzCQQMJIkk7kSSST5JNJUskkQyMj9Pb1EBudpLuvm3Q6i65pBKIByoIROlbfQFPLIlpWLKG5uZmqSBS/34/L5frE622WVqOPyJQISmazxNMx+vt7GesdZWRwmO7BHvoH+xkbHiMWmySWShGPJcjE40ghcHk8+J1OdJcTRVXRFQ3bBUoGpEegJQUxI44mNFKpFLqiMDI+jqZpOEMhogEHTr+fSl854boKIr4QtdU11LXU01BWT6S2inAogEObe9MO9w1x9kwPPkeE+mgTmvPCejHKdHbSQqZQ/uTCyVGA1DHyhV1nTjOnH+nv72dRWxv33/cAb7z4GkfO7uGm7Bq8oehF4xdKlCjx6UCoAqNow5kvWEHTNSIVEULhIIsWLWLz5O0cOXGcQ+8d4NDRwxw7cZT927bj8nqJ1NcTrSqnobGZinAYn89HuKKCirIynA4HwYoQiqbicQVQZwStOyYNUlaCTDZPOptjMhdjdHyCsaFRJkZH6Rvop7+/j6HBUUZHhwGL8opKNmzcSOeSDlqWtLO0dQkVkXI8gfMWI2kXQzq8OkgwU3k03/lPqSnOBSXQAFRltkCdQmgKbs2Nu9pNpDpMU30jreuXEEslScTG6B3s52z3OYaGhhgYGiXWE6PvzATjR08Sn4wjLAuP14vtcuF3u3A6dNxOdyHMyO1GFDNCHYqbjJlAU9wkk0mklKRzaSZSWVypFGPpNF7AE42ieHXKQ+UsXbGK+upq6iI1hBojtDQuojwYxev34Q34cc8jzCzbQCKnw5o+Tkoi6EkYHAAAIABJREFU7UNipU1GM+MMDw1z5uRpDp04wnD3aQaHRojHsiQSCZKZJJpLpyYQpSJYRmN1B1F/GF+tE5/bg25r6BEXmqbjkjpB24cRUtEmTOIRncBIluGyBGVDLgYdcZCSxLlCtmJfdhhjPEY8lWF4eIST506Tiifx+/z4QwECLh+haIS2tsU0t7bSUreIqroaQpEQuiUY6hlkfLKf2s4KonURVO1Ct6yywG73+bGAPLNj+IQQ6F4dXTNBgjqSh2K3K5+us6yzk/b2dk6MnmLnc69hmHmUovXMypiF3fg8u+YSJUosfFQKRU5tQGr2vIunqmuEyssIRMM01Ddw45r1DI2Ocrr7HIPv9XM2dYSB/lG6Tnexf+/7KIqCx+PB5fHgcblQVRWnx4kQgjK3g4yt4FYha4GdsbG1PEbeJp83yVp5MtksqXiSXDaLlJJQKERtYyMbNm2kobaahpZG2pvbCYVDeHxePM65UclCiPMFeQUojguC7C/Raul6MbXRN1NG0V08/6qienQiniiRaBRb1tPW3kkmkyWXy5FKZxgdiRPvGyWeHGUkOUF6PEHSSjGZzZBL58mm09j5PLZtY+Ry5PNZcn4HfsNEEXrhe4pEwOGgUlVZHXQRdvqxVY2KqjLcAT8VhAjX+AlUVBEMhPA43KguFY/bg6bOHVs7ZxW/BxVFqMhiF2/bzGHb5sVdslfJwvtWrzGzdicU2kJMptOE50ktTgOJM31MpOMcP97Fth1v0nXqNImJSQwjh664KY9GaO1spSZaTbS8ikhVgKpgGf5ABKfLh9flxRnUcWgamBLpLIgBVQocto7tUFDyNjmngjNnkfEYeJI6ad0onF/aAiCWT2Ak8yQn/3/23jM6rvS88/y9N1ROyBkEwRxAMIdmM4cm2UmtDpJbkjWyfeRde3yOz+yZ+TBen6PdOTtej707Xq+PLc2spfUqWGq1Oqhzs0k2cwATmAkGkCBAEIFIlW943/1QIAA2Y7fYkfX7QhJgVd269dZ9//cJ/ydOZ/w68USCgUtXGcwkON/eRtvFi3ScuMqJ48dQpkl5YTGzZzeyaPEiCvUSzhw4hl9pTJ42hYLK4rvWuN3AlZJkNkvEf6+2hs8Q6YCdBu+oj5xEMeRkMA0JAmRg9L1ZriTo96MJgb8/jKZuvtMThgZfoOLbPHnyfDx0QBsufRBCjGyet0MTgqDPR7C8nPKyMiZPnEx2ns2A3cNg3yAXrl5BXuznWqKPjnQXqUSWwZ5eVF+S/t4saW2IDhJkpMKTVtimQBHE7xWEQ36CwRCFsSgFejFFRVHC1UGiBYWUFRZQUVpKcXEloVAQb8CL/zbC7CZELp07cuyeL8+NZO647++6qgkdvzeA3zu6B4+rdZEzHKTrYCkHJ+uQdbNkbQvLcrDSWdy0hWvCUDJJQBdksfBafpQmsAM6ATeDGSyEjEu0JIhp5MS2L+gDIfA7JroPNI/3vrIqwhitLx8b1BCa8UBN4R96kSaEuGnhC7ilDdjODNHe2cuJi60c3LKdkxdaGOzvI5FNEAoFmVHdwMTGCdRPmUR5aSkFhWGioSihUBivz8DQ9VuKUO+KbzhU7wUPfohB9EasaFicx8jVkEnLZQouCnCGUmScLN39fQz09THQ2sWFzss0XzhLe1sbe7d/wP4D23BsP1cvXaawJEJRYQlooxcx5UiUq9C8o8JGuQppuQifnhOXXyA0oeHRb75LvukzVOBkRrs7/eEQruuilEKpDJqZu7tz3Ay25sFjag+0MydPnjyfPaPF4/efABRCEPB5CJR7KCCIqoEp06ZhLHZJWGkGrEGsrEM6kYSURSqjsEWGrLJQKIQFSgchPBiawOcz8Xq9GB4Pfi1IKBjAG/Pg8Xrx6Aamrn28feFLzCcdyXUDU9chqAPe2zofKKlQrgJDYDkOXkNHOhZCmigBrkdDtzPoph+ZdW/a3z4pd2rUEJqOeIDu91+sHffzQNy6gALDYzYG02kSV69z+Ph+3t+yjWPnT5DuT1FUXEpjYyNTZs2gvraGynA1hZWFFBRHb/Gu+bTRPDr+Gwui2EMEKC3PTQ5wGrIMpIZY3ddDT0cXl86f4eDpZprPnKY7M0C6x+bArt2URGPMnr+Q4uJifLp5a7vqcFG+JsRoK/QXBCG04cLcsSgMmRn5u0q6I79ZtGgRRRXFaLpG2eQSGrINwzUMucFg+Rhanjx5IHct8Hs84IEC/BRQ+HkfUp47IDQx0sBxY48a202rA5g5efcgBNpnSV6k3UAp7GxixNTwWn8X+5uaOfzuO2xvPkYiE6d2fC0LFjaycOli6ibUU1xWRugBOAp/WhgRL8WREorLS5CTpjI0bzaLe1Zz6fR5jp88zvGTxzl/uoV/autgxqy9rFuxmtlz5hIqihLAg1QuUjm5glRP7guglItrpTG8tzpyf1EQCHTDJBwOo4Ckm8rlsQWsXr0aX8iHYRhMnjCNqpIaIpFIbozL8OMdK4Wmmw/NXW6ePHny5PlikhdpSuFm3NxID6FhJy2OtZ7kva3vsXXzLpzOLoomTeTra19gQeNc6kuqKKooxRhTtOlKCyH0kbouabk5Zf85FZ87Vgrd8N7kjq2ZGrHCAmKFBUypGs+ihQs4e+k8TQcPsnvPHj7csZlLF06xfPlGli9fzvRxEzBi3tvYd+QGx3+RkUBa6gSG6wo1oY2EyKqqRocsx0JRYqHoLY8XQssPYc+TJ0+ePJ87eZEGIAQKSDhw7GATP/n5P9O64yj6hEo2vvACy1auYNq0aURDoZGRQY600IUxXGCYq3twpZ379202eKkclFKfia3FvQSGHvJQFCplfmkhEydPZuHc+ezY9yG79u/kV7/5FecvXODrmx5n9qPziAZvFjFCaOjmnQ0VP2uUVChb3hLC1oYLhi0tflPhsONmhof0jjGbdLPomokQGjLr4hheDO1BVhXkyZPnq47Muoixo/7GkNsbxEgXeZ4898tDvWIUYAmBx6vRn0iwc+9efvzjH3Pp1GlWLFjGpu8+Q+OcGZQVlI4M0r0dI8JL5QrUbzQiSCcLQqDpn22dmm7evkvohoi8EfHzGAalxcWULC5kwqSJTJkwizd/8xb7DuyhZ6CbF9w4q1asIhqMIAGb3ISFzwPbdXGlvL+aOFeS6Rmgd7CXgYEB2vu6SCuF/3biOeuSV2N58uT5JKQsC69hfGFLXvJ8+dF/8IMf/ODzPojPCwU4SmKnhjjYfIQf/eMPOdHczDe+9hwv/Pn3eXTeXCLB8O3nawodZcvhEUqjjtNjW3eldBHkfHPSiRSuBh7jwUfSHCuV6ygRIic6tNwxudIeNnu9UU8myU0iufmCIjRBMBSktnI89ePGIVWKg0ePcan1EhUV5VSWVaAbGpaTxaMZSEt+5qlcV0okuS4f5SqUI4e7axRKc9GEjlSKwWSSMy2nef+Nd3jzw83Ee5JkvR5K9AC6qROLFd78GTkS3TBHUrhSczE0kR+ynidPnnuSdRxMXUcTufKWO83O/OjekCfP/fJQizQB4Ni0nDnBj3/8Yw43Heb3nnmB7//R95k8oe6u0TMAaaubukqknYukjYwJ0QyEZtB+qZ0Tp0+hTEFxQREASjpI176tAaFUioxt33aI7m2Pw8mi6TnDPjksXoQQSOUM11cND06/x4XC9OmUVRVRXVvJUCLBoaZD9PUPMmnyZMqKi9GkjdBMlCNvsi35LNA1DUMopDucUpY3xrQoHGmTSGVpvXiR97Zu4Ve/eYlDhw/jDYZpbJxBy7mLnNpzgJ6B63hDQfzKwBcMIDSBZuTOVdq2cylS5d50zvLkyZPnTngMI39Dl+dT5aFOd0ql6I8n2LH7IO+8t411a9by/T/6PlUTqu/r8bpvuFHAlrk6BKmGld/NX9rW7ivsPXqQJR6NKfWTAHI+XXLUGkIpF+na6IYPpRSOlKBA2u5NFiGOlcLw3FwTNrbTUveNfqRK+/jJSU03qa6t56nHH2ewvZt9h/azbcdMasuqiBZFUYDrNz6XDKFSEpSLMLzc8N51bJdrbb0cOniUrXve41Dzfoysl3lLFrBi1VrKqos4uvcwb7yylfe2vs/Rc8dZOWMxyzeto2Z8NYWRAnRNz3mn6TqazIndvBdHnjx58uT5vHmoRZrjOFy51M7u3bsJF0Z58Zlvjgg0V1ro9zmHS7kSITQcXXH9ejcd7e04tktNTQ1lZWUoKbne28PJUyeIRSKEo2EqqyrxGl56entpu3KFoaF+vCEPU+qmUVRUhE/XaDl3mvYLVymuKmHS1Kn4PR6ka3H81CWcbDY3MFYpxlfXkZIZpJJUlVeSiCfoHxwkVlRKLBxEu4uDvlQ5oagJHaUkConf62f61Fms3bCBlgsn2LtjN8unPUrDsmkIzcS947N9umi6B4br+2zHpre3mzMnW9j1/k72726i2+5k5uxJPPPo15iycA711ePRgyZTpzQwv/5RNu9/nTd2vc3PT/8LBy+e5pHli1jzyErGVVcS9AURQsO1nJu6YvPkyZMnT57Pi4dapLm2Q+fFyxw91szS+fNYMnPW6O+kc18izXIcdI+G0DR6u3vZs3cXzUePYtuKhoZZrFi2DN00GUomOdbcTDKRIhgNsWLlCiqKyvhw506aDjTh83oJl5fAoMmCZREutl7k7bffoL87gScSYJXjsHTuXExflH/+2V+RGRqirmYciWSK1YtXcH0wTp/dx/rVqznXcoHLF9tYu3wVRcHAXcccOUoCCs+wSJNINAG+cID6xpnUTWng+NHTXG67ygw1GQMDj3Tgcxq+7krJYDzOuZYzfLh9K9s/3E1HRzs1E+v5zqo/YMO6dUyaNOmmxxQEgyzYOIuGGbU0LFrAjvdeZUfTcU6fOc7Z5jOsWb6EWY3zKa2uwecz80G0PHny5MnzheDhFmnSpTt9nd7+QSaWj8esGh2I6jHuz2Yi6zj4zJwR6pXLlzl35gITJ00mGIpyruUCZ8+dwzRNfMKkrq6ehtmNHGpupvnoMbzz5tN8vBknnWHFyrWgwJ/2k0gk+HDbdi62XuGFx59ny65tvPybl1g6dy4A586epLi8hMce20BPfz/hUAiZMjnfcpaLrRc5eeY0IeHDF/Dcu8B/rNjSjBGBYgBl0Sh19XVs3bODLqcTU/flhJxy0Pn4Im1ske1HsV0XTQh0TUNKB0FuBtoNXCmJJxO0dVzhQNNBPnxvMyfPnCFWVMQ3v/EsazZtYsqk6UTvMlfUVxvjydoNzF04i0Uf7uWNV37L1i1b2bdvP2tXr2bVxo001E+iqKgAw5M3sv2ioYCsbY90+LpOBt3IuYpLW6IZ2meSppZKYbvuLePj7sXY9S9dC6EZd6x9tF0XIQRGvmswT56HmodapEkkGTuDYehYBQGMMZEzad9fcXzYNzp6oru7F8txmTZ5OtVllVw808L13h5KS0qJFUaZNmsa8xrn0Np6kbb2S6xbtZppUyZz6sRpjrWeIezxUDOjnGw2y9kL57nYfokrPR3Ybd0Mhu2R1wkZQTasfYwZ06fjGR5hdbW+k6Zj27hy4jxXL1xixZrVBKPhW473o5huzkNMCYmDQmlj6s0ESOGisMDOvb4QGqb+yQasZ2wb4YLHo494yUnXRmhaLiKpaeiahnItFAJ9WKRlMhmudnRy6Ohh3t32LscOHCSoTNasWMWGJzeyYvF8TF/kvo+jqqiS5559lkWzFvDeu6/xyubNvPH2mxw/dox1j6xk+eqV1EyqIxKJYOg3f0UcmWsOMTQNV0qUUhi6nus+Veq+mz3y3B9KKawbgkgp0pY1KtKsNLruheGuZqGPdjJbjpObmSsEtuuia9oDK/C+0djzcUVa2rIwfLlhzu7wHEGha7gMa8vhphih6beItFz9qkJoRn6t5cnzEPFQizRDGFSESiiMhOhta2eo/zqxotzcS5lx0AzPHe/McxYQ4ibj2qDpwSMMsqksqWwWV5egK3SPBwdFKpEkY2eQBgQ1PwXBGEtnLaEgUsD51gscOHiI/mSS79a/SCAcxJQGA5k0lRPHMX1y3cjrOMqhwB+7yRqksqgCtzTCwV27SWqK4vJy/IF7RwOVkxMdSrPRlDsySUEqxUB8iJ7ubiJGlID+u4+Bivr9uCkb5SocIXNRs+HO1KB3tMnhhlmulbEYGBjg5OmTbH/vA5r27Kcz0cfMmQ08vmETy5csp2J85Sc+nppJtfx+9e+zcPlyXnv9dd5+911+9POf0NTczPKNy1myZAm1VeMI+PwjPkiW4wBgeDxYrouUEkPXcaTEGo6U5HlwSKVGvKiEEBQEx0S7AwUAOIDwK8YGpdK2TVAINF0fEXYe41bBfeMbJKWLjkAicMeYH38UgUJH4TPN3I0FEgcNARhIUAa2kHgNI7cejNHodGzM9/HGTYVyFZYGphDgZBG6ia7pI/ODR86Da6OGv5+O62K5bn6t5cnzEPBQizRT16kpLmXC9MmcOHqKs4fPsWhdTqRpobunTtxsbpSU0nJNAwJBrLqY0FGD80dOcvlEJ347QE1ZJegaA4l+Tp88RUgEyHSnmTl+CqlUiqsdHejCZc6MKfT195NIDOD3eZg3awrRQJg5s2eRnDoElhx5bUeTGLex7phTNpF/7n2DyQsWU1FShKHfOxI46tSv59z7XYXQBalMhpYz57jYfIJp1VXUl92o81JIJUcMcT8ueiAXBUmn07mNc7gzVbm5zlihCWzHJpFMcvHsBbZt28aW7Vu5fKWN2ro6/uAbf8imjRupr6//RK//UTz+GLMaZzO5aDzLlq7kX3/9c/YfPMTxy6c43HyEdWseY27DbEqKi/F6vSObp5IKn24gTIFSEo8G3jFR1TwPBl3TKLjHzUYGMLJJNH905MblRtpbSge/aSJsRcbJ4DourutiS4fBZBIpFY5tY6XjmI4i4wjiykKqXJQU92bBpiHxYJPBhyHAbzpk8CNQhDWboKeEQWFREouRtDMUhMIEzQC6ECiPwCMNlKmhBBi6jsq6+DwawhDwkXm4SuZeW2gCYfpGLkde08R7P6bOefLk+dLzUIs0w2Mwbnoti+Yt5R/2/wOv7nyf6YsbCYfD2E4arxniTkrNCOYuko6bHh4pZDCpfgq9C/vYs2sncauNR+YsZsqEafTGe5g0bhxd13o43nqK2toqZq9pRDd0LCwOHj+EPegSiUXZsGkjoWCQZUuWMpjcxVsvvYS/IMaCxQuA3MinpTMWUVZQkZtJOYaZDQ1MW7qURXPnEQp6hz2/7v4Ru8PpO13TUI7MiSUTrl1pZ//+PVzp7WfDpsXUzc+JV6UUjpvBYwTv9rR3JGeoK4jc2ESHz7C0XKRQZNwsrVda2XugiZ07d3Ly5EmCZoAXn3uOx57exNSps25KMf+uKDfndeerjrKqegVTZ9aze9deXv71K+x8fztnDhxj1eqVPLJ6NdOmTKO0sBDDY6Ls3Cau+wyka6Fc5ws9dP7Lj0K6zm2H3ocAAgW5qRRuBmVLbNfBsm2SQz0MZhzsq0n63UGG4kMkhhL0Z4YYSiRJxVOk4nFSiSTZZJJUMkXcyZB107hZBzc7KtKEELhuTuR5DA9ezYMM58oPADRNo7q6GlMDEQxTURJCeH1UBSsJGx60Mj+lKopRFkUP+iiJRgj6/BiugWZqaIaBqY/6bklr2Hzaq2PL3HAz312agPLkyfPVQyil7hzbfwiwsxaH9xzmP/7nv6Czo5O/+Iu/4OmnnyYUuv8NV0kXhody29k41+OD6HGNWLQAs9BP0rKwryexMmlcTVLojeItz9WLJWSSa32d6L06nnHlVA2LF1dKeuNDJJJ9aEKjOliJGclFcVItvTgTiwhr4hYJ2Z9M4lEZ/P7IbTe0j5KyLKRShIbTja506Wrr4LWXX+Enr/+SCUX1/E9//B9YsHF27r2SE1afNNFiOSl0POi6AQLSgJASZVl09/TSdKSJLZs3s39fEwLB8uXL+dr6J1kyex6eso9EGpRCKvU7jWRxEha637xl3t65c+d48803eP2Nd4n3tFM/cQKrHl3HylWrqJkyHr/PN1qvphRKgRIMz2fNF3s/EFQumiT0XLTSSvXjDRaN/NpxXZysje3aZCyL3t5Brg20k+kYpLOvh/brPVy/do1kPE57Rzv9A/0MOr2QEnj1EKbPQ9Sroek6mAF8Xh9CE5geE59QKDuL6wmgawaucjAMD47lYHoNstkMuunFymYRtsLRXJQtGYgPUGRKujISx1W4rktvbx+RUAC/34+/KEh1cSVFpeWUlEQoKSyjNFRCsCxMYVkp5QWlhEJ+PIaJaXowTDPXaJB1R24Kbqy3O7nb58mT56vDQy/SANLZDK++8xp/+4O/Jp4e4n/7T3/FuvXriYZDaPqdI1FKqmFhNohm+NCNBzDZUuU2+vu9ACvp3tbX68axfZxuN8dxuNp9jffefYdf/svPyaD4sz/7H/j6154e6XZ1lCQjNH6XmJGTtNG9OujgWA7XBvo5e+okTe9uY+uO7XSnBmlsbOTJx55gxYoVlFaX3fZ5LMchaVn3TIfdCQncTU7ZbpoTO87z2nuv8fbudxjqG2T+ggWs27SOxQvmM65yHF6PF2yJchS2qcg6zl07TPOMolQuOnSngn7lKtyUjREeTjG7Els62JZNJpOh/fp1elvauNrXyYkL57HO9nE6dR6rp5NL15M4QMTnp7SomFhFIb6Aj2hFOdWqlGAoQLAyQqwwTGEkSsQfxqd58QS8+AsCRM0wftNACRuhPGA6mGYYN+OiBQSZ1AAJ6UG4Cm93hq5gHO1alm57CMuyGLSHiA9kGYrHsc53MGS6dF3vZTA5wEB3P13d3fQODZGxLEoiUWLFEcbV1lFbVEW0voDxFbXUVUykpLqcgnAYj9eDYejomo6yFcpR6IGHOhGSJ89DQV6kDZNJZ/jZ//P/8bc/+U8ERSlf++Y3+d7zT1BSNh6Px3tLpAXASdjoPj1nc6EUuaKq3+04Prox3YtsshePv+AWoXbTsY1BKpWztxizMUopsWyL1outvPzyG7z8+tuETYfv/5tvs+p7T1HjqRx+rIvtpvEad5doSrooTUcjN0lBCf0WMeS4LomBblrPtrFl3z52bnmTsxdamThxKs997Wuseewxampq7v7mP6ag/ShxICAV+j0en+2Ms/PQfl5++1V27dmN1BXLli9h06anmDdrXi4FetvxMConRIQ2ci7EcC2fK+VNEbeP/vurxo2LjFAKhUIIjbRlYbluTtSO+SyVUqPzZmVOmFkZi0RPnJa+C1w5c5mmfQe53HaBQZniensv/YkkoZhkwoTpTK2dSkXtOKoqCiiMFlMSLMVfEqQsVkIkErlpgsdnyfVEAvNamp7BPjoTPXRc76br6lV6Ll/hyuWrtHW209fVjoMgXFlCVUUlpQUlTJgwgWmzplNdVUp1STnhSAm6roM+2rGqyJ0/TYhctHvMevqqr608eb7K5EXaGGzL4Y0fbubvXv4rjp49w3e/8U2eWfc0DbMaiJXFMLzmbYetQy46pJna8AYwsiU90ONT8mNE2IZfXaEYmxQdSqcx9Fz3mFQSx3G4dr2LpiNH2Pza6+z6cCuFNfX8j3/4R2zcuJFYLPaxjzOT6CYbLCYsNOxkL1l/jOCwtYcrXWzb5kJHK/s37+WDXVtoaj5KcXEhTz71OBs2PMGU8ZPGdHve+VxKWyKzLkbokxdR20NWrr5Qh1uTxzfTe7mTnQf285u3XuPw/gMEQ0FWr17NpqeeYsrUqRRHoxhjOgila5HJJnD9BYSUi5UewBssRipFbzxOaWTUNqRraIjScPiO6+vLTmb4YzTsJEpJTO/N9jA3PkstKLCdLIbux85YDPT0c6b7HCeOn+DCiXMcbWkm3Zui+2yKydN0vHV1LF20illTp1Djn4FRk6UqUkowFrrtjdUXESdpcy3eTbx7kI7eTlraWjl3qoXTzcdo72jHdhwCfj/V1dUsWrSIFfOXUltRi6c6RnEkgm7kOj4T2SyFwSCO6zKQTlMcCt2y1nI1oXnBlifPl4W8SLsJRSozQNP+Y/wf//hf2b37INNnTmTpkpU8OW85DUvn4g8F0XX9luHrSikQuW3edtMIod/kuzYqmz7xoWEPZjFj90ipDr9MAvAB0kmhayb6GNNaJSWO63Ktr4tjp4+za9tONr+3lb6+ftauepRvfffbNM5edJNlwO9KruHA4ULHRfbsaeLd996meespYoVB1n1tPc+veoLpDdMwCwOj7wNwZBaF/MTebPd1bIDlJDA1X85g9B7/v/tKF1u2fMBLr/2a5mPHGDduHE88kUvNNjQ0YBpmbn2InMWJk3JG6gkfVtx0zrpE998uRTf63ZBSks5muXz1KicOHuTDHTvYs2cP8YEhKqorKKwpYdHM+UxqnEJDw0xikXIKlQ9P1PuVqtEaymTob7vG5fZWDp85RtPuA7S0tJBIJvCF/EyaMY0lCx5h3qxGJk6bRmk0iq7rt4r8j1x2MvEufOFSHvQNZJ48eT4d8iLtDiSOX+OXRzbz0s9+SltbGwUFBSxatIjly5czY948asvL8Zq5yJoQgv5UCp9p4r9Na7zjZlCAqT9gi4bb6D57yMIIGDelORUMFxsrpJR0XWinqfko25t2s3fnTgYHB5nV0MDj6x9n9crVVE+8R5rxYxyXIicKuwYH2XNgB7veeI+t23ciNJ3FK1fw3OqNLHxkEZGSgpue4u6b+oMlDvgB4hYpn4Hf1O45T8GxErS1tbFl83Zee+VVTp5rYfz48Xz9qa+zftla6ibW4Yn6vrKRsQeFKy1c6WDqftKWReuVKzTt2sWHWzZzvGkPV9IOixfM5dGSRcx9bhEz58+nPBr9vA/7M8XNOCTjSVqunqfpUBPHjx5n74lmuju7mFVaxPzl61i1Zg0zZs+mNBodkypWOEPWvW/s8uTJ84XloRdpSkmyTgKfeXvH+vMqGJJsAAAgAElEQVT7jvPh2SO89vbLnGg6TiQUpra2lkdWrmRVw0Kqpk+ktLxkxAX9s8Tqz2JGPQxpAu9gFm/Ic9sUT18yCZ1JTlw6wfam3ezbtY/W1laEEMycOZMn1z/B8qWLqKgrw/T97hug1Z/BE8s5wXcNDXHu+HFe/9df8tbmzaStLGvXruW5Tc8y95FZFJaU3BTl+6zJ2nFMI/CJfd+S2SynW07x5hu/4ZU33ubalW7mz5nD0y88y/p1qxhfPu4BH/GXHzfjoFw1YmMD0NPTw+bNm3n5lVfYsn07daU1LJu3jpUvLqKxoZFJVRM+xyP+YjHY1cepE8fZefIA7772DufOnaO6pJzn1z7Omm89Q2Nj48j/VUqRtYfweR4uYZsnz1eFh16kQa7LLw7c7jKmhiNQZ6+co/l4M+++8jaHmg6RTqfRNI0JEybQuHAhq+Y/SvXESoLFhZRGi25xDP8sySav0zHYj92Z4vjF8+w810zLru1cbe0gaSvC4TBLli1j04p1zJ3aQMm4SozgnevtPimnm07yxpa3eOnll+ju6uLRZct46qmnmLN4MbWVlbmo4xcg0vTR6KPlJNE1z32LR6UU2etJzh8/xcu7Xuc3L79J30CclQse4anvPM/q1aspCY/WYD2sEY7bRZTTlsWRU6f46U9+wluvv45umryw6XGeeOF5Jk2fQWk0MhKtzjPMcJNFyspyuaODgzt28Otf/opdR48wc+Ik/uSP/pQ1zz1B6Zg1hwJrIEOywEeMfLIzT54vCw+1SFOuwklYmFHvPSvGpJK4rkvmeooLLRdoOnecY/v3cPz0aVra2shYFnXVVcwYX0/NuHGUjRvHuNpaqgrK8FcFKSwpokwrfqBt8xl7iMG0YrC3g57OPq4N9dB+pYtrl9s4ffIUzadO42QzeD0mtTU1zJg9h7mzZ9PQ2Mj4ujqiwSC6puUKice8eWm5SFveFOn4OLS0n+Odt7by83/+Z863tzO/oYEXnn+eJStXMr66Gp/Hc0tN3+3r+MBxP/2atBsf/vVEgtaWFsaPG0dRUdE9H3bzc+RSyX3xfvYfPcQ7r/yWnW/9lt6M5OvPPsvzzz/PtNmzR8XabWqFvKHSh0qMDCQH2bl7Jz/74Y85sm8f0xfN5/f/4DssfmQ1ZbEYmqbd9XxY/dnhiO3oz7LJXkx/DO02Ezm+6DhJG83QxkwBuTdSSlLZLC2XL/L2W6/zi5/8Aivr8G+/+SKb/udvM9k7ZjLHsJffw7PC8uT58vNQizQgZ50hBApF1o7fMe059v+7bs7R3LFtLnVe5ljzIc6eOMfFC5e4cuUKlzo6cIeGQNeJlpRSX1dLQUEBRZ4QFeWVBMqLCZhe9JiPgliI2HCKUdM0fKYX0zVIuCnCepABZwilFN3JHpSCZOsg/SJLZmiQocEBWtov4PZYtHd3cOnKJYKuxFdQQFFdBTOLxlE7YxozpzVQP20yFdXlRAIBdMMYFmd3Gkw6/Oc9ruZjO8cU0DU4yLtvv82bP/sNxw/uIlZbw4ZnnuGbizcybt4kvOFAbuP9WC96+59nHYdUNnvTLMd7kUl04wuW3DF6d6mrjb/7+79j08anWb7okU+UwlZKYTsO/d3X2bt9N6+9/wZbtm3DH4nwreefZ9PGjSxYsOA2j/t8uu7GdgLejky8C1+oFISgOx6naFjYAzhxC92fi0Ba6X4MM4BmeBlMpfAYBv7haLKbdkCQM2IdJmVZ7Ni+nb//67/m9PnzPPuN5/iDP/5DJlZPGDFwvSfD3117MIsR9gzbd3w5uhePHTvG4OAgM2fOpKBguB7zNkvdzTig7l6bqQDpugwmBtm+dyf/93/5vzhz8iTf++63+d6f/ykTKx/MCLU8efJ89uRF2hg+yQXelS62ZWHbDteHhuht7aC7u4tLvZ20X7nC9Y6rtLdfob2ri4GhOIlkElD4Y14CAYHHjRAMBAn5PZhuFssMIRA4rkMmlcEf9BOPx3GlSzabpT+RIpLN0J3JoAeD1JSXUVtVQ713HIWzKolNqKU+WETlhBqqykoJ+v2YppkTZvrdIxP3fZ7kDTuJolx0MdHD3qYT/NNP/xt7dh4kpOk8+eyzbHp6PXOnzyEaCKOb+j1Tm0OZDEf3HuTEsWYS2SQAE2rqmTN/AX3ZeK7JYWCAxtkNPLbyUbr7U7zz/vv0dnbi2g4zJs1k2ZPriPp9tFxqoem9fVy8domJM2awfsMGSsMhehNJfvmrX6GkpK+zE7/Px5on1tJ2uZN33n+Tfdt3M2viNFY9sY6NGzZheE327GviwO59lBZH2Lh6I5MnT7tJcNz+HCmsbJaunm7eefddfv3LX9J28iRlU6bw3Le/xeNPrPtCbJ43+WspiZXqwxssHv39GLPkj/ptjbWEuTHuC8StXnwfER8py6Jpxx7+6W//K8fbzvGd732PF7/zHapKS9BvY8x8z/dwG2uasQJy5Gc32eTcH9KWSMv9xFHlO3Gho5VM+wDjJtUTKrxLvdjHcPNRSpEeSnJs52H+8pd/z6lte/n3f/mX/OnvfQ8z+nCl1vPk+arw5csJfIp8kjtwXdPRfX58PgiGQlSVlOK6Lo7rkE1kGEwm6U1eJxHvwxmySAxm6Mv00z/QT/J6gri0yabTZIYGEUphu5KhoSEKCwtzhpS6TjAUwhuOEJUeoqoSa9YQE6nDLwy06gC1xQW4WoTiwgI8Pi+mpmM8QFF2y3nSNAx/jH7boa3pOC+99RKbN29hYGiQZ+c+ysbnnmfhmiVEYmE8hue+j0EpxemLZ/lgz1amT5/OxAlTGHCTnG49Sbw/TiY5RKwwxLnWNgLeo5THijl68CCudGhcMJuzl04T3O/h0UdWceLUCbKZLPPmzePI0aO8P5DhW3/4bYpCIXa8/z66YfC1p55isGuAvvZe5hRNREx6gmunOmmYM4epM6YTDIY4ceAYF5pPU1JeRCqZ5IM92xFBD1MnTLnHORJ4/T6qq6v5xje/yayF89m69R3eeOtt/uZv/oYP3nyTNavWMCU0G6tuiKgZwesd3UgjRhgNDSMGaqAAUZRFS2RQIR3lHV2n0YwPK+xiOBqKIEKBVynsSO6r7UEngCIrskgjgM80SVvWiL3KWDElhIbHf3OX7ViT5I8aoo4VRmO/O7dEwT7yz/7eXnbv30NL7xVWPbGWZ55/murS0ltS4PdLa9clXClxuy2iNWWUFMbQh2ss23uvkugcIlRUQHFxIT5Tx0059CR6idtJ5JCDz/ASK4uAaTB0zSXVFYdwikBlAUWxMnxKMXR9kGtD3WhJQeH4Cgp8AdJDKTpS10AqZI9DwcQqCpQHM+qlOx5nKN6D05khNr6CklgUXdPoSya5frETa9BDaX0VvkgujT+YTtMfv062J0FhJEBheTG6GfhYuUkhBIFIkIZHZvNn8d/jf71yhR/+8Ic8MmcuCxctBKB7aIiSSCSf8syT50tCXqQ9QDQh0Dwm5rCBQzAQJKYKqVaVufmeEqSrcJSD67i4Ts5M1o5ncYQi7dOQmQxB0yRp2xQEfFjJAUwRwxPz4dhJgmYRMuDiw5MzXzUEpq4h0XI+SZ/JOxUoR9K2/xh/99P/zusvv0Q6neZP/t2/47svfpuJ48bhD/o/kUCMCi/zpzewfOM6GqY2kMhmOHbsGMcPHybg91EaLOPCqXO0h31UlJXi8/uZNWcOK5Yv5e3N73D08AnWLHuMxaWNnNQv0OcfxG3vo3lgiN9TksFkBlt3ePGJb7Ji3UocmSYjNUrDBRTURtl64R0WP7qE+bPm4TW9nD53Bq/fw7q16znX2sqRI0fovtp1W5EmbYmyXYRX4VppTH8UTdOIhsPMm9nAuPJyYr4I/+3//Gu2fLCFA/v3U14XRV4rwqjtIzXkG4mcaGL4s9TBH3QJGhF0V8cfCqCbJgHDjxEy0UyBIIRPNwl7Nby6jun1IgI+vA74dQ8i4kN4dAx/EI/Q8UsD3TTQIiYBn0CZHjShETaCCCHwfKTpxePx4Je+kbWlx0DGQSvwgJn7adAIYAgdbwKcoInjz4k7n7DRvT5QCi9geIKcPnWK97duoaS8kheeeo76mvEjAk05Ejd7/5Gri9cu8Z//979ikqijPX2VhiULePqxFZSUVXPs2Em2friV1vOtTJg2lcfXr2R83QQuXW3npdd/zUBrP5puokV1Fi9dQDQQ4ciuQ3R1XyNYWkDj9EZWzltEhz7Itm07OLbvEGbAz/oNa1k4fTHHjh3jF2/8ksrKKtovXWHKjKls+tomxlHN3qbtXNhyiAHhUF87gSefWU1hSRX9rdf4121vcKbpGAsXz+eFZ5+lsryca1eusHXbVlpOn6FqXC0r165l+pSpd21AurHe9MCYcyUEgViYJcuW8+zBNv7m1/8Lu/fsonFmPd5gMYXBYF6g5cnzJSIv0j5FhCbQEeSGIt1h01GgiiVKCGRudhC6ELhSYuga0i1DYCB0gVQFd7SK+KyrcHTToG56PRvXrUFZGT744AM+eOstVIGPP1zxDOOnlOIPF3/s6KTj1SgoLqGiuJxoJEJYhWn1+emND5Dty5IArFKN0uoyXJEh5PFRqdVQEI4R80fpTXdjuTaHrp3kyIEjeOMmzb0XqPXWAeBTaaK+EFWFxYRDIUxvDFfmokTXUy7SEHgw8WpeNE2jPz1AxAxTHCmi3d8FAwrZ59722DVDoIYHxxtjol3Kchm8cI2d5/eyeedWOhIW9fX1LFmyhIrCYgZtBV6bVMqBbBaUotNNUjogyRpgWwk8viBu1iZtWbhSkbEyZPoGsbBB6ZB1EbZEui5ZJw2aQFcatm3hKg2pcsO+BQIlFfFsBmFliZo6/a4LCPThz0rTdTxjatRKIhF0dEwfeM0gmqFh6h58uhcV0dCIEvJqGLpCCAO/oWNoAsPvIyxDeAI+ZEihAYbPT/Px41zrvMJjy9Ywq2oqpm6OCg6/ie4bTqG6Cjft3HWiRKzPpPXEeVZ9ewVzJizkzVffYFpFLXJumG3vbyZWWMATK9fT3HKK5uaTxGIlWLbF1bYOgv4AqzesRTM13GyG48eO0xnvYvbKuRQVFBP0hBgwLVrOXaT9cgePLltJKmOx7ehhKgJVpFNpBvsHWbF8JY0LG9ny5gd0tnUSmVZMMpVg/pMrcfpsXjv0IYGmAJtWb6Kqvorf9z/Ldn+Ca/EBMpkM1/q7OLzlIG7WYemSR+nt6eXo0YNEI0Emjbuz9cjIevsIQhOESyLMe6KRyUem0rSjiaFvvUhJEAz98xmJlSdPnk9GXqR93ggQRq6YXoORuq0bF1NNH92g7sfLy3JSGLr3E/t+3S9CCCKFMdavX8/4qVOZN28ev3j1X3n7py9xeddR1j25gZVrl+cKwe8ypH4snkEH1Z9Cuu5IbZJyMvi8GhPrp1BSVEzjrNnIwQzBohBSSOKpOC09RynujNDVc53q4iqy2SwHmg5iBgIsfn4pPf9ynXibi1KQViaa0FElHtBFrqN0+FTZrsSv+xi81ksmmSQQC1NVVklPWzfnLp2nr68Hb4EXf9kdZpcKMVp2Jwxs16W7r4/TR5t55aXfsPPIPopNxfMvfpvHH19D4+RZeHQTG5l7r0qBzP09q1w8tkJquaJwoWnYCQvHckgIG20gi+0BLJe0TJHULZAKN+7gxi0U4ApJ2k1j2zlj4IydJWWlMIVJ3E7iWg52ysGWEqRCS+SOJK5ZCF3Hisdzn4thkEgkEBoMJNPYSmFn02RUhmQyjVSdqLSDlckgITf+y81gOxJHZnATBparYXssfFKSGhpC+k1iteWIwlzjh2YIlJYTuEqT2E4Wjx5A9999HQ/oQ3iiPhbOX0DlhCp2bP6Q/tQQ14e6aT59gnAwzPWqGg4dPYQ/HMBxXBJWkkggwLw583lkyUKEEAwmEiRth+6Oa7QdPstQbT8NM2diCI2eq71oXh/Tlj+K6uqh9ecn6U72khAZgtVlLJ0wF09dhN0f7KKrv4tF4cXUR8bRfO4smTPtXLp8iukTapGuxBf2Ma6uBjNShxu/hlKKTG+aE20n6Yv3cznezbWuTqbV1SOce5QLj11vH0HTBP6YF78/SDKewpV3f6o8efJ8McmLtAeA7WbQNQNNfP6n09C9n1l3mxCCWDTKrKlTqa+oYH7NDLac+pD33tnK3/3DP7L/w72se2ojcxc2Ul9Vh8e4u3ecE9DwFEXwJUY3J033MKF8AonxCY62HOPNjt8SKy9jecFCPKaHoVSCPc17SaSGMAa8zH5xKaZpMrl+IocPHGD/lr0IJSiqCSEERINhCguLMOIS8ZGNqzjgp66qhq17d9BPkjWr1zJn6my2XN3Cq6++im7qLJw6j0mV9zaoTSVSnDx6ks07P+D999/nSkcX8ycu5MXf28TM+fOpqC8n4P14Y7eUq1BS4QqFsCVKAyS4OLhi+Jy5CjW8uSsUEokcFn5SKVzpogmBq3Ki1XVGT4JwJApwhkWjdHLizkr1kfKEMVMDJM0gRmaIlC2QCIzraQb1JP60QVLLktFzj1HKRdo2TtzCTQos5aI0iXJcDhzax/bdu+jt7SUlk0QJ5gTHsB4TQsPQc9YaQr/7WvaEQhgek7iWxOv1olkO6Wwa0/SjBT34C6IESiMsWLGYmQ0NBINBTAz8Hh+RcJjgcG2e1+tl9uyZxLw+etp7aL58kv6+AWJGIV7XRENialkyAegPgEQSFj7KXZP0OIgafry9Bl7h4er1Dj7c/SGO10OgJIR9Love6Qcn916ELvDIAJrKXS+0oIY/YOK3/dSUVlBbWc64gnIi5r3Xh3Ik0pK3Wvu4Cr3bRouDW6KIO0nK7/lsefLk+aLx+auKrwC6ZiI+84Tj7fm0I2iQ6/izs3E8/tzwda9p4i0uZsGapdQtnsK0xtm8+drbXDpykH+61MKcBfN4atOTzK2dQay2BG24M9JxM2hjxK0/6GPpsgUkUmkiw7YEQtOJlhYxfclsvCUh+vt6iNaVUVtbxZW2i4RCEaaMn8nc2Q0UByuYNLkOr+Flw8YNlFeXYg6Bf3kZMY8cmbn6xLNPUD9xCrp58/IPBgtYs2ETrSfPUxEqJKT5iE2ZQDbicKWljaAnwtTJk4iV3dlDLTmU5OzpFvYe2sP2t9/k7LUe6mtreebrX2fV0mXU108kEAygmR9/vQhdIPThlWaMfs7mPYdY/W5IpxLX8KI5FtIw0VwbVwmUAt1SWMLBkBqOJpFjla8aFowuyOFiO6UU5bUVXGxvp/XcJS6fukjF0tLRh7gSmZUon0Y8kybqv7s/XkZZJPsSHNl5iPbL19CHTIrLSijyRlg0dT5JZTO+dDxpZwhf2IvSwFI2eA00z+h5k0NZ4lf6SFhZgqVhQn0hSEt0oaioLuTYhZPs3LwDLetSEAoRLYkRTw3g6Bq2GQahSAcTpN0syUyKtovnmTh3LgXFETRdw19kMNa6LStcvErHQMMfijBh3GQC13uoKCkj4PdRUBhFD93+pkbaEuXKXIexJtA8t66ldDbLvuNH6LncyhPrv0tFcV6i5cnzZSQv0h4An4Uw+iIhhIZh3rp5GmEvFeEq1q9ez8xJMziyfS/bDuzhwJ79nD9zjsaZc3hs43qmNMyguKBgWNwKHDeLJnQM3aCysgbHlWhjUqSaR6eovIhQLIS0bPSAic/00tV1jYKCGFOmTGLRvMWYphevkXtcRXkF4egKREZihAOYwh0pTl84ZwFBX/CWxgZNN5k4vp6a0ko8SsMT9CJMnWn1U5lYXo8uTLx+7227EJOZJBfbLnPwwCE++GAzp0+foTgS4omnn+axdeuYMWkiBQVfTpNVzfAOC0MPOoA+/CeACQY5MXG/MzZmT2vg0TkLefODd3n9t69TWVNJbW0tkKun0jwaSoj78qmLJrx4/V46rvfQ2d/DxHlTmDZ1GrGCMBvWr2D3noNcPnQBrdhkYv1UfLqHYm+UcVV1BAMRpOXmLDm8YAR0Bs5dp7unC1PXqW+cQrSmjGgmyozL3Zxpv0xIGCyfs4TamlouWBZ1U2oJSg+612D63FnUBcuoLalm6YoVXLp6lSAGCybOpbiiAG1MVNCjNDKOhSNdosEwSxsXcfDIYTraOvCE/BT7C/DL259RoYuRaLkSEilsDEanOGQyGQ4ebOK1N14jUFTA2vkrCPlyaWUnYd+1xi9PnjxfLL58O0aezx8h0Iw7+y6F/SGmTJ5CRXE5M+fMY/ve7ez68EO27dzKybMnWL5yJasfWcHU6VMJhANompHrVAU0zeA2gQF0TSMQ8EMgJw6VIwn7YsyaNYu6ulpC/ptNbYUQhANhGMkYjW5MIf8dasrI1V95ojf/3q/58IdGN0FX2oBC1zxkbZv2rk72HdjFli1buXDmArphsHTFctasXMbcxvmUlZWNiMc8UF5dycr1azjR2sK27dsoKinihRdeyAk1IUBXuDKL1/Dd87ni8SSG12D10uVEi6IUFRVSWlKKYRhUjx/Pck+Avq4ezHCAqsoqTI+HyupqVodDBAKBkXSq4fNQW19HIBwmkUhgekxiRYUURGNoUrFi9QqmD/VjCI2KsgoC4SCTJk2isqycYr8fU9dZt+YxgqaPcCDMug0b6OnpwavnLGjCBTmLFdtN09N2nZ6eq2heDc3Q8eg6VZNq8MT89CcH0QydkkgRvvDt051CE6AJLNcla1sEvaNrO51Os3//fn74ox9xqaOdP/nTP2begjkjv79d1C1PnjxfXPJmtnk+VaTlcn2wj5OnT3PwwAF27dpFR3yI6aWlLF+zlgVzFzFhYj3ByJ0nB0jpoJDoY0ZGKanIpjMMpeIEQoG7Cq8HjVQuGdumr2+AU0eb2bJtCwcON2FbDnNmNPLoI8uY+8h8KirLRyIYDzvW8J83PsGBwUG2bt7KT//ff6G7v4cNGx/j6Weeon7CVIJeL1I59zU79dSZU/zov/+I//jv/wOlZRUjEaY04CXXjCOlgxDaF2ISQWffVXZs3cuZU8eZMWs6q1asIRoJDaf9P15E3pUSR0q8hoHjuly7fp29u3fzm5deounwEZ56bBP/9s//gAn1Mz+ld5MnT55PG/0HP/jBDz7vg8jz1UXoGsFgkPLKSiZNmsTEohqyAs6fP8P+w4e52NaK5dpEtSAhf/C2bvAKNTxke8wmK0FTgnA0jMf8dIbZZwFXWmiom1473hfn+L4jvPrqv/Lr375E++l2plVN5cmnH+fJrz3OgvkLqaiswGN4UFIhM+4nqkH7qqGkDUqiCR2fz0dRcQmBcICu7qscaDrEmZYWhO0QjkQoKCi8r+c0fR68AR+TJ03CY3oZ6/4q3Sya0NA0/Xc2dZbKxZU2mmaglMSV2U+Uuh5KZ0j1DDJhfDWzZs2isLAYXdOHRWTuGF1pgVL3FJWaEOhKkBxIcPLsKV57/XV+9otfMNjfx4anNvLH/+aPGD++bqRD3EnaH2vaQp48eT5/8pG0PJ8pzmCGyz1X2X/0AHu376XlQguWkjROns6qlY/SuGABFeWVd0wPStdGShtd96Nc9amKHxtAOuhCoAmdoVSclvPnOfDhDvZs3U5Lx//P3n1+yX3ld35/31+q1BU6N9BIjQw0ciQIkCDBIanhaGak0Wol2Xu0PrK8tuzjPd7/QM99/MB+pLPB1pG8WlnamdEEamY4wwyABEgQuZEzGp1jxV+61w+q0UAjkACIQPR8X+fgdKGqq+p2dfX5fer+7v1+bzB34Txe2/kqL27bybJVi8gUMjNmgIw2mEjLwZF60AEzvVEkimPGJsY5eeQob//kbfYd2Ifterz44g5ef/11li5ZzLy5bTiJL58lHSuNk8/ksO4INbEO60WBp66Pwwqh5eLY7vQ6j1oYoqhvfqnP2Jp7zuAZo4mjCBXXG6BrE9Zndo0hrsV39daMKyF2ygVV3/3t2AkUimoQEIyXSGZcvFR6RkeHW69TBKivnFkrFoucO3OW418cZu++9zly5gJzmlr47ne+x7e+9wZd8xfNfFw/fqjm7UKIZ09CmngmJitF+q/e4OC+g7y79wOuXD5N2smyecsLvPLGbtau7aaxqfGuA6bREVpH2A+wXulxicZrnLl8kY8P7eOjvXu5dvkChcYc6zbu5JVdu1m/ZgX5xkZZd/aI/KrPxfMXeX//h7z78ftcvXSZpkILWzasZ+uWDSxevZquBUtJ43xpo/H7Pj5Ti2+jGrHlYFvO9MaHYKrMiOc49RBpzPQMmY5DjI6wpzbJ3DNwm/op/TvDT1yLpvu7RjqY3iTzZWIdoJR933AWRBG1MGRyYoyzp05y5PBxDn3xBdd7r5NPeyxds57vv/I7rNu0kcb2B5uJFEJ8s0lIE09NpH1s5c44jTMxMs6Zy5f44uA+3v/wU/pu3KCjrYkNO7fx8s6XWLtoFdnG3PSMWTz170mc4NR+XC8sbNcPptUg4EZ/L0c++Yxfvfc+PSePkEqn2bxhO6+8vIvVW9bT3iKbAh6HSGvGJsc5d+oUn36wn096vmD0xiDKsmhbMIftq7vpXrWJNavX0JhswC+45JL3D+pxLcbyLJSlCKgX2L09+uhAoyxmNGC/k9ZRPaQ90AcCQxT7OPajf3iIdYhS1oyQpkNNpVZhdHKM3us3OH3uHKdPneRMz0kGB4bJ5BpYuW4Nr+zazYZ1a+mas1Bmy4SYRSSkiacm0gG2clDKqq/1mrocABOjo5w4c5wPP/qQg3sPMDAxzrKupby581U2v7iVriULyaYaiGJDFGsSjkHH4fQsx9eh/RjlWphQo1wLHdcYGhnj2LETfPDer/no8CF8P2LzqmXs2fMaL2zYSeecDuyG++9wFY9GBzGTg2Oc7r/AsYNHOfDFQXpOn8JUJskuWsaazi66ly6lbfkiFnXNoy3VQrq1QDaVnLHu7Obv9PYm8DOeJ9QoNTOkmUhjDI94Cv3eIa1+nQeoqQ8p3leujytVS1QmKhTLRQYHB1bW9w8AACAASURBVDl79izHTh7j2uVrjA2PEYUhbXPbWb1yFRs3bmLVhm46587/0j6fQojnk4Q08Uzc69ROHNXoHejj8LGT9YbWXxzBiTUr1q9k97deYeuGrbS1zCFh2SjHoOMA+wGqst9PJQhIui7G19OzLhPlSc6eOcWH73/ERx98zGjvdVq6utjz+uvs2b2Lrq7FZJJ3P6c2McboB9qRKL6a0YZaqcql65c5cfIER04e4/y1PgZOnMFqS+DGCRa0NzG3rYuutStYNG8euUKBxnyehkIDTbnGB25HNv2cDxjSjNHoqPZA770ormFPrUeLYr9+2vO2meRqGFIZK1KulJislCgWi1zrvcqVc5e5ce0K1wf7GBgapVoqkW/Ms275GjauWs+SjSvoWthFe0ubzJwJMYtJSBPPzJ0Lu2+qhSFXr1/ns/2f8NFvfsPJs6fIFLLs3PEiL7/0KmtWraap0Py1az4VazUyiQSWqoez/is3+OTQp3z8wYecOnuGZC7La9t38eorr7J63RoKhcJdj3GzVROOwZh4RpkQ8eC+bINFrGMGRgcZ7Rvm8rHTHOo7zfFDPZQHB6nWajipFA1TXS8WzJnD3CWdLGyfTz6bJ53NkrcbyeQTpBqTJNMZbMvBURplO4DBQc3okfvVY42JoyqOd/eGhrgWYydtyr5POpGgGgS4hITGphbUqBbLlMtFiuUq5WKJ3uEBxvqHGejr49rgAJODg1TKZfwowjaGdC7H3IXzWbl0GSuWr2DZ4iXMb+3ELaTuGJNsUBFiNpKQJp6qWhji2ja2ZRHpAOII2/ZQ9yhnUCpPcvbseT58by/79n7EwFA/He0d7HplN9u372DV4mVkc9mvFdaqYUj/wA0OHf6cD375EZ8fOoinYPPO7bz6+mu8sH47rS0tKMfCRPqufpI61PXF5nJw/FpMbNBhfUZzOmyYm9fdem2NMfSN9jPaN8L1gQGunb/AhWsX6T93kd5SGXsiIsjGxH5EykvS0Jqh3ZlHoSVHoTNPobEZL5WikHDIJRtxkglSuQTJZAO2Y5FMeHhTBWgdy8G2bZSjMKFBJRUqBBMmIBWgKxG+rleAi6IIPw6ojtVwbMWN0gQF3+VKqZ8EPsPFGuVqkeLIBCMjAwyOTDA+MsrIxDBWwiEZWBjHI59O0tHZQdfylSxc1MX8zk46OlppzDWSTTXc931Wf/3i6c0KQojZQUKaeKpKtRpJ18Wx6webKKhg2Q6Wff8+hcXRSU6c6eEX773D3n17KdVKLF+5mrde2MOm7VuYv2Qe2YcsZhuHNYrjVb44cZRfffhrjn12mNHxCRYvXsRrr7/Bqy+9zIJ583Bva02kg7jebUFqnj1WxmiM0fUaZLFBB/WSFkYbtH93eYvbTVSrlCsTTA5PMDA8zEBPH1cnz3PjxgBDg8NMxsP4ZfCLPn5YAw3KtcglUxSsPHYmhdeUJpFIYDsWmVQCz06gLKveLcC2UZ6CwOBlHcKKxlRTqEINazKmHFcItcYGJoMSQTXGKoeMxVUygwHX41FioxkbGyOZTJJ3csRJcJI2hUSWhqYCjR3NLC3MYe6ihbTOn0NTayMNuTzZVMNXtsYy2jzxUjRCiGdHQpp4LvhRxODQEIcPH+KX7/yKnkPHMMqwcctGdr+5h21rt9De0IKTu3sx/3R/RuqnWMvDMRd6j/H53sP886/e5sK1KyxatIg3X3uD3W++wtKuJSS9p1fi47edNjFaRzj219+IMVmt4hEQBIaBwSFGi2MMj44zPjRC/3AfY6MThJUKfimmWJmk4hcJgpCwFlDzQ2qhTxAE6DBGxZqSqZfosKmX8fCNQUcRjueRcVycGCquIp9OY5Qi4yRxsy4mAZ1eGpwciVwDnrJpbW9lXmouic4shY48C3Pt5DvasVIeKWOTSLhfutv0Xkyk0ZGWGTQhZikJaeK5YbQhCCKu993g43ff59fv/YJLp8+Q7mxj94sv8+3NrzFn83JacjkSN2cgTL3SutPgUqwUudF3nc9+dYZfHfkZJ48ewUtn+N1de9jz5rdYs3It2cbcdAkOMfuUfR8V16gMGUYnx6nE49T8MpXJMuVqSDWsEQcB+BFx1ad2820Ux8RBgO15xH6Ak05hGUiHCtOYBqXw0hkacEl1ZNBZaLdaSWmPbGcrWSuBm3bvu9tUCCHuRUKaeG7oUGPi+qxB1a9y5uJZPvjl+/z6nd9wfaif7tWrWbNjB3u2bad78VIy2QTK8ShVy0xOTPDZ0UO8/94+Dr7/G2puxM5NO3nzu2/x0sZd5JvyEs6EEEJ8o0hIE994Rhsw3DNEVctVThw+wc9+8zYfvP8eo2OjbNm4he+89m3Wb19JptDK0eOHOXjocz59/xMuDwywfcV83vrDP+Vb3S/SuLhdFv0LIYT4RpKQJr7xdBBjtLnvupsojhkYHeX4F4f44U//K6cOnkWnYtZt3kZHczMnPj3A2atXmD9nHt/5l3/Aa6+/zJLOxdObFwBMrFGWBaq+U05ZwNdsyi2EEEJ8HRLSxHPFGA1G10t2mPos280ZNqNjJoYG+ejnx/kvn/4Nv/7FBzAEKzcv4rvf+zbff/33Wb5hJdZtJTTqgUwRVULspI2yLeJKhPIsrIdcxC2EEEI8TrIlSDxXdByiIx83mcPEmtiPcTL11d3Ksim0z+Gt/66V+bvaGbsxzKdH9vLn/+rP+OM//S7Jhha4o8l1XI2wU870YwDYafmzEEII8ezJVIF4rthOAjeZA+p9F28PVzc5tsOyjsWsy3XTlGhj4aouEpm7AxqA0+DKhgEhhBDfSBLSxKyklWEiX8L5imKgQgghxDeVhDQxS2kczzBcLD7rgQghhBCPREKamHWMjvFLI0S+oi2Xe9bDEUIIIR6JhDQx6yjLJpFpxRiD7/vPejhCCCHEI5GQJmYdow3hhI9SikRSenAKIYR4PklIE7OOshSJxiTZbJb+8fGHuq9fGSWOZPZNCCHEsychTcw6sdb0T0xQLBbpyOfvuj0c96dn20xsCCcDTKQBSKQbsZ3E0x6yEEIIcRcJaWLWsS2LtoYs+bIhCIK7bnfzHspSuDkPZSvcrIea6i4QlSKKoSZ82oMWQggh7iCl1cWsY4zGj0tMpBWjCe/ub7jZk3Pqa0mBFZVJ2kmcjEPDPYreCiGEEE+bhDQx6yhlkbSz5IsZMvbQjB2eBw8eJI5jhsojaK3ZsH4rc1vacO0USlkE1XEcN43l3CPcCSGEEE+RhDQx69ycSStlqjTETXjercD1t3/7t1SrVbpWr2T08hX8M4Zv/zev4TU3AOAmsiglqwCEEEI8e3I0ErOOURa+myGRSzEyWUGpW6cvdblC1/IV/MkP/gXL12/g2PVDlGq3uhIoy751OlQIIYR4hiSkiVlHGY1TGcev1cin0zNuq8QRK5cuYW5HB61zWwhMFW3i6dsnqlWCKHraQxZCCCHuIqc7xaxjlCL2sqTHk6D1jB2eKdvBtuqfTWxHEVUqGK2nb0973vTtQgghxLMkIU3MOsoYrKBELenjOA6Oc+ttnsplcV13+hRoPi7gmFu3u7b91McrhBBC3IuENDHrKBSpRBon5zJeqWDdNjP25g++w/x5i7EdhxUr1pL7l3kamrLTt4d+EdtJYtnusxi6EEIIMU1Cmph1NDAZxIRhSNqbWUpjx5YXcJwEtmXRNWcena2tpBOp6dttJ1HfPCCEEEI8YxLSxKyjgKTt4JVCbKUIw1v9A7LpW7NmCdcl4c6cMbNsqY8mhBDim0FWSIvZR4FtRYS2YsKyZpzu/CpxLcLE5gkOTgghhHgwEtLErGMAX9nY2uAYjf0QmwGUbSFdoYQQQnwTyOlOMfsYg4p8jKUeug+n5crnFiGEEN8MckQSs45C4Vo2Y2mDMYZIitMKIYR4DklIE7OOQmHFHqlAzWgJJYQQQjxPJKSJWcdgCFEUlEctimYUsxVCCCGeFxLSxKxjgNgOqCUU2shOTSGEEM8nCWli1lEYEnEMk0b6cAohhHhuyRFMzDpKKSw3gR1ZhHH8rIcjhBBCPBIJaWLWMUBMRDVXJSHr0YQQQjynJKSJ2ceANg6WBbXbWkIJIYQQzxMJaWLWMUA1CLGqilwy+ayHI4QQQjwSCWli1rEU5JMeXmioyJo0IYQQzykJaWLWMQZq2qfqKaqOg9b6WQ9JCCGEeGgS0sSsYxTEeKQDQz4MpS2UEEKI55KENDHrKGPwgiKVjI3lOHie96yHJIQQQjw0CWli9lEWTqqRVCrFeLn8rEcjhBBCPBIJaWLW0VozWipTLZZpyWYx0hpKCCHEc0hCmph1bMuipaGBhqohCAKCIHjWQxJCCCEemoQ08fTca0LrCUxyaWBSwWRG4bouiUTi8T8JYIyZMUtnpq4TQgghHgfpmSOeHAOoqYvGEEzUIGHN+GgQlUMs18Ly7Mf61MkgQDkhAxMTBGFI4AfTY3lcyr5PrDW5VAqAWhQSRJqWXBal1F0/v1KPeQBCCCFmNWXko794QsJxHyfnoSzFULHI2ZMn2fvhh/T29j7xshi+7/P+u+8SDg2x7NUX2JnbxmhhEvMYp+6SIQQ2+A6kQtCtOV5atYEdr+9kXmMnuhbhZD3COGa8UqE1m31szy2EEGL2k5k08VhVJ/vxs+3klcIt3DrNmLN8Tp09zV/9+3/PlUuXaGpqIlCKMI7JuC6R1viP2B3AsSzSrsuk72MpRTaRoOj7tOfzuO3tXO65xElnP065kbFqjXwyyaTvk/U8SkFAbAy5RIJKGBI9QOFbr5YkkYoI0lWopbAtRbFcxq3VGHz1dbZt2IbVZmG59dIfrm1LQBNCCPHQJKSJxyqVbSep1F1nFv1MM9XYkM/n+bO/+Av+4I9+j7b2FuyREJOy0en6OdBCNYXWAZMJn1zUgBXFTCSqZEwGz4exZIkkaTI1h5HEJBgbayJCtyUwGFRksIdCojle/fSiBqe3RjQvgX3dJ5qbwOkPiNpdnMGQuMXFuKp+Oe/QEmUpqSLVhKHZb6BmqpSTEY1BA5EOKCYCcBysyQi0QRccrHLMZx8f4P/6z/+BUi6B3eI+/RdeCCHErCMhTTxe9whoAF55lDbl4WRqLHDnsa5zLR1drbD05v2mvhgFGIy6eRmMMijqa7wWTF1WBuYpM7Van5lbYFbc8f+lU/9fMvV12dTX5bd935L6GCwUZsbz3325Pqjbxm2gWvXpfKcTXdPEoyG012/WcUhYmySRaX7ol1IIIcRvNwlp4okIJ3ycbH09GoAdZygrjfHTmMYyKhVhW19vs8B9733nnmXrK77ecflRlvcHYUixWKTQ2oTVeGsmzbIdvHTjIzyiEEKI33ZSgkM8EbcHNACnIQG2BUZRDg3RY+x5biJNVHy2tdBcZZGybExNo8fD225RaGVRemYjE0II8bySkCaeiNsDGsBYtUKo6xsDssU8bvj4+mkq28LOPNt1YKHR1OIIEhZWfuYEtQ2kn82whBBCPMckpImnImlq5I2NjUIXShgv/Oo7PSh1dygEwEA4eWuGLZwMnkjxXKjPpCVtGyvQ2JP1MGoiTVSq/5zyhyaEEOJhybFDPDFRMcDoeipKpvMUa2WiOAInBusplOdTYKcdilP/jb0aKDNjXI9LZDS1OMZ4FjpbXy2nbAs7Jcs+hRBCPBoJaeKJsVPOdJV9y3JQqSRYFtUAHrEk2kOzHIVVHgHAS6QBVR/XvWbevgZbKRK2jQo0Vmnqh1OgbOkyIIQQ4tFISBNPjHKs6a2S45UKGlBK4TpgPbV3niKVaADAUs6tcT1GsQ7xoxpBHGNcC5N5vC2uhBBC/HaSkCaeClfXyEytSXMseNJtLLUxDE9Ocvz4cXTtyT6ZpWwSyTTJTAYVGVTlKU0TCiGEmNUkpImnIpXM4PtV4jjGnmhABQ+/G1NHAVFQvut6ExviysxeoNpobgz38h/+9j/RO9l/133GKxX0fdrWRn4JHc/c2BAFFeKoNvM5Ao32Y0wEUTki8H2MozBJ+bMSQgjx9cmqZvFUWE6C2HOIkzUqTpVYPfhsU6la5vLFS5w/eYaqX2HxkmUsWbOMfKbAwOgwp3qOc/3cFQrNObavf5Gmuc28+9FH7Nv7Ie++8xuaC03s2PES39q9m8gv8pu9B7h06gxd87vYuOsF2pqbqAQBn+zdS6lSoTQ+imM7rN6wluVLl5FOpLFstx7KtMby6iFM2Wqq24HCssHWGiKD8uvhz5iYSIe4dvJJvKRCCCFmOQlp4omZrFZpSCaxlCL0i1i2haVdnMgjjkK0ibHUl6/f0qFmsH+Ak+dPMz42ThwFfHLwABVC1nWv4dBnBzj/xXHclixu2aF/qJ+mzmZszyJdypPJZmjMFGjVGQDe+fBj9u8/QCGf4dj+A5iEZvfuV1Em4mc/+SdCbehetQp8zbWLV+nsmDsd0kJXo5XiZoW3+qaAqVOptiIyBmww3s3Tq9ZX/nxCCCHE/UhIE0+Ma9vTLZZMoDAaVOzieBrbUdy7y+dMylJ4CY9CYwHXchjvH+XGmV4u5S+woGUu506fpbG1jd1v7sGzXBKJBJ7rsXn9RnKmmdP9h3j1d95kRct8LGVx8MAhGlsKvPn6G3z+8X6OHjnCls3baGkuUI2qLJu3nFde2k3CS2BjkXZTAOggxlIKy7n3mJVS2FMN3YnMbddJs3UhhBCPRkKaeGJS3q2uAk4iRWw0xhhMysdyLZT66rVbylYEUcTo9UHGB0cYLhUZHh9mXnUecRRRqdToWraCpYuWYLRB+zGWZdGUL5BdMIRre7S0t+MV6jX/i4NDrNuwhuVdyzh17hyj584ThhHVWJFoyLBhaTfLFi4hWUijQ32rVIeqb3jQOiRGYVu3/nS0iYjioL7GTQFSdkMIIcRjICFNPBWaGkljY6HwQ9AP2LvTRJrRwTHOnb+IExsamvPopKHq10hkU+Qasgyf6+NozzEybhobm65lXaAhOamphiEXzp7AWractkIrbU1tDN8Y4mjPMfqv9ZFvasJxXQg0GIPJKMzU5Jfl3gqRxo5B3W/2T2E7Lk4iUV+j9pgL5QohhPjtJNvQxFOiuNmTya6kUNGDr9XKpRpobmzGJB28ZJK2zk7yTU3kC3lWre3Gr5X46OOP+ezwYSbGxgGwLEVjPsuCri4O//IAx8+cwBjDlpd3UJko8+kv9jMxPsHGrVtpaGjAI2LenHmkk5npGBYAd25vsJQzXW/tpliDHxvMzZk0mUgTQgjxGMhMmng6FNRUjMbgPUQxW+VYzJs/l107d3L12jUSls2q5V10tM+hIZNl48aNNGXSDF4dxuso0DGntX4/S9HQ2cTv/+AHDJ4eIOnVNw5s2LYRz00x0TtBssNj/aZNpFIpTFTjpZdfZX5jJ45zd/N32/rytWUmitBBCJnbrtMGE2qshGweEEII8fAkpImn47aaZDpTxTgPXoIjncuwat1qlixZghfFqAxYtoNtWbQ1NdOyaTv+4gpRziE1fYpSkUxkeGHrVoprqvVrLIvWfAubXtiCMYakC66drLeu8tJsXLceXBc1lSDvjmr35tp2ff3dzcnC28523qcUmxBCCPGVJKSJp0IpC29qTVoYPfyyLc9x8PL3frtank2qLXvv5wVyqdSM67LJe9ctyyQSDzeo2xgzdbrTAqY2GyhLYSdlFk0IIcSjkTVp4qnwdVwv9moHmJoLD7Em7ZvOmBhj6iU6bi/BIYQQQnwdEtLEU2Fsh0DHYGsc7aDM7Fldb4xBK4Ox7fpflDt7fjYhhBDPjoQ08cToUE+vz/KikKTr4eosYbqGdqIvv/NzINKaMI5R2Lgqieu6qBhU8ID1RYQQQogvISFNPFa18FZjch3E9XVagG1nKJmYWhRgK3Nz2dZzyegIoyOiOCaMY0xsCKs+fqWKdhTxHQ3WjdHoyH9GoxVCCPG8kpAmHqtKEEwHMyfjTlfsj/wAx7axlCKquuio/tbTJsYYjYkN5msXgTVoM3OG7kmEIx2H6Dgk6bqkPQ/LtXBTDo5lQWQw1Ttm0owhjmqPfRxCCCFmNwlp4rFqymRQqt7K6fbIZdwYlMFYEZk4gWPqGwe0DuszTWGM+ZoL7o0xRHFw+xVEQflrPea92G4K2525YzQ2hlDHKEdhpW/bFGHAaIVK5h/7OIQQQsxuUoJDPBFF36fRtus1yADLr+981K5P1DiO8UIirVHYoBXKA200Oo6xjEKjQGksozAojDJYBgwWWmlsDMbYaDS2MmBsYjSOcjGRxgARGscrEEQRjtIo4xCicZRBGZsIg6U0lrGIAEtplLGIb7usAY3BUmZ6XBqDhcJSoJUBAxaGhO1gRwardGs2z2hD5MeEjiV/bEIIIR6KHDfEE9Gcycz4v7Zq2ADlJGPDRS5dvsSNkVHsKMQzDsYFH4OlIzxt4RsPo3ySQGASxCogqTSxSRCpkAQxWqeoqYiMClEmQ1kFpI3GIUVkYsqWJqMtJlRATmlck2FChTRYPkRJJlVEWsU4OkFRxSSJcIxHzQJb1XC1RxVFQEwSQ8I41ABfxSSMTdJRBJZGGzh35TwTlTKNrU3o2ybZlK3wMu4DF8YVQgghbpKQJp4Ky6TJOSliP+RXv3iPz48ew/YcnKgBbYVoyydlJ9Fo/DjA0vWQp60ylk6BsdF2Cc9ycS2HclRFGQ8Vp9DWOAnjoY1FzXdJJmuUozK5RI5SVEbFMSZoIZOurwtLJVwm4yraGOyoCe1MYoiw4wLaqpB2HQIdEOpbM2KWbgBitFWdnh00xpCwPSws+oYGuXF9gIULuoirT/3lFUIIMQtJSBNPhUnFNHW1sOeV17h8/QrahBjAUVW05RBbWVRcb1DuuQmsqRVthoapbksKiywGg9GQJY0fB1TLw/T3DdB74wqhNji2jZdIkEylyDU3U0gkKff3cWX8CH4QYFsWL65dRqJpDm4yhe1EoJJoQLkRBg+DIk0SZRu0paa7PSlsDA04joMCwiCq32DDsjkL2b58A5t2bCTRcvt6NYPRGmXNnuK9Qgghng5ljHQXFE9HVAyY0D6RMmRUQGBsQm6Fl8R4iHYUYYNDUtVnsQz19V46TpCINaW4TGkypHxtkKPXTnPm8DlOHTvNlZEj9BYjFnV0sG7DBtZt3syGlatoUBnePvAu+379LodO9ZBxbd741hu8/NLLdG/dwoJMC146pET9OX3jEGGRHAnwMppq0sVRmhiFhcFQD20A8SRYscE0WthoqsYl4TgU0unpn0nHIZFfxEs3PcVXWgghxGwgIU08O/XpqfvfbAxaa+I4xi/7DF2e4MSpcxy6uI9zPT1cvHiRoFqms6ORRbt2s7qzi01r1rB41Spas9mbD0K1OEhvzyB7L57gp2//kPMnz9GcbGTNzi18f8ceNuzaQrYxj+s6WJZ170Hd/Ct5juu7CSGEeL5ISBPPTFQKsTwLy7u9ZIVB63o4m6iU6bvax7nTZ9h/7DNOfHaA4etXqCqHpuYC69dvZfvOnayat4hVbUtIL23+yue8cPAEH587xk9/9WNOHjhOHEds376dt956i5d2bKR9zkLcRGoqrN0SVyKQhulCCCGeIglp4hvBGIMxhmrvBH3X+jh+4RT7PtvPgcMHuTpwHi/pML9jFd0bNvDythdZu3w1zV1t5FIOCafhoZ/vXO95Tr99mZ/u/0cOHv6UcrnM1q1beeONN9i6axdd8+eTTiSmNwkIIYQQT5uENPHMjVUqXDp/ntNnznDw0CE+P7iX8+cv4NhJ1i5Zysbu9WzdvIPVm9bTtngujbet+bqdNjFBVCbp5h74uQeLRfYf+JCf/+NP2Pvhx0xOTrJy5Ur+8A//kJdff52uBQtIe1JAQwghxNMnIU08dVExYDz2GbnWz6eHP+PTg/u5fPwQp69cQ3lp1nWvZt3GTaxftY5VK1fRvmguhXS6fgpSqce6LMwARmsGJiboOXKEd37yE9559z1GJsZZvnw5b23/ffZ8/3WWrV9IJpF4jM8shBBCfDkJaeKpGSmVGDrfy/HDR/j4831cOHmIK30DVCPDiq4uNm7fzub1W1m/eintC+aQSOWxbQul1H1PO2oTEca1e57y1MYwVCzSnrs1s1YrDZLItKDUnU3QDXEcMzgxwbmeHg6+/S7//MFvuDrYT8fCOby8Zw9/sPMt1q1dg9eaufOphBBCiMdOQpq4Lz8MqQQBjZkMOg4J/SJOuomyjklUx3AzLRSNJlEeJtnQds/HuNh3idqNMvuPf8EHn7zHqUPHGff7aPCamNPSyfqtW9jx8g7Wda2itbmVRCaJ49jTs2YPYmZhjJm0MVi3PY4x+q6Aduf3x3HM0Ng4l86f48Dbv+EX7/2anr6rzJ0/l2+99i1+b9dbbFy7Bq/t/mvhTKSJaxFOg4eJDVE5xM3JaVMhhBAPTkKauC9jTL1OmaqXczXGoFS9n6WaCjsaUDqeUax1sFjkYk8Pl06c59AnZ/jwzI8pXh4i1dTG4vkLWLVlI1uX7WH1qi5aFxZIZlN4tjsVzJ7RD3sHbQxxFOFXa1w8dYH3PvqA9/a+z4kTx8ln87zxyuu8/p3XWbd1A22F1lv3CzU6iHHSbv31sqa6E+hbl4UQQogHISFNfG3GGAYni4ydu84Hxw+w98CHXDpxjksXLpFrKLB+yxqWr1zNpmXrWL9lPY2tTSS9NJ7nYjvfnGB2P1EYUalUuHTmIu/t/ZhfvvtLTh0/TiFf4LVX9/DWd77Dum3raW9sA8OMcAZgTEwY1/AcOU0qhBDiwUlIE/ekQ40JY+y0e8/bY60Znphk6Nw1PjrxGZ8c/IhrPZcZvXqZoq3Y8cIOVq9Zxqr5a9i4YzO5Qp50IkUynbyrBtnzIgpCSpUKl69e4LNDh3jnV+/y+aefksvneeGlXbzxyrd4adNW2hbPu+Oet2YhhRBCiAclIU3cmzEYw63TdbGhMlmmvzRI6UaRvccOsu+DD7l2+QqTlRJBt1uU9QAAIABJREFUUGPd0uVseHkbK1avZk3naprmNpFKpElnUqjnNJiFcQ1L2djWrbAaRSHlaoWhC33s27ufn+19h1M9PVi2w+Y1a3nrre+wddM2Gue3zWgRJYQQQjwMCWnivkykKRXL9E320391gOM9pzh65HMOHzlBHPq4lkVXRydbVrzG4j2drF/STa65kUwmQ9JJYjnPZzC7nTEauPfuUhPGFEtlrg728cXRo7z//m84euwIfq3KqpULeX3399j54ovMmzePQqHw9AcvhBDiuSYhbZaZqFbJeB6ObRP6RWwnQWB7GL+EZ7vYzq1aX5UgAJhRrNUPQ8bKk4yPDnPt/FWOnTzO0dPHuHzmMmOlEnPzjSxoaqPrxTWsXrmaVQuX05RtI92aIpN8sFmjMK5iWx6WsoniGpZysCzn8b4QT1GsNaVKhYFL1zlx+CjvHtvL4c8+Z3KyxtqVK9n18i42btrApjndJBfUw5oxhtFKheZMfZ1aUBnFSzVSVgqnOo6XzKKUTVQOsZMOyv6GL9wTQgjx2ElImwWC6jhuIouybIIowrFtLKXQcYiybLSyIA6xlIUOQFlgeTaR1gCEccxEeZKhoT4unL/ImdNnOX22hxsXeymWiiStBKvmrqRrxzKWr1xK94LlZFoLZLNZMsmHXwyvTYxSFgpVv4yaFeu1TKiplMtcHx2g59QZDu7fz4FPPqHm12hvb2f7uq1s3P0C3WtXMK+lEz+KSDj1cKojH8tJEAEqCrBtF5TCRLoe0KQ9lRBC/NaRkDYL6MjHsr37HsjjWoTlWCjHwsQGFFSjkNLQGAND/Vw6f5UTh09w4toJJkeGiGtVTLKBpV1LWLJsKV2LF7FmUTf5OQXSDelHCma/TbQxVGo1hgYGOHLiBMe/+IJDhw7Re+MG7XM66N7czWsvvzEd1u6nAthxFc9KzIoQK4QQ4uFISPstYCINliKwFOP9I/TfuMyVs9c4c+Ysx68fZujGEFFV4Ta4LFu4mGXLFzNv0RKWL1hGy9wWMtmGBz6VKW65GdbGhoY533OOvZ/to6enh0vXLpPPFtjQvZ4XXnmJjUtW0zmvE7fBm1GOJASUjrAt+77FeoUQQsxeEtJmiSrgVCOchD2jRlfZ9ykPjnG1r5ezF89x/tRZzl45znDvCFGYItPRwML5Hayet5xli5cyd+kCmpqbaGhoIOWmsFyZwfnajCGoBgyODnH92nUOfPQpB3qOcKnnDKlCA6sXr2DXnlfZvm4j+XltFBoyM7okCCGE+O0kIW2WCAA7iLFdi1IQUBwY49pALxeuXOLc0ZOcu3SBvr5eMJBryzOvs5NFC5ezYuUqlixaQGu2kUIuj525u3WRiQ06jLGTz+/i/m8KHWtGBoa53H+dT/d/yLGDJznVewYrGbNh4WbWb1/P7i27aV4wh1wmjf2cli4RQgjx9UlIe4r8KEIbQ8qdWSA2imP8KCKTSNznnl+tWKtRGxyjb+wGpy9coufwSS5cucj4+BiB79Oca2LR/EXMWd3J0uXLWdyxiEJTnlw2RyqR+tLHNtpgIo3l2V/6fQJ0HKLjEMf78tPDxhhGx4a4camf/Xs/4tNzn3P+9EWs2LCyaxU7t2xjw4tb6exaRCGbfaxhLdIaPwzJJBIYHROHVZzE/fuQCiGEeDYkpD1hfhiCUiQchzCO0caglCKOY1JTpS9irQnieEZ408ZQrFaoVkvEEyFVXSMMQ6pxjVolxACqGqGMoaJiBocGuXC0h5OXTnHp4mX6h3vxrATLl65g3bp1rFnazcrV3bSv6KApXyBlJb903CaeCmaJmcHMGE0cVnA8Oajfi9ERWkfYzpe/vrcb6x3k6tggJ/Z9zv7jn3Cq5yxq2GLuphZe3LWHrRu3sHDxYhrzeZw7wlo1DLGVwrttl2gIWE4COw4wWmO7ScI4Joxj0p5Xf79FESnPwxiNjnxstx7UjTGUfJ9s8sHHL4QQ4smQkPYE1MIQa+rA6UcRCqYPolAveRFrTXIqlAVhwNjEOLXxKr0j/ZTGxymOjzNULjJeGqFyo0Q1rlEqlSgFZcYnq2hVI1M0lMOYqoooT07S19fH0OgofrWKnXHobJ1L95IuFnYtpbVjDrnWJtoKTbQmGknksqRa07TkGmnMN5MpNEyPB6ZCWnz37Fk9pNW+cqZI3K3+2lVxvHvvjg2GylwYvsgXx3v4+Nf7OXHhAFFosWLJcrZt3cr6LRtYumwFLflGHLv+e6mFIbZl4U79X8cBkQHleNhxiDEa20kQxTGh1tMfBIw2mPBeIdxQDgIavsasrhBCiMdDQtoTcDOkOcSgVL08xhQdh1T9ChPFMqPDY/QO9HPl6kUGevuZGJrk+nAfAwMD+MVJGlIuYSaBFTi02EmqKZuUcVBRhrBpgiadZjSoknJTaK25+asMdICyFUZbuCYmCCJ8HRP4AaYWogIbL5uhMCdHZ1Mz7a0dtHTOZW57O80dHczp6KAhn8ex7emDuqa+29C7z8EdIK5G2ClZt3Y/XxXSbir5PlevXaTn8xN8dOATLp4/h18ssWjxXNZs2sbGLZtZvmwlzYXG6XD20GO57fdoqK9plFgmhBDfLBLSnqA48lEoIiyqxQqTE2P09l/l1MkTnLp4hcGBYUaGBxgb6kMbj3w+T765GS+ZIJdvYGFTAaellcZkiqZ0C3bBo8nLk6GJuLlG0klQi30avMyMkOZrHx2FFEs1KsUa1WqRsckJSuMVRsaHGBsaYdIvUqpVCIcnKE9O4BuLTDZHU0c7yxfOZ/GCxSxYtJTO7rm0ZVvJZnLTIU0H9U0ExhgqQTC9li6uRNhpCWlfykDsx9jJLw9XlSDAqtbovdjLZ0cO88HBvZw++jnjpQrzly9j+84dvLT2JRYu6CSZ9rCmSnSohIVK1E+JerGNpzzIuDNmSe+kqYc0OcEphBDfLBLSnqC4HDA+Mc6lgV6OHjrC8WNHuN5/nYHeG5QqVZoLzXQtW8CSufPINXUwr2sBbXPm0NrUSENjlpSTAscmZcVEiSxOXMW1v3yR/520HxOrkMAYIg1hWCMuVhn3JxkYH2Xs2hC9165z9Xovvb036B3qJypN4GhFvnEOc9bPYfPKjWzo3sDczk4KTU3Ta+n01PqlnKxfenDGENfi6RnHKCgzMaCoMko5rODXQiqTRYYnJqhOlAiGJhmeHOd8/xX2fbKf0ydPEkQRbXPa2Lh4Ewu7FpDOJnBsC2XbWEmPdCFFKpEgrRLkMgWyTU20ZRvxmhJkMynSiQaSXopUY/auTSxCCCG+OSSkPQEVv8Lg0DAXj5/l0KHP6Tnbw/kLVxgplenq7GDNmm6WLuliYXsn81YvYUHHAlJe8pmVuPCjiMmxSQb7+rnaf53rvVc5df4cJ744xujwEJmGNPPb5rB07Vq2bN1Kd/cKOtrmToe120U6wLHuvl5Mrfeq1RgfGWG8WGR8ZJiBoavcOBVwrXiO0ckhKqWAcqlE0oQMjWtCylgolNYExZhA19AqBtsGY+pdJozBcjV27BJHFnZSkXRdLLveZcLVHimVwmv1aGrM0dI0h87WOXQuns/cfBNeU47WpiZS2TQ5t+Gep7KFEEI8fRLSHkKsQyzLwYQGZSuUpdCRj7IcYsuGOGDsxgRfnD7Chwf2cfjQIQZ6b9CYSNPdvZ61W7fRvWoFK5cspam9+YmNU4d6enyPIogihkdHuXLhAmcunONkzwnOfXaMvqFJCh1ZNu3YwvYXdrJt7QYaW1pmhLUwquA6KbijQn4c1bBsb9a1NzI6whg9Y93hTdoYqtUa1fEiA5OjjI2McGWgl+s9pzh5tZfeixeY9EukVIKKMTjG0JBMkss1sbCQwW1pIdGYpSnfRCGTJRemURkL4wGOMyOkEcdYFQjDiEldpFQu41eqTE6McmN0iNHBSSrlCaqhj8YmY9k4jkPK8kgvaKZ78Qo65s9hYdN85i2YR2trK4lCfQdv+h5hHGb+Tv0owrEsqesmhBCPkYS0hxDGVRwrga7Vdz3GtkL7JWxchipVLpw7zqe//JxPPt/L9fE+WnKt7Ny+jRd2vciK5Ytpb2ubLnXwJMXVCMuz6425v6YwjhkZH+f6mYsc+fALfnng1/QN9+GkPX7nlTfY/eK3WLN5GblsYfo+Ooind4XWwpCE4xAFJRw3jbKe71kaHddLqlhWfdYzjnyMiXHc+m7XWGtqYUCtVGXo+gjnrpzi8qmz9Fy/zI1rVxkrjtJgDON4NDtJmpe3071gGfOXrqSxUKC1UKAxVSChLJJzmlCuQzaZvKv0xlephSFRWCOOfCaLVYJJn6I/yejEKAODY1y7cIHL13u5dvUKE+EIVtUliiLSqTTdS1exYsUyOlcvZ968OSxs6SSZbyDluaipTgghYPwirptCWQ6lWo2E6z7yRgYhhBB3k5D2NVQBJw4YvDbIh3s/4kdv/4iTFy6wtKWNPXu+xa4du1m5YjnZlsJXPtbXpSMfZXvTB9Gb/TofdTbtXvyaz/mec+z7bD/v/OJXXL18mdWda3nrz99gxwsv09rSTtJ1iUohKgW27TBRrdGQSGBbFjrUWI66byP450EcVolR2G6S2+OI0YZatcbA6DAXr13lwonTnDpwkjPXjzIwOUpjro32xlZaO9tZ093N/EWL6J7bRbTYZU6UwUsXuHP28UkJ45hirYb2Q4o3Brg41svV81c4cuwYA9duMFKaYHJikKZCO6vWrWBd53IWb93EkoULaGxuJuV5VJWqbzSIA5TlzLoZUiGE+CaQkPYV/CjCc5x7Hj6DOKb36gV+8vNf8OMf/RN+UGPbnpf53p632LZuA7nm/FMbZ1ibwPEapmeq4kqE5dXXJD0qow1oc9djhH7I2WOn+Kef/X/8/S/fIZ9L8u1vv8XvvfHHrFg9D8d2CaZOe97eGDyuhFgJ57HM8D1LAfXXxjOgbEXoB4wMjNDT08PHn3/CqdNn6bt2iShZo6t9CUtXrGbjhi1sWLqa/Pw2CulvXo25WGvGiiXGrvTT03uB44cOcf70OQ6dPUULAQtXrWPFylVs3bmT7uXLaSk04yZcQn8S20tPzywKIYR4fCSkfYXRcplCOn1Xw2sdh1y82svf/eM/8M8/+idy2QZ+8Cd/wPd+93vMbZvz1MdZ8atYlkPCcaZn074uE2l0oLHTDgZTX3ul6iHQGM3k2AD/9Z9/w9/9zV8zNjzCf/vKv+YH/+53WThvCdYsn1nRQYz2YyphlbPnzvPBu+/zwacfcvnaFdra29i6eQubt77A+hWrWLJgMU7m6e+iNDoGDOoRApTRhosnz3PgzFHOHDzCgROfMzIwxMKuLl544QVeffEVFq9eQi6Xl3VoQgjxhEhIe0Qjg9f5h//8I/7qb/+GBc1z+Nd/9qfsefM1mpqa7vpePfX1SR7KDh4/REOmwOJ580l6HlpHKGU9ttNQ2sTEsY/rzJwFCsOQX330Dv/n//G/M37pCn/4v/4v/A9/9N9TaCqglCKMYxzLuuvy8y70Q/ov9rJ3/z5++tEvOHWih6bWZva8vIs9L+1maecy2hZ3PtMxxmENY6IZLbzuDNsPonJxlE/7jnLw/X18uH8v12/0snrVGr73L77Hnhdfoa21DduRtWhCCPG42X/5l3/5l896EM8DE9d7bqLA15p9H+/nr/7Tf8TzHP7tv/kL3vz2m+Qa7732LKAe1J7kCaG/+y//QHl8gsWLFpFMJon8IsqyH22hvjFTGwenwpQBtMJ27t7lZ9s2SxYuobGtjY8/+YKTZ0+xomkRc5csxHEdJqpVEo6DpRTFWg3Htp+7mZf6jNSt1yMMQs6fPsf/+8O/5//+4f/D8MAA337td/jf/s3/yO/v+T5d3SvINOYe7LEjPWPdoDbxdLCuX1Y86lo1y3Zu7To1BqPBqJg4DrGVi9HmgdYsuo0puhZ0sWrTJhav6CIKQj75/AvOHO/Bi2ya21vIZDLYtj091FjXP5rMhkAuhBDPioS0BxSXQ5RbnwW6MDLCP/z1X3Pk2DH+6E//mO98/7s03mMG7SaHOwLabSEoCEPGJyepVKuUSiVqNZ+k7YJjEYYh4+MTlMbGiZQm4SRQlmJ0bIzJkTH8KKRaq6EsxXs//jm1MKJzwXxQCtdL4zj1jQTFUolSuVz/VyqhoxjHtgmigPGJCcrlcj1EToUpHRlMoLHcelgwsSb24xl9PE186wBvKYtFzfOJUjY//eHP8UpVVu3cSmMuRyaRmD5VnHTd5yKg1UOZAlPPHHFYAaOxbJcoCDl78gx/8/d/y49//WM629v5n//Vv+NPfvBnLFu/BCf7Zc2VDEbfCmEYiEpBvXvD1OsZRBVsy5maeaxiKZt4ahz3CzzGaLSpd5xQKJRSGOp12Zh6n9V/pzGW64CyUbpeVNfyrJlj+hJpz2Px/C52L9tGfm4bp0+f4oOPP2CiNsm81k4aC43TM2pl38cAN5czSlgTQoiHJ6t9v4Qxevrg5WRvzSL1nzjJJ598yvoVK/jea9+mvaXtoR5XhxoTGey0w9Vr1/jp22/X+ydGEUnl8ievfpem7k5OX7nEez/7JcVLvczf2c33XnqLprkt/PXf/R39nx2nce0yPM9j+84tZHSekZNX+KH+EZlsAy/s2sXaVSvJJJO8//HHnDl3jiAKCYOQ9YuW88K2rVyd6OeTT/fjV0JWda9nx9attDTl6uHMvXXQVo6Fc9vmAaMNcSW89Zoo8ApJfufNPbz7D2/z2dUz9F07T9fcudjPYWHbKChhO0lMYKMchZOony7UxnD5/GX+w3/8K378zs/ZvG0n//Z/+nN2btuCm2j4/9u78+A47/u+4+/n3GfvAxcBAgRv8KZ4XzooybVkW5Eiu/Ehd9w0jpJOR26SaZNpJn+0M510mmlztEnGTqy4adzYrWds2XJsSaEpkbIk3uJNQqRICgRxEYsFFns9969/7BIkFB6QZUmQ/HtxOLOz3OfhXsTz4e/4fu9wVhBhiFsrEok3auQpYKTroc4vu6ipCBHj+nkM1UJRVErVKgnLQleVqZE1IUJQFBQUgtBlrFQi9ANyySSRSBwP8LwQKxBoUR3VUBC6hhcEVF2XTCyGnlARoY9nT2LG6v/JuPE7fyvRBTkebX2MXEsTT3/tq7zw7POkrRRPpJN0dXWhairJRhcK3ymDqk6VKJEkSZJmbvYPa3yAHL+CYPqSvSAMGX5riNHhEeYtW0Yym33H51VNbarHZalQ4OyBg5SHhlk6bx6DQ5f53qFdVKsV9r28m2rfEHO3rOHUweM8+8qPEUJw4OWXOVMeYPfeF+g9dIgDrxyiEMtz0XFom9NEMDzKq7tfJH/1KgDnTp/m6KsHiEU0errmYUZNTl98g6OHj6GEEI2ZvHHoDc6/erp+Ub0DRVWmhVaoj5TMT3Zx1471TE6Mc+joWVzPf8fvzWxgWGlUPYIW01FMbeobMFYs8uxPnuMne/ewdtU6fuepp9h5z/0YkeQMz6xixG9exNhIR6goEDamVgFcu0gYBmTjcQxNwwvsqT/3Q4cwrL+/umYxMjzM+dPnmMzXPz8TiJvaVPupIPTxAxtT16ftLlVUfSqghUGI61dm9Epy8Tif3HE/v/Pvf5uu+fP41re/zXPff46x0TFuXOaqRxIyoEmSJP2MZEi7DctITishATBerTJSGiWuCOa1thKNvG16SzR+34IQYtpFzAtD1GSCdffew7333c38+e1cOHuWWrnCiddeZ8Unt/LEpz/DwvYFvP7K4anjPrHln9Eaa6JzxQom8nlc3+PuDct57FOPsfYT9zE2kadSrl+wVUVh46JtPHLPp3j88YfYfv92JitVLh87izbpIVzBW1dO0jdxAX3GgaPxesLrr8XIRIhmszRZjTfiI7AnpUajcGsoOHzwEM888wxz5szhK7/5ZbauX9V4lGj8ujURCNyyx7UI7Ls+rutiOzbVWg0/8EkBXrWA79SnsYUWQwhl6ryaGsHzA2p2DeFrKGgEQYBt28xp7WL52hWk266vhRNhiOu41OwaQSDQtCgiFPiuh+u61Gybmm0ThEF9dLTsEzFm/vnrSZN71m7ni1/4l+jxOLv37+HUhXPUXPf6c+C2/xwkSZKk25DTnTMmAIXmRALTMCj4PsPlMRzfnfaooOahaOot+x/WPA8vCEhH650HDFUlHY0QS5pomkEilgOu4IcK+YpB1sqCKoh0JRg7OjZ1nkS7RcaKkE6mGLdtCkJhYZMOOnTF2nHLDm7jYhnTdeJL4qTnpLFiTVhA0o4wkp/galiiramV7sXdzF3SzaRtTz23O74jocCfdDEy9aAaCkEiFiPvqJTKFcKPQEi7NgZUGyxyYu8BJgsFHnv4Udas2Dg1guYHHo4IUPQotxozUjSFSMokIgSe53Ps1aNctfPkqwWK+Qo7dm7hriWr0awsva+OsP/iHrSoz+bNd7O4cx6mrvPWUB8nTp1kZGiMBc1dbNy4jlq5yt79rzExUGPZysWs2tFDW7YexvJXRjj6+jEuTgzSvXAeG+/aguUJzh0/zZVanrHyBPgq2+7exLJ5SzHSM5yavtaOinpQe3TTTg7f/RrP7XqeM/uPsnbJcmKt9e+EDagCIvB+1eqVJEn6yJAhbYZsr0RET6AoKk0dHUQsi1LRxnWnT+lpsdvXw3p7H0QvDKn4Xn2BehhQ8utjLVHLoKenldeOHGLpwjlcPH+FtVu3Th0nTKvenqjooITQPZrkoPcm67YM0XfiDJlslkSivr6p4vsYYTjt79Xnxlm1ZR2rVq2ie2kXtbEJcunWqYBWj6S3p6jKVEATwND4BMf37CURT7Bm6VIM/aPz9bpcHeHwuePE43G27dxO27w5AIROgBIoxGN3DrYiDHCqBQI1zo8Ovsir+15i+9YHuHrmLMMjIyz/3R6Ovf46e44cwC2VYKhIcbhI6pHHSXsmr+x/jb7jpwhTUeyay9zFbWTScRTNY9/J3QyVLtDV00ZbtpXRwau8/PIrHDp1BMe2GbncRxSYP7+HZw++xIlTx1ixeCXFgUEKxUlyX5xDW3pmxZedSh4zlp2qvxZdkGP1xk3seX0XZ4Z7yZfGybXWp1CjQGD7BApo1kfn+yBJkvR+kD81Z8gyrk8jLejoYFPPfE7ufY3D926jqSlDMvbOpgmvMVWNXCRO0kigqzq5SJqCGSGZTvGJxx7i6//tz/nSnhfoaerii//pd+sHRaNELmWwUlkUTSOSSVNTJhjv7eOv//C/4OgGX/ilz9LWVN/QkDBM1DAkCK6vd9qwYQMV1+XZf/gh438zyJLli/nE44/RxTxqrovteWTj8Zm/kFAweuoSew8epDM3l66ebjTjw/v18sseqqlO7WidtEtU3AqJbJZE5nqplfqI6czKnCiqhpVooVKtoqoaqxes5A9+47foPdPLV//6T+m93MualQto1RJEFrTT9+Z5nv2//4+hUp7jxREGR/vZ9pmPsWXDFsx8gJaMYGSjPPGFRWQzzZx76zx24AAwVhlluHiFtevXs37jRo6/eIDzr1xEjceJW3HuvmsTv/YvPs/RQ+fYs28PlXMDsGlmIS2SaPkn963p6aHV6qQ4NIFdmb6u7dq6OEmSJOmdkT89fwYbNmzgvkc+zR/91z/iRz/exdpV60gurIc0zy6iqAa6GSOo+qDWRxAC24eQqQ0D1/SsWc1TCxaSNWLoUYNHP/HLlB95hIhhsnHNZub+yZ9SfXOQ7mVLsZpiKIrCf//jPyYbU7mntoO0paB4NoSCYmhiDbkYTYJYUzO6Wd9h98//1a9iGQaxG9bPpaJRPr5tI3ct76ZQq9GUytHRVO+UEDVNoo0RP8f3Kds2TYkEXhAwUa3SkkwiRIjjl7GMFCEhJ6tn+drX/4zixYAnn/o0qxetxNDqr9Upj2JEs6jah+frpiduPiIaEzpR8e5ehxACz/PqU4zZCFpXhHHPIZVsI7yi8sy+vRz/y0NcungRPWXySOBRGyijqhbdHQtIxZLQxdRQZ7FWY6JaJGoYJCL1YO164CoR0pkM7fEMp5MmA36FNV6EZncO/hwXK9uC1tZX31n8rl4RFKrjhKpAvaHESlD1QFXRLFnoVpIk6Wfx4blqfkC8CQc9ZU4r+qkoCjs37+Tw1kM894/fp8vo5F//1pN0LG7DsK6PuGkxHS+wEYGPbln4gYMXeBja9amxqGli5Yz6BgUF4rkE8cZSa0PT6GprRbS01C9+jafQmcvVH2sBCiiNpV9xgGzjvhvqUuUSiZvWqTKjSeZaCToatbRu9piIrmM2RtQMTaO5MYWqKCqWkSQUgoGxAv/wzRf4++efY+fj9/PE5oexjOuBMBJvBkXBm3TRY/q76if6fqkABvVdkgDtsVaarBwXRy+RL9bXBjrUixSboUsYBhj6zNbyKYqCaZoMl642ymg07geeObmHoSt9PPlvn2RgaJBdz75AcjSgkosSDjhcHuqjqTVBxbaJmhFyyfq0ojlp4Yx5lJ36KJZpgCEcRkeHuJDvw/YrdHgGuUDHz46huI3SH4HH2EQe/dZl/m7JqYxhWClUzaA2VKY2UUXriKIa9YCrRQ25Dk2SJOldkCHtDoy0ObVI+kZL1izl177y6wz84RDf3P2X1LKTPPm5J1m8ZOG0oq+Gdj2s6Nr19Wg1z+PC5UscPriPwUsDP7fnOxhUaFItIje0/fGCKqpioKkGXmCjKuq0+mXqJBBA24p2duzYwdKlS6f+LPRdfLeCGauXGrkxyAlfUDh5had/8A3+4umnWbthBX/we0/RurZ7ehBrHGMkzQ/NRVv3q2iqAWojcGRNmua1cPT0MY6dPc6G7RvJWVlEINBiJpr6zjZJqIpCc6IFRQi0AYfWllYUVaUtl0VVFF7c/SrqQAGvZDPSUaancx2DhQn2f383B17aR2pOKx9/4H68MZ89+/fx/MvPY48XqKkVhBPS1tpGx8KFnPjpES7uP4nenmb7PVs/QLpKAAAOiUlEQVQQc0xqpzQyqXrwjigRFpjzEdbMNg1MApFJFzNu1NelKSqXR6+w68hLBM4Y23tW0p5r1A38kHzWkiRJs5UMaXdyi0rpmq6xafMmfv8//D5//hf/k+98+3vkBwo88aXPs2njJjLxa+t7bjz++m1L12HM5aW/+wk/OPAjtEgE37bRLQtRrZLRdcZ9n5xpUjRNvFKJVtNk3LJwJydpNU2KloVbKqHH4/jVKjlNoxwxifsBNdPFroWkhY4XMam5HgkhEBGTiucRD0LUSIRyECCEg2aZbLvrbhZ1LmTp0qWEXkjoBuhxA0ObvlZJiJBKZYLeQ+f5u28+zXOv7GXl6iX856/8R9av3YJu3mLzxIfoom3q0WlPtzXbwoMPPsSRw8fY853dbF+0hXsf3YnvVanYNRQrieWGhF5wx2bqEd3gU+t3oDRroCjMXdPFE9XP02yGdNx3L4auM3i1j8zyFew0U6zIrSCTauLhhx7iSEuGwsQY81MdtMYz1ESNaMpk644NiCAkmcziA9F0iu2bt5JMximM5Ons6GbJ8mVYusq927aQ8Oq7ied2LuCBxy2SieYZvS8JQEkYjZHl+jt08tgZXv/HM6RiHcxbtZxo5npBXi+wURQFXb1dJwZJkiTpZmSD9XfJcRxOHT7JV7/5Vxzcs4fWrg52PvxJHt3ycZYv78FoqhdlcKjvgLQaxwWhx2jhKufPXmRycALFVFCjgrCqokVVlGIakR1DFBVCVUFLhYjxxu1M47aioKVDgpKKmgihrBAGCkZKEJbTEK0iXBfFUgkcgWYIRKAiTA0lEIhKQAiolkDRFZLxZhavXkpbLtcocza9t6MIBNVihQuFPl7du4/vfutb9I/18tiyL/DI7z3OluWbiETrF2PHK2Hq9WlWv+SixQwqmkKUmS6zn30m+kb5q//9db7xvb9lw7pN/Lvf/j3Wr1mDQNSb2d/kPbtGBDd0aRACz3ERmoJpmAgR4jkeuqmhqjq2beP7Hqqqoakahm6gaiqBCHFchyAIMFQN0zQRCGzHIQwCBPUWXYZpYhgGCIHjuYRBgK7p9fsU8H0fVShopkEQBIR+gGbo77hll192efXkfv7sT/4HF3sv8m+e+jKf/syv0NzUOjXieq163NvrDUqSJEl3JkPaO1CmXjfr7Zcyz3E5feksu3/yEi/tepHzw8Ms7pzH/dt3sPneLSxbOI9sMotmxqeOFQjCMMD3AkSjOaOiggjrpS0IVNACRGNDpqJx/bYOwp9+v6LVj0XUbxNooIaNmlZcr6lRv5LXQ1ijEK0y1V9RveXF2i7XePPEWfa9cYJXXt7D8RMnaOls4f6dH+PxT36GhQvnErlhHdq19kJlIBoKNEUhVBo9KN/Vp/D+mazVMHUdq7HGSvgh58+c42tPf40f7n6Breu38ptP/gZrN6+baoN0OyIQKNp7++pDJ0AIMVXuInSDqRZkdzxWCAqVytS6w9spVCocPXaIv/36N+g9fZb7H36AX//VL7N4wSJU9XoMD2o+iqrcsm6gJEmSdGsypL0Dteo4ESs17SJ0jet7FK9OcO70G+zZ/1MO7X+JS/kxcp0dbF+3jnvW72D58pVkm3LEDXPWlyVwfJ+qXaE2mWffsZOcf+MiBw+8xpmz5+lub2f95i08vGkHq3ZsJJVOY2g3vwg7pfr6pZuNLs12QRiiKMpUg3gAz/U4cfwET/+vv+HFPXtZuXIVX/qVz3H3lm00d7dPPc4NAqqOM60F0/vhevBuPGch6jl9Bu+/APwgmPZZOl6p0U/0+vGXR6+w6yd7+c43/w/5kas89thjfPZzn2XRwkX10brbPR9JkiRpxmRIewfCwENV9VuuUxOBwHVcBvNXuXjmHPtfP8KBY4cY6e/H0AzaO9tZtnoV29ZuYemSRcRb4jSnM9N2e/6Tc1LfaXjnsY1bq1FffHj7lVJgex7j5SLF8TH63uzjyLEjnLvQy0DfEKVKmWxbE6t77uKBjdtZu2092UQSK3H7ECKCEOWGnakfBY7jcP5kL9/97nf54Z5daCh87MGdfPIzv8TiBYtoy7QSCkHYKCBcboQ1IUK8oIap1/fvloG3V9dzqwWcaIa4or4vPdvqz8nG1GM33olTLRCJNxGKALWxCaVQqXDh7Fn+/plvsX/vfoQW8vgjj/PLH3+UhT2LMGe4+UCSJEmaGRnS3gN+GOLaDuNjI1zqfZPeI30cOXWMNy4fwXVqmPEcmXSaeQvmsWnzRjq755FLZcm0NpGKZ0i/bfTF593t8AioZ6QbL/p+6FKr1iiXSwxPTjJ8Jc/wuXOcOX+GS/39TBTGKVfKRGNRVixbwfrVd7F24UrmrJpPLpkhlvzFbprtOS4jg/3sfmUvz/7gh1y+cJ5c13wevP8+Hrx7J6vm9hDpSCGEwA/DxuiUaISe+qd57XMdK5frZVKAMHAJNQPt57CKK3TrPTlvrPQv/JDQDW+Y/hSEIpwKYlPHBi5qYzdyoVCgv7+fXT9+jt0v76U8doWF2dU88KWH2XnfTjqa52BEjFv+50WSJEn62ciQ9h4SoY9bc6lOOoyOX+WtS+d54+ybnH6zl/6+S1QCFyVUKbsOuWSG5QsW09TRSndXF1YyQVtTkmyqlYQRR2s2AIVELEskkSDO7QenJms1vCDAdsr4gUtlvEKtXKVql6hOVOgrjDI4PEjhyhD9g0MMX80T2A7RqEEiGmVR+zy6V/WwpGMRnauWsKB9LqloHC0mR0uuEWFAcbLI6dOnefn5Xbz2ygGulPK0tLexfdMWNm7cyrplK5m7sPO253F8n8h70EJLhKKxRvGGb4oQBL5PqPq3H8EVgstX+zl57CwHX3uNI4cPMzoyQjyZ5KEH7+fhBx+he/lCUqkk2k2m/yVJkqR3T4a094kQIY7tMDlZZqI4znDfKBfO93Nl/AKX+64w2T9EKXQpVsfxKKFXTZRUkjm5ZjLJDPGOJAoK2WiOdDSG43tkMpmpXXTlCMRcKFdrmEFA2bbxwpCyW8IruVQmy1wpTeCM5XErNraqEEtGyFpxUskM6dYm2ppyzJu/iAXzFzC3qYVkLk3CSmDELcxGiBAixA+cGRdu/UXgOA4jV0c5feYs+178KccPHKWveplENM3GFT0s3r6dFS1dLFu7lNZU+x1LdAD4FQ8tqr8na7kEAnHDiB5AGIaMVyuUiuNcPjDM/uIR3nr9JGfOvMHk+Djd3d1s2LCBtZs2sXbFCjra29E/Qr1ZJUmSZiMZ0j4gnh1QKlao+iWq5QqlwgT9E6NcvTrAyNAAxfFJilUfu1rFq1QoOxUqfhV/wsWzbbwgoNYouwBghB5mJErRdkiZJtFoFEVV0eI6MS1KkxZHyaWIxC2a0mla0s3kEklyc5ppmdNBUy5DIh0nFksQTyYxb7ERoL4r1a8Xer3hXtevTV/X9AvCo951wABqtk1heJTLvZc4eOwAr58/w8ULZ6g4kIkmWbVyKW0dHSxb3MOSJUto7mwhHq33Ac3E49NGRkMvRNXfu7V8fhAwUa1QLo8zMVTg8sV+jvae4MpAH30X32RkskxCNVmyciWblq5h6cbVLFu8iFxzM7FIBEVRCKo+akTD98touoWq3Tl8SpIkSTMnQ9oHIBQ+oQjRb6j6H4YhNc/FdWrUKjVsz8GpeZQKJcbtSexaDWW0QikG6lCFfGuV2KDGuFlDKAIjDFAMg1g1ghcLUS2dmJXAjEUxdZNmQyeVayKSTBGPRomZFrqioVsmpmVhqOpt2zWJQBC6wS13pQahO9XFwLOLGJHUR3KNUhB6AGiqQRB6BAhU1Zy2ZtB3PMbHCvTnhznT28vlUxfovXCOgZF+xibGaMo0Y8ZitLbkmNvRxfK2btrnd9M8t4VsNI2Wq7chi1pJFFUjaVno76CGWeDbhG6AL3TKQQ3XrSLcEHfSYcIuMTQywpX+Pi4O9DF0eYCx/Dhh1SE/MUY0G6Ozu5PNCzYwv2UuC7evorN5DlYmQdQ0p3WcqAdJhTBwUTQdRZHTnpIkST9PMqR9AIQIEYTTpptu/kAI3ABHCUCAUfHxEjpG2aeccomXTKq6h1Cuf4Qxz8DRfAJVYOiRqXIhOgGGbqCoP9sUlQgFwheo5p3DQuDV0IxGY9GPmLBRrE5VtMZtccvPMQhDarZDpTDJ1dERrowMcqm/n8sXLnD6jV4GhvvRA42MHsWxfCwjQcyI0dzVQjwRZ05bB0krSktrK6ZpokUiRGMxNE3D1MGsRXEIIOoiBFRtD6daxberuLbDZLlGfrzA+Fie0bE8E1cLeL6DZ9uUPRdUsMwIqXSG5W1r6LirhQXt8+nonsf8trkkzShG7hdvdFSSJGm2kCFNkt4noRBUajXyIyMMjwwzkh9h8twob5WH6Cu8RbW/SrE6SbVWxVN8dKHh12xMRalPbRsGpmmiqiq6BrobwScA00cIcLwAz3HqI5iqih76xEydQDNRHYWoHiPWkaCztZmOXBdzW+fQtKiddCpJa6KT7PwkKSMpC89KkiTNEjKkSdIHRYCbr5D3ikzWJnEnHMpOhfHxcUqVPCNj4xQHi4TlGuNuBdt3qfk2gQhvejpLN4noEUzDImpYJBIGidYkqUwzc1PtpGJpjCaLdCpJUyRDIhbDyMgNIJIkSbOVDGmSNAv5bpVJx8YveRCAE7p4gYcTOLcMaRHNxNRNdEXDVAxUU0FYKhHTIhl9N+WQJUmSpA+CDGmSJEmSJEmz0PvReUaSJEmSJEl6h2RIkyRJkiRJmoVkSJMkSZIkSZqFZEiTJEmSJEmahWRIkyRJkiRJmoVkSJMkSZIkSZqFZEiTJEmSJEmahWRIkyRJkiRJmoVkSJMkSZIkSZqFZEiTJEmSJEmahWRIkyRJkiRJmoVkSJMkSZIkSZqFZEiTJEmSJEmahWRIkyRJkiRJmoVkSJMkSZIkSZqFZEiTJEmSJEmahWRIkyRJkiRJmoVkSJMkSZIkSZqF/j8Pzv9pyuNU3AAAAABJRU5ErkJggg==;" parent="1" vertex="1">
          <mxGeometry x="440" y="30" width="362.95" height="230" as="geometry" />
        </mxCell>
        <mxCell id="9V3amyga9CZpgijUsC6T-6" style="edgeStyle=orthogonalEdgeStyle;rounded=0;orthogonalLoop=1;jettySize=auto;html=1;exitX=0.5;exitY=1;exitDx=0;exitDy=0;" parent="1" edge="1">
          <mxGeometry relative="1" as="geometry">
            <mxPoint x="390.58" y="870" as="sourcePoint" />
            <mxPoint x="390.58" y="870" as="targetPoint" />
          </mxGeometry>
        </mxCell>
        <mxCell id="9V3amyga9CZpgijUsC6T-23" style="edgeStyle=orthogonalEdgeStyle;rounded=0;orthogonalLoop=1;jettySize=auto;html=1;exitX=1;exitY=1;exitDx=0;exitDy=0;endArrow=circle;endFill=0;" parent="1" source="9V3amyga9CZpgijUsC6T-18" target="9V3amyga9CZpgijUsC6T-25" edge="1">
          <mxGeometry relative="1" as="geometry">
            <mxPoint x="200.58" y="550" as="targetPoint" />
            <Array as="points">
              <mxPoint x="200.58" y="550" />
              <mxPoint x="200.58" y="550" />
            </Array>
          </mxGeometry>
        </mxCell>
        <mxCell id="9V3amyga9CZpgijUsC6T-26" style="edgeStyle=orthogonalEdgeStyle;rounded=0;orthogonalLoop=1;jettySize=auto;html=1;exitX=0.75;exitY=1;exitDx=0;exitDy=0;endArrow=circle;endFill=0;entryX=1;entryY=0.5;entryDx=0;entryDy=0;" parent="1" source="9V3amyga9CZpgijUsC6T-18" target="9V3amyga9CZpgijUsC6T-28" edge="1">
          <mxGeometry relative="1" as="geometry">
            <mxPoint x="170.58" y="550" as="targetPoint" />
          </mxGeometry>
        </mxCell>
        <mxCell id="9V3amyga9CZpgijUsC6T-40" style="edgeStyle=orthogonalEdgeStyle;rounded=0;orthogonalLoop=1;jettySize=auto;html=1;exitX=0;exitY=0;exitDx=0;exitDy=0;endArrow=circle;endFill=1;entryX=0;entryY=0.5;entryDx=0;entryDy=0;" parent="1" source="9V3amyga9CZpgijUsC6T-18" target="9V3amyga9CZpgijUsC6T-41" edge="1">
          <mxGeometry relative="1" as="geometry">
            <mxPoint x="80.58" y="390" as="targetPoint" />
          </mxGeometry>
        </mxCell>
        <mxCell id="9V3amyga9CZpgijUsC6T-118" style="edgeStyle=orthogonalEdgeStyle;rounded=0;orthogonalLoop=1;jettySize=auto;html=1;exitX=0.25;exitY=0;exitDx=0;exitDy=0;endArrow=circle;endFill=0;" parent="1" source="9V3amyga9CZpgijUsC6T-18" target="9V3amyga9CZpgijUsC6T-43" edge="1">
          <mxGeometry relative="1" as="geometry" />
        </mxCell>
        <mxCell id="9V3amyga9CZpgijUsC6T-119" style="edgeStyle=orthogonalEdgeStyle;rounded=0;orthogonalLoop=1;jettySize=auto;html=1;exitX=0.5;exitY=0;exitDx=0;exitDy=0;endArrow=circle;endFill=0;" parent="1" source="9V3amyga9CZpgijUsC6T-18" target="9V3amyga9CZpgijUsC6T-56" edge="1">
          <mxGeometry relative="1" as="geometry" />
        </mxCell>
        <mxCell id="9V3amyga9CZpgijUsC6T-122" style="edgeStyle=orthogonalEdgeStyle;rounded=0;orthogonalLoop=1;jettySize=auto;html=1;exitX=0.25;exitY=1;exitDx=0;exitDy=0;entryX=1;entryY=0.5;entryDx=0;entryDy=0;endArrow=circle;endFill=0;" parent="1" source="9V3amyga9CZpgijUsC6T-18" target="9V3amyga9CZpgijUsC6T-33" edge="1">
          <mxGeometry relative="1" as="geometry" />
        </mxCell>
        <mxCell id="9V3amyga9CZpgijUsC6T-123" style="edgeStyle=orthogonalEdgeStyle;rounded=0;orthogonalLoop=1;jettySize=auto;html=1;exitX=0;exitY=1;exitDx=0;exitDy=0;entryX=1;entryY=0.5;entryDx=0;entryDy=0;endArrow=circle;endFill=0;" parent="1" source="9V3amyga9CZpgijUsC6T-18" target="9V3amyga9CZpgijUsC6T-35" edge="1">
          <mxGeometry relative="1" as="geometry" />
        </mxCell>
        <mxCell id="9V3amyga9CZpgijUsC6T-18" value="PELICULAS" style="rounded=0;whiteSpace=wrap;html=1;" parent="1" vertex="1">
          <mxGeometry x="80.58" y="424" width="120" height="60" as="geometry" />
        </mxCell>
        <mxCell id="9V3amyga9CZpgijUsC6T-45" style="edgeStyle=orthogonalEdgeStyle;rounded=0;orthogonalLoop=1;jettySize=auto;html=1;exitX=1;exitY=0.5;exitDx=0;exitDy=0;entryX=0;entryY=0.5;entryDx=0;entryDy=0;endArrow=none;endFill=0;" parent="1" source="9V3amyga9CZpgijUsC6T-19" target="9V3amyga9CZpgijUsC6T-20" edge="1">
          <mxGeometry relative="1" as="geometry" />
        </mxCell>
        <mxCell id="9V3amyga9CZpgijUsC6T-46" style="edgeStyle=orthogonalEdgeStyle;rounded=0;orthogonalLoop=1;jettySize=auto;html=1;exitX=0;exitY=0.5;exitDx=0;exitDy=0;entryX=1;entryY=0.5;entryDx=0;entryDy=0;endArrow=none;endFill=0;" parent="1" source="9V3amyga9CZpgijUsC6T-19" target="9V3amyga9CZpgijUsC6T-18" edge="1">
          <mxGeometry relative="1" as="geometry" />
        </mxCell>
        <mxCell id="9V3amyga9CZpgijUsC6T-19" value="dirige" style="rhombus;whiteSpace=wrap;html=1;" parent="1" vertex="1">
          <mxGeometry x="270.58" y="414" width="150" height="80" as="geometry" />
        </mxCell>
        <mxCell id="9V3amyga9CZpgijUsC6T-120" style="edgeStyle=orthogonalEdgeStyle;rounded=0;orthogonalLoop=1;jettySize=auto;html=1;exitX=0.25;exitY=0;exitDx=0;exitDy=0;endArrow=circle;endFill=0;" parent="1" source="9V3amyga9CZpgijUsC6T-20" target="9V3amyga9CZpgijUsC6T-51" edge="1">
          <mxGeometry relative="1" as="geometry" />
        </mxCell>
        <mxCell id="9V3amyga9CZpgijUsC6T-121" style="edgeStyle=orthogonalEdgeStyle;rounded=0;orthogonalLoop=1;jettySize=auto;html=1;exitX=0.5;exitY=0;exitDx=0;exitDy=0;endArrow=circle;endFill=0;" parent="1" source="9V3amyga9CZpgijUsC6T-20" target="9V3amyga9CZpgijUsC6T-53" edge="1">
          <mxGeometry relative="1" as="geometry" />
        </mxCell>
        <mxCell id="9V3amyga9CZpgijUsC6T-20" value="DIRECTORES" style="rounded=0;whiteSpace=wrap;html=1;" parent="1" vertex="1">
          <mxGeometry x="486.5799999999999" y="424" width="120" height="60" as="geometry" />
        </mxCell>
        <mxCell id="9V3amyga9CZpgijUsC6T-54" style="edgeStyle=orthogonalEdgeStyle;rounded=0;orthogonalLoop=1;jettySize=auto;html=1;entryX=0.5;entryY=1;entryDx=0;entryDy=0;endArrow=none;endFill=0;" parent="1" source="9V3amyga9CZpgijUsC6T-79" target="9V3amyga9CZpgijUsC6T-18" edge="1">
          <mxGeometry relative="1" as="geometry">
            <mxPoint x="140.58" y="670" as="sourcePoint" />
          </mxGeometry>
        </mxCell>
        <mxCell id="9V3amyga9CZpgijUsC6T-25" value="observ(VARCHAR&lt;span style=&quot;background-color: initial;&quot;&gt;)&lt;/span&gt;" style="text;html=1;align=right;verticalAlign=middle;whiteSpace=wrap;rounded=0;rotation=-90;" parent="1" vertex="1">
          <mxGeometry x="170.58" y="547" width="60" height="30" as="geometry" />
        </mxCell>
        <mxCell id="9V3amyga9CZpgijUsC6T-28" value="resumen(VARCHAR)" style="text;html=1;align=right;verticalAlign=middle;whiteSpace=wrap;rounded=0;rotation=-90;" parent="1" vertex="1">
          <mxGeometry x="140.58" y="547" width="60" height="30" as="geometry" />
        </mxCell>
        <mxCell id="9V3amyga9CZpgijUsC6T-33" value="idioma(VARCHAR)" style="text;html=1;align=right;verticalAlign=middle;whiteSpace=wrap;rounded=0;rotation=-90;" parent="1" vertex="1">
          <mxGeometry x="80.58" y="547" width="60" height="30" as="geometry" />
        </mxCell>
        <mxCell id="9V3amyga9CZpgijUsC6T-35" value="nacion(VARCHAR)" style="text;html=1;align=right;verticalAlign=middle;whiteSpace=wrap;rounded=0;rotation=-90;" parent="1" vertex="1">
          <mxGeometry x="50.58" y="547" width="60" height="30" as="geometry" />
        </mxCell>
        <mxCell id="9V3amyga9CZpgijUsC6T-41" value="titulo(PK)" style="text;html=1;align=left;verticalAlign=middle;whiteSpace=wrap;rounded=0;rotation=-90;" parent="1" vertex="1">
          <mxGeometry x="50.58" y="324" width="60" height="30" as="geometry" />
        </mxCell>
        <mxCell id="9V3amyga9CZpgijUsC6T-43" value="aÃ±o(INT)" style="text;html=1;align=left;verticalAlign=middle;whiteSpace=wrap;rounded=0;rotation=-90;" parent="1" vertex="1">
          <mxGeometry x="80.58" y="324" width="60" height="30" as="geometry" />
        </mxCell>
        <mxCell id="9V3amyga9CZpgijUsC6T-44" value="&lt;font style=&quot;font-size: 14px;&quot;&gt;&lt;b&gt;N:1&lt;/b&gt;&lt;/font&gt;" style="text;html=1;align=center;verticalAlign=middle;whiteSpace=wrap;rounded=0;" parent="1" vertex="1">
          <mxGeometry x="315.58" y="384" width="60" height="30" as="geometry" />
        </mxCell>
        <mxCell id="9V3amyga9CZpgijUsC6T-48" style="edgeStyle=orthogonalEdgeStyle;rounded=0;orthogonalLoop=1;jettySize=auto;html=1;exitX=0;exitY=0;exitDx=0;exitDy=0;endArrow=circle;endFill=1;entryX=0;entryY=0.5;entryDx=0;entryDy=0;" parent="1" target="9V3amyga9CZpgijUsC6T-49" edge="1">
          <mxGeometry relative="1" as="geometry">
            <mxPoint x="486.58" y="421" as="targetPoint" />
            <mxPoint x="486.58" y="481" as="sourcePoint" />
          </mxGeometry>
        </mxCell>
        <mxCell id="9V3amyga9CZpgijUsC6T-49" value="nombre(PK)" style="text;html=1;align=left;verticalAlign=middle;whiteSpace=wrap;rounded=0;rotation=-90;" parent="1" vertex="1">
          <mxGeometry x="456.58" y="325" width="60" height="30" as="geometry" />
        </mxCell>
        <mxCell id="9V3amyga9CZpgijUsC6T-51" value="f_nac(DATE)" style="text;html=1;align=left;verticalAlign=middle;whiteSpace=wrap;rounded=0;rotation=-90;" parent="1" vertex="1">
          <mxGeometry x="486.63999999999993" y="325" width="60" height="30" as="geometry" />
        </mxCell>
        <mxCell id="9V3amyga9CZpgijUsC6T-53" value="nacion(VARCHAR)" style="text;html=1;align=left;verticalAlign=middle;whiteSpace=wrap;rounded=0;rotation=-90;" parent="1" vertex="1">
          <mxGeometry x="516.58" y="325" width="60" height="30" as="geometry" />
        </mxCell>
        <mxCell id="9V3amyga9CZpgijUsC6T-56" value="color(VARCHAR)" style="text;html=1;align=left;verticalAlign=middle;whiteSpace=wrap;rounded=0;rotation=-90;" parent="1" vertex="1">
          <mxGeometry x="110.58" y="324" width="60" height="30" as="geometry" />
        </mxCell>
        <mxCell id="9V3amyga9CZpgijUsC6T-58" value="id_actor(FK)" style="text;html=1;align=right;verticalAlign=middle;whiteSpace=wrap;rounded=0;rotation=-90;" parent="1" vertex="1">
          <mxGeometry x="95.58" y="974" width="90" height="30" as="geometry" />
        </mxCell>
        <mxCell id="9V3amyga9CZpgijUsC6T-62" value="&lt;b&gt;&lt;font style=&quot;font-size: 14px;&quot;&gt;N:1&lt;/font&gt;&lt;/b&gt;" style="text;html=1;align=center;verticalAlign=middle;whiteSpace=wrap;rounded=0;rotation=-90;" parent="1" vertex="1">
          <mxGeometry x="20.58" y="684" width="60" height="30" as="geometry" />
        </mxCell>
        <mxCell id="9V3amyga9CZpgijUsC6T-71" value="id_reparto(id_pelicula,id_actor) (PK)" style="text;html=1;align=right;verticalAlign=middle;whiteSpace=wrap;rounded=0;rotation=-90;" parent="1" vertex="1">
          <mxGeometry x="-34.42" y="1034" width="210" height="30" as="geometry" />
        </mxCell>
        <mxCell id="9V3amyga9CZpgijUsC6T-75" value="personaje(VARCHAR)" style="text;html=1;align=left;verticalAlign=middle;whiteSpace=wrap;rounded=0;rotation=-90;" parent="1" vertex="1">
          <mxGeometry x="113.58" y="990" width="125" height="30" as="geometry" />
        </mxCell>
        <mxCell id="9V3amyga9CZpgijUsC6T-77" value="id_pelicula(FK)" style="text;html=1;align=right;verticalAlign=middle;whiteSpace=wrap;rounded=0;rotation=-90;" parent="1" vertex="1">
          <mxGeometry x="60.58" y="973" width="90" height="30" as="geometry" />
        </mxCell>
        <mxCell id="9V3amyga9CZpgijUsC6T-82" style="edgeStyle=orthogonalEdgeStyle;rounded=0;orthogonalLoop=1;jettySize=auto;html=1;entryX=0.5;entryY=1;entryDx=0;entryDy=0;endArrow=none;endFill=0;" parent="1" source="9V3amyga9CZpgijUsC6T-68" target="9V3amyga9CZpgijUsC6T-79" edge="1">
          <mxGeometry relative="1" as="geometry" />
        </mxCell>
        <mxCell id="9V3amyga9CZpgijUsC6T-102" style="edgeStyle=orthogonalEdgeStyle;rounded=0;orthogonalLoop=1;jettySize=auto;html=1;exitX=0.75;exitY=1;exitDx=0;exitDy=0;endArrow=circle;endFill=0;" parent="1" source="9V3amyga9CZpgijUsC6T-68" target="9V3amyga9CZpgijUsC6T-75" edge="1">
          <mxGeometry relative="1" as="geometry" />
        </mxCell>
        <mxCell id="9V3amyga9CZpgijUsC6T-103" style="edgeStyle=orthogonalEdgeStyle;rounded=0;orthogonalLoop=1;jettySize=auto;html=1;exitX=0.5;exitY=1;exitDx=0;exitDy=0;entryX=1;entryY=0.5;entryDx=0;entryDy=0;endArrow=circle;endFill=0;" parent="1" source="9V3amyga9CZpgijUsC6T-68" target="9V3amyga9CZpgijUsC6T-58" edge="1">
          <mxGeometry relative="1" as="geometry" />
        </mxCell>
        <mxCell id="9V3amyga9CZpgijUsC6T-104" style="edgeStyle=orthogonalEdgeStyle;rounded=0;orthogonalLoop=1;jettySize=auto;html=1;exitX=0.25;exitY=1;exitDx=0;exitDy=0;endArrow=circle;endFill=0;" parent="1" source="9V3amyga9CZpgijUsC6T-68" target="9V3amyga9CZpgijUsC6T-77" edge="1">
          <mxGeometry relative="1" as="geometry" />
        </mxCell>
        <mxCell id="9V3amyga9CZpgijUsC6T-108" style="edgeStyle=orthogonalEdgeStyle;rounded=0;orthogonalLoop=1;jettySize=auto;html=1;exitX=0;exitY=1;exitDx=0;exitDy=0;entryX=1;entryY=0.5;entryDx=0;entryDy=0;endArrow=circle;endFill=1;" parent="1" source="9V3amyga9CZpgijUsC6T-68" target="9V3amyga9CZpgijUsC6T-71" edge="1">
          <mxGeometry relative="1" as="geometry" />
        </mxCell>
        <mxCell id="9V3amyga9CZpgijUsC6T-68" value="INTERPRETACIONES" style="rounded=0;whiteSpace=wrap;html=1;" parent="1" vertex="1">
          <mxGeometry x="70.58" y="818" width="140" height="60" as="geometry" />
        </mxCell>
        <mxCell id="9V3amyga9CZpgijUsC6T-79" value="tiene&lt;span style=&quot;color: rgba(0, 0, 0, 0); font-family: monospace; font-size: 0px; text-align: start; text-wrap-mode: nowrap;&quot;&gt;%3CmxGraphModel%3E%3Croot%3E%3CmxCell%20id%3D%220%22%2F%3E%3CmxCell%20id%3D%221%22%20parent%3D%220%22%2F%3E%3CmxCell%20id%3D%222%22%20value%3D%22dirige%22%20style%3D%22rhombus%3BwhiteSpace%3Dwrap%3Bhtml%3D1%3B%22%20vertex%3D%221%22%20parent%3D%221%22%3E%3CmxGeometry%20x%3D%22290%22%20y%3D%22390%22%20width%3D%22150%22%20height%3D%2280%22%20as%3D%22geometry%22%2F%3E%3C%2FmxCell%3E%3C%2Froot%3E%3C%2FmxGraphModel%3E&lt;/span&gt;" style="rhombus;whiteSpace=wrap;html=1;" parent="1" vertex="1">
          <mxGeometry x="65.58" y="659" width="150" height="80" as="geometry" />
        </mxCell>
        <mxCell id="9V3amyga9CZpgijUsC6T-98" value="&lt;font style=&quot;font-size: 14px;&quot;&gt;&lt;b&gt;TraducciÃ³n a Modelo Relacional&lt;/b&gt;&lt;/font&gt;" style="text;html=1;align=center;verticalAlign=middle;whiteSpace=wrap;rounded=0;" parent="1" vertex="1">
          <mxGeometry x="5.58" y="20" width="244.42" height="30" as="geometry" />
        </mxCell>
        <mxCell id="9V3amyga9CZpgijUsC6T-109" value="" style="edgeStyle=orthogonalEdgeStyle;rounded=0;orthogonalLoop=1;jettySize=auto;html=1;endArrow=none;endFill=0;" parent="1" source="9V3amyga9CZpgijUsC6T-107" target="9V3amyga9CZpgijUsC6T-68" edge="1">
          <mxGeometry relative="1" as="geometry" />
        </mxCell>
        <mxCell id="9V3amyga9CZpgijUsC6T-107" value="hace" style="rhombus;whiteSpace=wrap;html=1;" parent="1" vertex="1">
          <mxGeometry x="306.58" y="808" width="150" height="80" as="geometry" />
        </mxCell>
        <mxCell id="0dIYFyx-S8R96vlmpLHt-5" value="" style="rounded=0;whiteSpace=wrap;html=1;rotation=-90;" parent="1" vertex="1">
          <mxGeometry x="-157.75" y="1343" width="1143.5" height="817.5" as="geometry" />
        </mxCell>
        <mxCell id="9V3amyga9CZpgijUsC6T-111" value="" style="edgeStyle=orthogonalEdgeStyle;rounded=0;orthogonalLoop=1;jettySize=auto;html=1;endArrow=none;endFill=0;" parent="1" source="9V3amyga9CZpgijUsC6T-110" target="9V3amyga9CZpgijUsC6T-107" edge="1">
          <mxGeometry relative="1" as="geometry" />
        </mxCell>
        <mxCell id="9V3amyga9CZpgijUsC6T-115" style="edgeStyle=orthogonalEdgeStyle;rounded=0;orthogonalLoop=1;jettySize=auto;html=1;exitX=0;exitY=1;exitDx=0;exitDy=0;endArrow=circle;endFill=1;" parent="1" source="9V3amyga9CZpgijUsC6T-110" target="9V3amyga9CZpgijUsC6T-113" edge="1">
          <mxGeometry relative="1" as="geometry" />
        </mxCell>
        <mxCell id="9V3amyga9CZpgijUsC6T-116" style="edgeStyle=orthogonalEdgeStyle;rounded=0;orthogonalLoop=1;jettySize=auto;html=1;exitX=0.25;exitY=1;exitDx=0;exitDy=0;entryX=1;entryY=0.5;entryDx=0;entryDy=0;endArrow=circle;endFill=0;" parent="1" source="9V3amyga9CZpgijUsC6T-110" target="9V3amyga9CZpgijUsC6T-114" edge="1">
          <mxGeometry relative="1" as="geometry" />
        </mxCell>
        <mxCell id="9V3amyga9CZpgijUsC6T-110" value="ACTOR" style="rounded=0;whiteSpace=wrap;html=1;" parent="1" vertex="1">
          <mxGeometry x="540.58" y="818" width="140" height="60" as="geometry" />
        </mxCell>
        <mxCell id="9V3amyga9CZpgijUsC6T-112" value="&lt;b&gt;&lt;font style=&quot;font-size: 14px;&quot;&gt;1:N&lt;/font&gt;&lt;/b&gt;" style="text;html=1;align=center;verticalAlign=middle;whiteSpace=wrap;rounded=0;rotation=0;" parent="1" vertex="1">
          <mxGeometry x="351.58" y="760" width="60" height="30" as="geometry" />
        </mxCell>
        <mxCell id="9V3amyga9CZpgijUsC6T-113" value="&lt;span style=&quot;color: rgb(0, 0, 0); font-family: Helvetica; font-size: 12px; font-style: normal; font-variant-ligatures: normal; font-variant-caps: normal; font-weight: 400; letter-spacing: normal; orphans: 2; text-align: right; text-indent: 0px; text-transform: none; widows: 2; word-spacing: 0px; -webkit-text-stroke-width: 0px; white-space: normal; background-color: rgb(251, 251, 251); text-decoration-thickness: initial; text-decoration-style: initial; text-decoration-color: initial; display: inline !important; float: none;&quot;&gt;nombre(PK)&lt;/span&gt;" style="text;html=1;align=right;verticalAlign=middle;whiteSpace=wrap;rounded=0;rotation=-90;" parent="1" vertex="1">
          <mxGeometry x="510.58" y="956" width="60" height="30" as="geometry" />
        </mxCell>
        <mxCell id="9V3amyga9CZpgijUsC6T-114" value="nacion(VARCHAR)" style="text;html=1;align=right;verticalAlign=middle;whiteSpace=wrap;rounded=0;rotation=-90;" parent="1" vertex="1">
          <mxGeometry x="545.58" y="957" width="60" height="30" as="geometry" />
        </mxCell>
        <mxCell id="0dIYFyx-S8R96vlmpLHt-2" value="&lt;font style=&quot;font-size: 14px;&quot;&gt;&lt;b&gt;NormalizaciÃ³n FN&lt;/b&gt;&lt;/font&gt;" style="text;html=1;align=center;verticalAlign=middle;whiteSpace=wrap;rounded=0;" parent="1" vertex="1">
          <mxGeometry x="5.5800000000000125" y="1193" width="150" height="30" as="geometry" />
        </mxCell>
        <mxCell id="0dIYFyx-S8R96vlmpLHt-4" value="&lt;span id=&quot;docs-internal-guid-62eb804c-7fff-2564-65aa-d5cac8914fea&quot;&gt;&lt;b style=&quot;background-color: transparent; font-family: Arial, sans-serif; white-space-collapse: preserve;&quot;&gt;&lt;span style=&quot;font-size: 11pt; white-space: pre;&quot;&gt;&#x9;&lt;/span&gt;&lt;font style=&quot;font-size: 14px;&quot;&gt;1FN&lt;/font&gt;&lt;/b&gt;&lt;br&gt;&lt;ul&gt;&lt;li&gt;&lt;span id=&quot;docs-internal-guid-62eb804c-7fff-2564-65aa-d5cac8914fea&quot;&gt;&lt;span style=&quot;background-color: transparent; font-family: Arial, sans-serif; font-size: 11pt; white-space-collapse: preserve;&quot;&gt;Tenemos que repasar que todas las entidades tengan un identificador Ãºnico principal y que no se repitan datos en cada registro / celda. Una tabla estÃ¡ en primera forma normal si y sÃ³lo si satisface que sus dominios simples sÃ³lo tienen valores atÃ³micos, es decir, si todos sus atributos son atÃ³micos. &lt;/span&gt;&lt;/span&gt;&lt;/li&gt;&lt;/ul&gt;&lt;b style=&quot;font-family: Arial, sans-serif; background-color: transparent; font-size: 11pt; white-space-collapse: preserve;&quot;&gt;&lt;span style=&quot;white-space: pre;&quot;&gt;&#x9;&lt;/span&gt;2FN&lt;/b&gt;&lt;br&gt;&lt;ul&gt;&lt;li&gt;&lt;span id=&quot;docs-internal-guid-62eb804c-7fff-2564-65aa-d5cac8914fea&quot;&gt;&lt;span style=&quot;background-color: transparent; font-family: Arial, sans-serif; font-size: 11pt; white-space-collapse: preserve;&quot;&gt;Se proviene de 1FN, todos los atributos no clave dependen de la clave principal. Una tabla se encuentra en segunda forma normal si estÃ¡ en primera forma normal y todos los atributos no clave dependen por completo de la clave primaria. &lt;/span&gt;&lt;/span&gt;&lt;/li&gt;&lt;/ul&gt;&lt;span style=&quot;background-color: transparent; white-space-collapse: preserve; font-family: Arial, sans-serif;&quot;&gt;&lt;span style=&quot;font-size: 11pt; font-weight: bold; white-space: pre;&quot;&gt;&#x9;&lt;/span&gt;&lt;b style=&quot;&quot;&gt;&lt;font style=&quot;font-size: 14px;&quot;&gt;3FN&lt;/font&gt;&lt;/b&gt;&lt;/span&gt;&lt;br&gt;&lt;ul&gt;&lt;li&gt;&lt;span id=&quot;docs-internal-guid-62eb804c-7fff-2564-65aa-d5cac8914fea&quot;&gt;&lt;span style=&quot;background-color: transparent; white-space-collapse: preserve; font-size: 11pt; font-family: Arial, sans-serif; font-variant-numeric: normal; font-variant-east-asian: normal; font-variant-alternates: normal; font-variant-position: normal; vertical-align: baseline;&quot;&gt;Se proviene de 2FN, todos los atributos de las entidades son independientes entre sÃ­. &lt;/span&gt;&lt;font style=&quot;background-color: initial; font-size: 14px;&quot; face=&quot;Arial, san-serif&quot;&gt;Para cumplir esta 3FN, ademÃ¡s de tener que cumplir con la 2FN, cada campo de una tabla debe depender funcionalmente solo de la clave primaria sin que haya dependencias transitivas. Esto significa que si un campo no clave depende de otro campo no clave, debemos eliminar esa dependencia y crear una tabla separada.&lt;/font&gt;&lt;/span&gt;&lt;/li&gt;&lt;/ul&gt;&lt;/span&gt;" style="text;html=1;align=left;verticalAlign=middle;whiteSpace=wrap;rounded=0;" parent="1" vertex="1">
          <mxGeometry x="12.58" y="1225" width="800" height="330" as="geometry" />
        </mxCell>
      </root>
    </mxGraphModel>
  </diagram>
</mxfile>
